  0
SECTION
  2
BLOCKS
  0
ENDSEC
  0
SECTION
  2
ENTITIES
  0
LINE
  8
0
 10
519.02
 20
-293.344
 11
530.393
 21
-290.424
  0
LINE
  8
0
 10
530.393
 20
-290.424
 11
541.31
 21
-286.101
  0
LINE
  8
0
 10
541.31
 20
-286.101
 11
551.6
 21
-280.445
  0
LINE
  8
0
 10
551.6
 20
-280.445
 11
561.099
 21
-273.543
  0
LINE
  8
0
 10
561.099
 20
-273.543
 11
569.659
 21
-265.505
  0
LINE
  8
0
 10
569.659
 20
-265.505
 11
577.143
 21
-256.458
  0
LINE
  8
0
 10
577.143
 20
-256.458
 11
583.435
 21
-246.544
  0
LINE
  8
0
 10
583.435
 20
-246.544
 11
588.434
 21
-235.92
  0
LINE
  8
0
 10
588.434
 20
-235.92
 11
592.063
 21
-224.753
  0
LINE
  8
0
 10
592.063
 20
-224.753
 11
594.263
 21
-213.219
  0
LINE
  8
0
 10
594.263
 20
-213.219
 11
595
 21
-201.5
  0
LINE
  8
0
 10
595
 20
-201.5
 11
595
 21
201.5
  0
LINE
  8
0
 10
595
 20
201.5
 11
594.263
 21
213.219
  0
LINE
  8
0
 10
594.263
 20
213.219
 11
592.063
 21
224.753
  0
LINE
  8
0
 10
592.063
 20
224.753
 11
588.434
 21
235.92
  0
LINE
  8
0
 10
588.434
 20
235.92
 11
583.435
 21
246.544
  0
LINE
  8
0
 10
583.435
 20
246.544
 11
577.143
 21
256.458
  0
LINE
  8
0
 10
577.143
 20
256.458
 11
569.659
 21
265.505
  0
LINE
  8
0
 10
569.659
 20
265.505
 11
561.099
 21
273.543
  0
LINE
  8
0
 10
561.099
 20
273.543
 11
551.6
 21
280.445
  0
LINE
  8
0
 10
551.6
 20
280.445
 11
541.31
 21
286.101
  0
LINE
  8
0
 10
541.31
 20
286.101
 11
530.393
 21
290.424
  0
LINE
  8
0
 10
530.393
 20
290.424
 11
519.02
 21
293.344
  0
LINE
  8
0
 10
519.02
 20
293.344
 11
507.371
 21
294.815
  0
LINE
  8
0
 10
507.371
 20
294.815
 11
92.6291
 21
294.815
  0
LINE
  8
0
 10
92.6291
 20
294.815
 11
80.9798
 21
293.344
  0
LINE
  8
0
 10
80.9798
 20
293.344
 11
69.6069
 21
290.424
  0
LINE
  8
0
 10
69.6069
 20
290.424
 11
58.6896
 21
286.101
  0
LINE
  8
0
 10
58.6896
 20
286.101
 11
48.4002
 21
280.445
  0
LINE
  8
0
 10
48.4002
 20
280.445
 11
38.9008
 21
273.543
  0
LINE
  8
0
 10
38.9008
 20
273.543
 11
30.3414
 21
265.505
  0
LINE
  8
0
 10
30.3414
 20
265.505
 11
22.8569
 21
256.458
  0
LINE
  8
0
 10
22.8569
 20
256.458
 11
16.5653
 21
246.544
  0
LINE
  8
0
 10
16.5653
 20
246.544
 11
11.5659
 21
235.92
  0
LINE
  8
0
 10
11.5659
 20
235.92
 11
7.93747
 21
224.753
  0
LINE
  8
0
 10
7.93747
 20
224.753
 11
5.73727
 21
213.219
  0
LINE
  8
0
 10
5.73727
 20
213.219
 11
5
 21
201.5
  0
LINE
  8
0
 10
5
 20
201.5
 11
5
 21
-201.5
  0
LINE
  8
0
 10
5
 20
-201.5
 11
5.73727
 21
-213.219
  0
LINE
  8
0
 10
5.73727
 20
-213.219
 11
7.93747
 21
-224.753
  0
LINE
  8
0
 10
7.93747
 20
-224.753
 11
11.5659
 21
-235.92
  0
LINE
  8
0
 10
11.5659
 20
-235.92
 11
16.5653
 21
-246.544
  0
LINE
  8
0
 10
16.5653
 20
-246.544
 11
22.8569
 21
-256.458
  0
LINE
  8
0
 10
22.8569
 20
-256.458
 11
30.3414
 21
-265.505
  0
LINE
  8
0
 10
30.3414
 20
-265.505
 11
38.9008
 21
-273.543
  0
LINE
  8
0
 10
38.9008
 20
-273.543
 11
48.4002
 21
-280.445
  0
LINE
  8
0
 10
48.4002
 20
-280.445
 11
58.6896
 21
-286.101
  0
LINE
  8
0
 10
58.6896
 20
-286.101
 11
69.6069
 21
-290.424
  0
LINE
  8
0
 10
69.6069
 20
-290.424
 11
80.9798
 21
-293.344
  0
LINE
  8
0
 10
80.9798
 20
-293.344
 11
92.6291
 21
-294.815
  0
LINE
  8
0
 10
92.6291
 20
-294.815
 11
507.371
 21
-294.815
  0
LINE
  8
0
 10
507.371
 20
-294.815
 11
519.02
 21
-293.344
  0
LINE
  8
0
 10
495.95
 20
256.35
 11
495.95
 21
271.55
  0
LINE
  8
0
 10
495.95
 20
271.55
 11
501.55
 21
271.55
  0
LINE
  8
0
 10
501.55
 20
271.55
 11
501.55
 21
256.35
  0
LINE
  8
0
 10
501.55
 20
256.35
 11
495.95
 21
256.35
  0
LINE
  8
0
 10
98.45
 20
256.35
 11
98.45
 21
271.55
  0
LINE
  8
0
 10
98.45
 20
271.55
 11
104.05
 21
271.55
  0
LINE
  8
0
 10
104.05
 20
271.55
 11
104.05
 21
256.35
  0
LINE
  8
0
 10
104.05
 20
256.35
 11
98.45
 21
256.35
  0
LINE
  8
0
 10
495.95
 20
217.1
 11
495.95
 21
232.3
  0
LINE
  8
0
 10
495.95
 20
232.3
 11
501.55
 21
232.3
  0
LINE
  8
0
 10
501.55
 20
232.3
 11
501.55
 21
217.1
  0
LINE
  8
0
 10
501.55
 20
217.1
 11
495.95
 21
217.1
  0
LINE
  8
0
 10
98.45
 20
217.1
 11
98.45
 21
232.3
  0
LINE
  8
0
 10
98.45
 20
232.3
 11
104.05
 21
232.3
  0
LINE
  8
0
 10
104.05
 20
232.3
 11
104.05
 21
217.1
  0
LINE
  8
0
 10
104.05
 20
217.1
 11
98.45
 21
217.1
  0
LINE
  8
0
 10
556.35
 20
195.95
 11
556.35
 21
201.55
  0
LINE
  8
0
 10
556.35
 20
201.55
 11
571.55
 21
201.55
  0
LINE
  8
0
 10
571.55
 20
201.55
 11
571.55
 21
195.95
  0
LINE
  8
0
 10
571.55
 20
195.95
 11
556.35
 21
195.95
  0
LINE
  8
0
 10
397.4
 20
195.95
 11
397.4
 21
201.55
  0
LINE
  8
0
 10
397.4
 20
201.55
 11
412.6
 21
201.55
  0
LINE
  8
0
 10
412.6
 20
201.55
 11
412.6
 21
195.95
  0
LINE
  8
0
 10
412.6
 20
195.95
 11
397.4
 21
195.95
  0
LINE
  8
0
 10
292.4
 20
195.95
 11
292.4
 21
201.55
  0
LINE
  8
0
 10
292.4
 20
201.55
 11
307.6
 21
201.55
  0
LINE
  8
0
 10
307.6
 20
201.55
 11
307.6
 21
195.95
  0
LINE
  8
0
 10
307.6
 20
195.95
 11
292.4
 21
195.95
  0
LINE
  8
0
 10
517.1
 20
195.95
 11
517.1
 21
201.55
  0
LINE
  8
0
 10
517.1
 20
201.55
 11
532.3
 21
201.55
  0
LINE
  8
0
 10
532.3
 20
201.55
 11
532.3
 21
195.95
  0
LINE
  8
0
 10
532.3
 20
195.95
 11
517.1
 21
195.95
  0
LINE
  8
0
 10
28.45
 20
195.95
 11
28.45
 21
201.55
  0
LINE
  8
0
 10
28.45
 20
201.55
 11
43.65
 21
201.55
  0
LINE
  8
0
 10
43.65
 20
201.55
 11
43.65
 21
195.95
  0
LINE
  8
0
 10
43.65
 20
195.95
 11
28.45
 21
195.95
  0
LINE
  8
0
 10
187.4
 20
195.95
 11
187.4
 21
201.55
  0
LINE
  8
0
 10
187.4
 20
201.55
 11
202.6
 21
201.55
  0
LINE
  8
0
 10
202.6
 20
201.55
 11
202.6
 21
195.95
  0
LINE
  8
0
 10
202.6
 20
195.95
 11
187.4
 21
195.95
  0
LINE
  8
0
 10
67.7
 20
195.95
 11
67.7
 21
201.55
  0
LINE
  8
0
 10
67.7
 20
201.55
 11
82.9
 21
201.55
  0
LINE
  8
0
 10
82.9
 20
201.55
 11
82.9
 21
195.95
  0
LINE
  8
0
 10
82.9
 20
195.95
 11
67.7
 21
195.95
  0
LINE
  8
0
 10
495.95
 20
97.4
 11
495.95
 21
112.6
  0
LINE
  8
0
 10
495.95
 20
112.6
 11
501.55
 21
112.6
  0
LINE
  8
0
 10
501.55
 20
112.6
 11
501.55
 21
97.4
  0
LINE
  8
0
 10
501.55
 20
97.4
 11
495.95
 21
97.4
  0
LINE
  8
0
 10
98.45
 20
97.4
 11
98.45
 21
112.6
  0
LINE
  8
0
 10
98.45
 20
112.6
 11
104.05
 21
112.6
  0
LINE
  8
0
 10
104.05
 20
112.6
 11
104.05
 21
97.4
  0
LINE
  8
0
 10
104.05
 20
97.4
 11
98.45
 21
97.4
  0
LINE
  8
0
 10
357.417
 20
61.3769
 11
365.902
 21
69.8622
  0
LINE
  8
0
 10
365.902
 20
69.8622
 11
369.862
 21
65.9023
  0
LINE
  8
0
 10
369.862
 20
65.9023
 11
361.377
 21
57.4171
  0
LINE
  8
0
 10
361.377
 20
57.4171
 11
357.417
 21
61.3769
  0
LINE
  8
0
 10
230.138
 20
65.9023
 11
234.098
 21
69.8622
  0
LINE
  8
0
 10
234.098
 20
69.8622
 11
242.583
 21
61.3769
  0
LINE
  8
0
 10
242.583
 20
61.3769
 11
238.623
 21
57.4171
  0
LINE
  8
0
 10
238.623
 20
57.4171
 11
230.138
 21
65.9023
  0
LINE
  8
0
 10
322.062
 20
26.0215
 11
330.547
 21
34.5068
  0
LINE
  8
0
 10
330.547
 20
34.5068
 11
334.507
 21
30.547
  0
LINE
  8
0
 10
334.507
 20
30.547
 11
326.022
 21
22.0617
  0
LINE
  8
0
 10
326.022
 20
22.0617
 11
322.062
 21
26.0215
  0
LINE
  8
0
 10
265.493
 20
30.547
 11
269.453
 21
34.5068
  0
LINE
  8
0
 10
269.453
 20
34.5068
 11
277.938
 21
26.0215
  0
LINE
  8
0
 10
277.938
 20
26.0215
 11
273.978
 21
22.0617
  0
LINE
  8
0
 10
273.978
 20
22.0617
 11
265.493
 21
30.547
  0
LINE
  8
0
 10
98.45
 20
-7.59999
 11
98.45
 21
7.59999
  0
LINE
  8
0
 10
98.45
 20
7.59999
 11
104.05
 21
7.59999
  0
LINE
  8
0
 10
104.05
 20
7.59999
 11
104.05
 21
-7.59999
  0
LINE
  8
0
 10
104.05
 20
-7.59999
 11
98.45
 21
-7.59999
  0
LINE
  8
0
 10
495.95
 20
-7.59999
 11
495.95
 21
7.59999
  0
LINE
  8
0
 10
495.95
 20
7.59999
 11
501.55
 21
7.59999
  0
LINE
  8
0
 10
501.55
 20
7.59999
 11
501.55
 21
-7.59999
  0
LINE
  8
0
 10
501.55
 20
-7.59999
 11
495.95
 21
-7.59999
  0
LINE
  8
0
 10
265.493
 20
-30.547
 11
273.978
 21
-22.0617
  0
LINE
  8
0
 10
273.978
 20
-22.0617
 11
277.938
 21
-26.0215
  0
LINE
  8
0
 10
277.938
 20
-26.0215
 11
269.453
 21
-34.5068
  0
LINE
  8
0
 10
269.453
 20
-34.5068
 11
265.493
 21
-30.547
  0
LINE
  8
0
 10
322.062
 20
-26.0215
 11
326.022
 21
-22.0617
  0
LINE
  8
0
 10
326.022
 20
-22.0617
 11
334.507
 21
-30.547
  0
LINE
  8
0
 10
334.507
 20
-30.547
 11
330.547
 21
-34.5068
  0
LINE
  8
0
 10
330.547
 20
-34.5068
 11
322.062
 21
-26.0215
  0
LINE
  8
0
 10
357.417
 20
-61.3769
 11
361.377
 21
-57.4171
  0
LINE
  8
0
 10
361.377
 20
-57.4171
 11
369.862
 21
-65.9023
  0
LINE
  8
0
 10
369.862
 20
-65.9023
 11
365.902
 21
-69.8622
  0
LINE
  8
0
 10
365.902
 20
-69.8622
 11
357.417
 21
-61.3769
  0
LINE
  8
0
 10
230.138
 20
-65.9023
 11
238.623
 21
-57.4171
  0
LINE
  8
0
 10
238.623
 20
-57.4171
 11
242.583
 21
-61.3769
  0
LINE
  8
0
 10
242.583
 20
-61.3769
 11
234.098
 21
-69.8622
  0
LINE
  8
0
 10
234.098
 20
-69.8622
 11
230.138
 21
-65.9023
  0
LINE
  8
0
 10
495.95
 20
-112.6
 11
495.95
 21
-97.4
  0
LINE
  8
0
 10
495.95
 20
-97.4
 11
501.55
 21
-97.4
  0
LINE
  8
0
 10
501.55
 20
-97.4
 11
501.55
 21
-112.6
  0
LINE
  8
0
 10
501.55
 20
-112.6
 11
495.95
 21
-112.6
  0
LINE
  8
0
 10
98.45
 20
-112.6
 11
98.45
 21
-97.4
  0
LINE
  8
0
 10
98.45
 20
-97.4
 11
104.05
 21
-97.4
  0
LINE
  8
0
 10
104.05
 20
-97.4
 11
104.05
 21
-112.6
  0
LINE
  8
0
 10
104.05
 20
-112.6
 11
98.45
 21
-112.6
  0
LINE
  8
0
 10
397.4
 20
-201.55
 11
397.4
 21
-195.95
  0
LINE
  8
0
 10
397.4
 20
-195.95
 11
412.6
 21
-195.95
  0
LINE
  8
0
 10
412.6
 20
-195.95
 11
412.6
 21
-201.55
  0
LINE
  8
0
 10
412.6
 20
-201.55
 11
397.4
 21
-201.55
  0
LINE
  8
0
 10
28.45
 20
-201.55
 11
28.45
 21
-195.95
  0
LINE
  8
0
 10
28.45
 20
-195.95
 11
43.65
 21
-195.95
  0
LINE
  8
0
 10
43.65
 20
-195.95
 11
43.65
 21
-201.55
  0
LINE
  8
0
 10
43.65
 20
-201.55
 11
28.45
 21
-201.55
  0
LINE
  8
0
 10
292.4
 20
-201.55
 11
292.4
 21
-195.95
  0
LINE
  8
0
 10
292.4
 20
-195.95
 11
307.6
 21
-195.95
  0
LINE
  8
0
 10
307.6
 20
-195.95
 11
307.6
 21
-201.55
  0
LINE
  8
0
 10
307.6
 20
-201.55
 11
292.4
 21
-201.55
  0
LINE
  8
0
 10
187.4
 20
-201.55
 11
187.4
 21
-195.95
  0
LINE
  8
0
 10
187.4
 20
-195.95
 11
202.6
 21
-195.95
  0
LINE
  8
0
 10
202.6
 20
-195.95
 11
202.6
 21
-201.55
  0
LINE
  8
0
 10
202.6
 20
-201.55
 11
187.4
 21
-201.55
  0
LINE
  8
0
 10
556.35
 20
-201.55
 11
556.35
 21
-195.95
  0
LINE
  8
0
 10
556.35
 20
-195.95
 11
571.55
 21
-195.95
  0
LINE
  8
0
 10
571.55
 20
-195.95
 11
571.55
 21
-201.55
  0
LINE
  8
0
 10
571.55
 20
-201.55
 11
556.35
 21
-201.55
  0
LINE
  8
0
 10
517.1
 20
-201.55
 11
517.1
 21
-195.95
  0
LINE
  8
0
 10
517.1
 20
-195.95
 11
532.3
 21
-195.95
  0
LINE
  8
0
 10
532.3
 20
-195.95
 11
532.3
 21
-201.55
  0
LINE
  8
0
 10
532.3
 20
-201.55
 11
517.1
 21
-201.55
  0
LINE
  8
0
 10
67.7
 20
-201.55
 11
67.7
 21
-195.95
  0
LINE
  8
0
 10
67.7
 20
-195.95
 11
82.9
 21
-195.95
  0
LINE
  8
0
 10
82.9
 20
-195.95
 11
82.9
 21
-201.55
  0
LINE
  8
0
 10
82.9
 20
-201.55
 11
67.7
 21
-201.55
  0
LINE
  8
0
 10
98.45
 20
-232.3
 11
98.45
 21
-217.1
  0
LINE
  8
0
 10
98.45
 20
-217.1
 11
104.05
 21
-217.1
  0
LINE
  8
0
 10
104.05
 20
-217.1
 11
104.05
 21
-232.3
  0
LINE
  8
0
 10
104.05
 20
-232.3
 11
98.45
 21
-232.3
  0
LINE
  8
0
 10
495.95
 20
-232.3
 11
495.95
 21
-217.1
  0
LINE
  8
0
 10
495.95
 20
-217.1
 11
501.55
 21
-217.1
  0
LINE
  8
0
 10
501.55
 20
-217.1
 11
501.55
 21
-232.3
  0
LINE
  8
0
 10
501.55
 20
-232.3
 11
495.95
 21
-232.3
  0
LINE
  8
0
 10
495.95
 20
-271.55
 11
495.95
 21
-256.35
  0
LINE
  8
0
 10
495.95
 20
-256.35
 11
501.55
 21
-256.35
  0
LINE
  8
0
 10
501.55
 20
-256.35
 11
501.55
 21
-271.55
  0
LINE
  8
0
 10
501.55
 20
-271.55
 11
495.95
 21
-271.55
  0
LINE
  8
0
 10
98.45
 20
-271.55
 11
98.45
 21
-256.35
  0
LINE
  8
0
 10
98.45
 20
-256.35
 11
104.05
 21
-256.35
  0
LINE
  8
0
 10
104.05
 20
-256.35
 11
104.05
 21
-271.55
  0
LINE
  8
0
 10
104.05
 20
-271.55
 11
98.45
 21
-271.55
  0
LINE
  8
0
 10
-80.9798
 20
-293.344
 11
-69.6069
 21
-290.424
  0
LINE
  8
0
 10
-69.6069
 20
-290.424
 11
-58.6896
 21
-286.101
  0
LINE
  8
0
 10
-58.6896
 20
-286.101
 11
-48.4002
 21
-280.445
  0
LINE
  8
0
 10
-48.4002
 20
-280.445
 11
-38.9008
 21
-273.543
  0
LINE
  8
0
 10
-38.9008
 20
-273.543
 11
-30.3414
 21
-265.505
  0
LINE
  8
0
 10
-30.3414
 20
-265.505
 11
-22.8569
 21
-256.458
  0
LINE
  8
0
 10
-22.8569
 20
-256.458
 11
-16.5653
 21
-246.544
  0
LINE
  8
0
 10
-16.5653
 20
-246.544
 11
-11.5659
 21
-235.92
  0
LINE
  8
0
 10
-11.5659
 20
-235.92
 11
-7.93747
 21
-224.753
  0
LINE
  8
0
 10
-7.93747
 20
-224.753
 11
-5.73727
 21
-213.219
  0
LINE
  8
0
 10
-5.73727
 20
-213.219
 11
-5
 21
-201.5
  0
LINE
  8
0
 10
-5
 20
-201.5
 11
-5
 21
201.5
  0
LINE
  8
0
 10
-5
 20
201.5
 11
-5.73727
 21
213.219
  0
LINE
  8
0
 10
-5.73727
 20
213.219
 11
-7.93747
 21
224.753
  0
LINE
  8
0
 10
-7.93747
 20
224.753
 11
-11.5659
 21
235.92
  0
LINE
  8
0
 10
-11.5659
 20
235.92
 11
-16.5653
 21
246.544
  0
LINE
  8
0
 10
-16.5653
 20
246.544
 11
-22.8569
 21
256.458
  0
LINE
  8
0
 10
-22.8569
 20
256.458
 11
-30.3414
 21
265.505
  0
LINE
  8
0
 10
-30.3414
 20
265.505
 11
-38.9008
 21
273.543
  0
LINE
  8
0
 10
-38.9008
 20
273.543
 11
-48.4002
 21
280.445
  0
LINE
  8
0
 10
-48.4002
 20
280.445
 11
-58.6896
 21
286.101
  0
LINE
  8
0
 10
-58.6896
 20
286.101
 11
-69.6069
 21
290.424
  0
LINE
  8
0
 10
-69.6069
 20
290.424
 11
-80.9798
 21
293.344
  0
LINE
  8
0
 10
-80.9798
 20
293.344
 11
-92.6291
 21
294.815
  0
LINE
  8
0
 10
-92.6291
 20
294.815
 11
-507.371
 21
294.815
  0
LINE
  8
0
 10
-507.371
 20
294.815
 11
-519.02
 21
293.344
  0
LINE
  8
0
 10
-519.02
 20
293.344
 11
-530.393
 21
290.424
  0
LINE
  8
0
 10
-530.393
 20
290.424
 11
-541.31
 21
286.101
  0
LINE
  8
0
 10
-541.31
 20
286.101
 11
-551.6
 21
280.445
  0
LINE
  8
0
 10
-551.6
 20
280.445
 11
-561.099
 21
273.543
  0
LINE
  8
0
 10
-561.099
 20
273.543
 11
-569.659
 21
265.505
  0
LINE
  8
0
 10
-569.659
 20
265.505
 11
-577.143
 21
256.458
  0
LINE
  8
0
 10
-577.143
 20
256.458
 11
-583.435
 21
246.544
  0
LINE
  8
0
 10
-583.435
 20
246.544
 11
-588.434
 21
235.92
  0
LINE
  8
0
 10
-588.434
 20
235.92
 11
-592.063
 21
224.753
  0
LINE
  8
0
 10
-592.063
 20
224.753
 11
-594.263
 21
213.219
  0
LINE
  8
0
 10
-594.263
 20
213.219
 11
-595
 21
201.5
  0
LINE
  8
0
 10
-595
 20
201.5
 11
-595
 21
-201.5
  0
LINE
  8
0
 10
-595
 20
-201.5
 11
-594.263
 21
-213.219
  0
LINE
  8
0
 10
-594.263
 20
-213.219
 11
-592.063
 21
-224.753
  0
LINE
  8
0
 10
-592.063
 20
-224.753
 11
-588.434
 21
-235.92
  0
LINE
  8
0
 10
-588.434
 20
-235.92
 11
-583.435
 21
-246.544
  0
LINE
  8
0
 10
-583.435
 20
-246.544
 11
-577.143
 21
-256.458
  0
LINE
  8
0
 10
-577.143
 20
-256.458
 11
-569.659
 21
-265.505
  0
LINE
  8
0
 10
-569.659
 20
-265.505
 11
-561.099
 21
-273.543
  0
LINE
  8
0
 10
-561.099
 20
-273.543
 11
-551.6
 21
-280.445
  0
LINE
  8
0
 10
-551.6
 20
-280.445
 11
-541.31
 21
-286.101
  0
LINE
  8
0
 10
-541.31
 20
-286.101
 11
-530.393
 21
-290.424
  0
LINE
  8
0
 10
-530.393
 20
-290.424
 11
-519.02
 21
-293.344
  0
LINE
  8
0
 10
-519.02
 20
-293.344
 11
-507.371
 21
-294.815
  0
LINE
  8
0
 10
-507.371
 20
-294.815
 11
-92.6291
 21
-294.815
  0
LINE
  8
0
 10
-92.6291
 20
-294.815
 11
-80.9798
 21
-293.344
  0
LINE
  8
0
 10
-501.55
 20
256.35
 11
-501.55
 21
271.55
  0
LINE
  8
0
 10
-501.55
 20
271.55
 11
-495.95
 21
271.55
  0
LINE
  8
0
 10
-495.95
 20
271.55
 11
-495.95
 21
256.35
  0
LINE
  8
0
 10
-495.95
 20
256.35
 11
-501.55
 21
256.35
  0
LINE
  8
0
 10
-104.05
 20
256.35
 11
-104.05
 21
271.55
  0
LINE
  8
0
 10
-104.05
 20
271.55
 11
-98.45
 21
271.55
  0
LINE
  8
0
 10
-98.45
 20
271.55
 11
-98.45
 21
256.35
  0
LINE
  8
0
 10
-98.45
 20
256.35
 11
-104.05
 21
256.35
  0
LINE
  8
0
 10
-104.05
 20
217.1
 11
-104.05
 21
232.3
  0
LINE
  8
0
 10
-104.05
 20
232.3
 11
-98.45
 21
232.3
  0
LINE
  8
0
 10
-98.45
 20
232.3
 11
-98.45
 21
217.1
  0
LINE
  8
0
 10
-98.45
 20
217.1
 11
-104.05
 21
217.1
  0
LINE
  8
0
 10
-501.55
 20
217.1
 11
-501.55
 21
232.3
  0
LINE
  8
0
 10
-501.55
 20
232.3
 11
-495.95
 21
232.3
  0
LINE
  8
0
 10
-495.95
 20
232.3
 11
-495.95
 21
217.1
  0
LINE
  8
0
 10
-495.95
 20
217.1
 11
-501.55
 21
217.1
  0
LINE
  8
0
 10
-43.65
 20
195.95
 11
-43.65
 21
201.55
  0
LINE
  8
0
 10
-43.65
 20
201.55
 11
-28.45
 21
201.55
  0
LINE
  8
0
 10
-28.45
 20
201.55
 11
-28.45
 21
195.95
  0
LINE
  8
0
 10
-28.45
 20
195.95
 11
-43.65
 21
195.95
  0
LINE
  8
0
 10
-532.3
 20
195.95
 11
-532.3
 21
201.55
  0
LINE
  8
0
 10
-532.3
 20
201.55
 11
-517.1
 21
201.55
  0
LINE
  8
0
 10
-517.1
 20
201.55
 11
-517.1
 21
195.95
  0
LINE
  8
0
 10
-517.1
 20
195.95
 11
-532.3
 21
195.95
  0
LINE
  8
0
 10
-82.9
 20
195.95
 11
-82.9
 21
201.55
  0
LINE
  8
0
 10
-82.9
 20
201.55
 11
-67.7
 21
201.55
  0
LINE
  8
0
 10
-67.7
 20
201.55
 11
-67.7
 21
195.95
  0
LINE
  8
0
 10
-67.7
 20
195.95
 11
-82.9
 21
195.95
  0
LINE
  8
0
 10
-571.55
 20
195.95
 11
-571.55
 21
201.55
  0
LINE
  8
0
 10
-571.55
 20
201.55
 11
-556.35
 21
201.55
  0
LINE
  8
0
 10
-556.35
 20
201.55
 11
-556.35
 21
195.95
  0
LINE
  8
0
 10
-556.35
 20
195.95
 11
-571.55
 21
195.95
  0
LINE
  8
0
 10
-412.6
 20
-201.55
 11
-412.6
 21
-196.132
  0
LINE
  8
0
 10
-412.6
 20
-196.132
 11
-440.017
 21
-196.132
  0
LINE
  8
0
 10
-440.017
 20
-196.132
 11
-447.493
 21
-195.187
  0
LINE
  8
0
 10
-447.493
 20
-195.187
 11
-454.791
 21
-193.313
  0
LINE
  8
0
 10
-454.791
 20
-193.313
 11
-461.797
 21
-190.54
  0
LINE
  8
0
 10
-461.797
 20
-190.54
 11
-468.4
 21
-186.91
  0
LINE
  8
0
 10
-468.4
 20
-186.91
 11
-474.495
 21
-182.481
  0
LINE
  8
0
 10
-474.495
 20
-182.481
 11
-479.988
 21
-177.323
  0
LINE
  8
0
 10
-479.988
 20
-177.323
 11
-484.791
 21
-171.517
  0
LINE
  8
0
 10
-484.791
 20
-171.517
 11
-488.828
 21
-165.155
  0
LINE
  8
0
 10
-488.828
 20
-165.155
 11
-492.037
 21
-158.337
  0
LINE
  8
0
 10
-492.037
 20
-158.337
 11
-494.365
 21
-151.171
  0
LINE
  8
0
 10
-494.365
 20
-151.171
 11
-495.777
 21
-143.77
  0
LINE
  8
0
 10
-495.777
 20
-143.77
 11
-496.25
 21
-136.25
  0
LINE
  8
0
 10
-496.25
 20
-136.25
 11
-496.25
 21
-112.6
  0
LINE
  8
0
 10
-496.25
 20
-112.6
 11
-501.55
 21
-112.6
  0
LINE
  8
0
 10
-501.55
 20
-112.6
 11
-501.55
 21
-97.4
  0
LINE
  8
0
 10
-501.55
 20
-97.4
 11
-496.25
 21
-97.4
  0
LINE
  8
0
 10
-496.25
 20
-97.4
 11
-496.25
 21
-7.59999
  0
LINE
  8
0
 10
-496.25
 20
-7.59999
 11
-501.55
 21
-7.59999
  0
LINE
  8
0
 10
-501.55
 20
-7.59999
 11
-501.55
 21
7.59999
  0
LINE
  8
0
 10
-501.55
 20
7.59999
 11
-496.25
 21
7.59999
  0
LINE
  8
0
 10
-496.25
 20
7.59999
 11
-496.25
 21
97.4
  0
LINE
  8
0
 10
-496.25
 20
97.4
 11
-501.55
 21
97.4
  0
LINE
  8
0
 10
-501.55
 20
97.4
 11
-501.55
 21
112.6
  0
LINE
  8
0
 10
-501.55
 20
112.6
 11
-496.25
 21
112.6
  0
LINE
  8
0
 10
-496.25
 20
112.6
 11
-496.25
 21
136.25
  0
LINE
  8
0
 10
-496.25
 20
136.25
 11
-495.777
 21
143.77
  0
LINE
  8
0
 10
-495.777
 20
143.77
 11
-494.365
 21
151.171
  0
LINE
  8
0
 10
-494.365
 20
151.171
 11
-492.037
 21
158.337
  0
LINE
  8
0
 10
-492.037
 20
158.337
 11
-488.828
 21
165.155
  0
LINE
  8
0
 10
-488.828
 20
165.155
 11
-484.791
 21
171.517
  0
LINE
  8
0
 10
-484.791
 20
171.517
 11
-479.988
 21
177.323
  0
LINE
  8
0
 10
-479.988
 20
177.323
 11
-474.495
 21
182.481
  0
LINE
  8
0
 10
-474.495
 20
182.481
 11
-468.4
 21
186.91
  0
LINE
  8
0
 10
-468.4
 20
186.91
 11
-461.797
 21
190.54
  0
LINE
  8
0
 10
-461.797
 20
190.54
 11
-454.791
 21
193.313
  0
LINE
  8
0
 10
-454.791
 20
193.313
 11
-447.493
 21
195.187
  0
LINE
  8
0
 10
-447.493
 20
195.187
 11
-440.017
 21
196.132
  0
LINE
  8
0
 10
-440.017
 20
196.132
 11
-412.6
 21
196.132
  0
LINE
  8
0
 10
-412.6
 20
196.132
 11
-412.6
 21
201.55
  0
LINE
  8
0
 10
-412.6
 20
201.55
 11
-397.4
 21
201.55
  0
LINE
  8
0
 10
-397.4
 20
201.55
 11
-397.4
 21
196.132
  0
LINE
  8
0
 10
-397.4
 20
196.132
 11
-307.6
 21
196.132
  0
LINE
  8
0
 10
-307.6
 20
196.132
 11
-307.6
 21
201.55
  0
LINE
  8
0
 10
-307.6
 20
201.55
 11
-292.4
 21
201.55
  0
LINE
  8
0
 10
-292.4
 20
201.55
 11
-292.4
 21
196.132
  0
LINE
  8
0
 10
-292.4
 20
196.132
 11
-202.6
 21
196.132
  0
LINE
  8
0
 10
-202.6
 20
196.132
 11
-202.6
 21
201.55
  0
LINE
  8
0
 10
-202.6
 20
201.55
 11
-187.4
 21
201.55
  0
LINE
  8
0
 10
-187.4
 20
201.55
 11
-187.4
 21
196.132
  0
LINE
  8
0
 10
-187.4
 20
196.132
 11
-159.983
 21
196.132
  0
LINE
  8
0
 10
-159.983
 20
196.132
 11
-152.507
 21
195.187
  0
LINE
  8
0
 10
-152.507
 20
195.187
 11
-145.209
 21
193.313
  0
LINE
  8
0
 10
-145.209
 20
193.313
 11
-138.203
 21
190.54
  0
LINE
  8
0
 10
-138.203
 20
190.54
 11
-131.6
 21
186.91
  0
LINE
  8
0
 10
-131.6
 20
186.91
 11
-125.505
 21
182.481
  0
LINE
  8
0
 10
-125.505
 20
182.481
 11
-120.012
 21
177.323
  0
LINE
  8
0
 10
-120.012
 20
177.323
 11
-115.209
 21
171.517
  0
LINE
  8
0
 10
-115.209
 20
171.517
 11
-111.172
 21
165.155
  0
LINE
  8
0
 10
-111.172
 20
165.155
 11
-107.963
 21
158.337
  0
LINE
  8
0
 10
-107.963
 20
158.337
 11
-105.635
 21
151.171
  0
LINE
  8
0
 10
-105.635
 20
151.171
 11
-104.223
 21
143.77
  0
LINE
  8
0
 10
-104.223
 20
143.77
 11
-103.75
 21
136.25
  0
LINE
  8
0
 10
-103.75
 20
136.25
 11
-103.75
 21
112.6
  0
LINE
  8
0
 10
-103.75
 20
112.6
 11
-98.45
 21
112.6
  0
LINE
  8
0
 10
-98.45
 20
112.6
 11
-98.45
 21
97.4
  0
LINE
  8
0
 10
-98.45
 20
97.4
 11
-103.75
 21
97.4
  0
LINE
  8
0
 10
-103.75
 20
97.4
 11
-103.75
 21
7.59999
  0
LINE
  8
0
 10
-103.75
 20
7.59999
 11
-98.45
 21
7.59999
  0
LINE
  8
0
 10
-98.45
 20
7.59999
 11
-98.45
 21
-7.59999
  0
LINE
  8
0
 10
-98.45
 20
-7.59999
 11
-103.75
 21
-7.59999
  0
LINE
  8
0
 10
-103.75
 20
-7.59999
 11
-103.75
 21
-97.4
  0
LINE
  8
0
 10
-103.75
 20
-97.4
 11
-98.45
 21
-97.4
  0
LINE
  8
0
 10
-98.45
 20
-97.4
 11
-98.45
 21
-112.6
  0
LINE
  8
0
 10
-98.45
 20
-112.6
 11
-103.75
 21
-112.6
  0
LINE
  8
0
 10
-103.75
 20
-112.6
 11
-103.75
 21
-136.25
  0
LINE
  8
0
 10
-103.75
 20
-136.25
 11
-104.223
 21
-143.77
  0
LINE
  8
0
 10
-104.223
 20
-143.77
 11
-105.635
 21
-151.171
  0
LINE
  8
0
 10
-105.635
 20
-151.171
 11
-107.963
 21
-158.337
  0
LINE
  8
0
 10
-107.963
 20
-158.337
 11
-111.172
 21
-165.155
  0
LINE
  8
0
 10
-111.172
 20
-165.155
 11
-115.209
 21
-171.517
  0
LINE
  8
0
 10
-115.209
 20
-171.517
 11
-120.012
 21
-177.323
  0
LINE
  8
0
 10
-120.012
 20
-177.323
 11
-125.505
 21
-182.481
  0
LINE
  8
0
 10
-125.505
 20
-182.481
 11
-131.6
 21
-186.91
  0
LINE
  8
0
 10
-131.6
 20
-186.91
 11
-138.203
 21
-190.54
  0
LINE
  8
0
 10
-138.203
 20
-190.54
 11
-145.209
 21
-193.313
  0
LINE
  8
0
 10
-145.209
 20
-193.313
 11
-152.507
 21
-195.187
  0
LINE
  8
0
 10
-152.507
 20
-195.187
 11
-159.983
 21
-196.132
  0
LINE
  8
0
 10
-159.983
 20
-196.132
 11
-187.4
 21
-196.132
  0
LINE
  8
0
 10
-187.4
 20
-196.132
 11
-187.4
 21
-201.55
  0
LINE
  8
0
 10
-187.4
 20
-201.55
 11
-202.6
 21
-201.55
  0
LINE
  8
0
 10
-202.6
 20
-201.55
 11
-202.6
 21
-196.132
  0
LINE
  8
0
 10
-202.6
 20
-196.132
 11
-292.4
 21
-196.132
  0
LINE
  8
0
 10
-292.4
 20
-196.132
 11
-292.4
 21
-201.55
  0
LINE
  8
0
 10
-292.4
 20
-201.55
 11
-307.6
 21
-201.55
  0
LINE
  8
0
 10
-307.6
 20
-201.55
 11
-307.6
 21
-196.132
  0
LINE
  8
0
 10
-307.6
 20
-196.132
 11
-397.4
 21
-196.132
  0
LINE
  8
0
 10
-397.4
 20
-196.132
 11
-397.4
 21
-201.55
  0
LINE
  8
0
 10
-397.4
 20
-201.55
 11
-412.6
 21
-201.55
  0
LINE
  8
0
 10
-374
 20
165
 11
-404
 21
165
  0
LINE
  8
0
 10
-404
 20
165
 11
-404
 21
112.5
  0
LINE
  8
0
 10
-404
 20
112.5
 11
-410
 21
112.5
  0
LINE
  8
0
 10
-410
 20
112.5
 11
-410
 21
97.5
  0
LINE
  8
0
 10
-410
 20
97.5
 11
-404
 21
97.5
  0
LINE
  8
0
 10
-404
 20
97.5
 11
-404
 21
7.5
  0
LINE
  8
0
 10
-404
 20
7.5
 11
-410
 21
7.5
  0
LINE
  8
0
 10
-410
 20
7.5
 11
-410
 21
-7.5
  0
LINE
  8
0
 10
-410
 20
-7.5
 11
-404
 21
-7.5
  0
LINE
  8
0
 10
-404
 20
-7.5
 11
-404
 21
-97.5
  0
LINE
  8
0
 10
-404
 20
-97.5
 11
-410
 21
-97.5
  0
LINE
  8
0
 10
-410
 20
-97.5
 11
-410
 21
-112.5
  0
LINE
  8
0
 10
-410
 20
-112.5
 11
-404
 21
-112.5
  0
LINE
  8
0
 10
-404
 20
-112.5
 11
-404
 21
-165
  0
LINE
  8
0
 10
-404
 20
-165
 11
-374
 21
-165
  0
LINE
  8
0
 10
-374
 20
-165
 11
-374
 21
165
  0
LINE
  8
0
 10
-414.5
 20
165
 11
-444.5
 21
165
  0
LINE
  8
0
 10
-444.5
 20
165
 11
-444.5
 21
112.5
  0
LINE
  8
0
 10
-444.5
 20
112.5
 11
-450.5
 21
112.5
  0
LINE
  8
0
 10
-450.5
 20
112.5
 11
-450.5
 21
97.5
  0
LINE
  8
0
 10
-450.5
 20
97.5
 11
-444.5
 21
97.5
  0
LINE
  8
0
 10
-444.5
 20
97.5
 11
-444.5
 21
7.5
  0
LINE
  8
0
 10
-444.5
 20
7.5
 11
-450.5
 21
7.5
  0
LINE
  8
0
 10
-450.5
 20
7.5
 11
-450.5
 21
-7.5
  0
LINE
  8
0
 10
-450.5
 20
-7.5
 11
-444.5
 21
-7.5
  0
LINE
  8
0
 10
-444.5
 20
-7.5
 11
-444.5
 21
-97.5
  0
LINE
  8
0
 10
-444.5
 20
-97.5
 11
-450.5
 21
-97.5
  0
LINE
  8
0
 10
-450.5
 20
-97.5
 11
-450.5
 21
-112.5
  0
LINE
  8
0
 10
-450.5
 20
-112.5
 11
-444.5
 21
-112.5
  0
LINE
  8
0
 10
-444.5
 20
-112.5
 11
-444.5
 21
-165
  0
LINE
  8
0
 10
-444.5
 20
-165
 11
-414.5
 21
-165
  0
LINE
  8
0
 10
-414.5
 20
-165
 11
-414.5
 21
165
  0
LINE
  8
0
 10
-455
 20
165
 11
-485
 21
165
  0
LINE
  8
0
 10
-485
 20
165
 11
-485
 21
112.5
  0
LINE
  8
0
 10
-485
 20
112.5
 11
-491
 21
112.5
  0
LINE
  8
0
 10
-491
 20
112.5
 11
-491
 21
97.5
  0
LINE
  8
0
 10
-491
 20
97.5
 11
-485
 21
97.5
  0
LINE
  8
0
 10
-485
 20
97.5
 11
-485
 21
7.5
  0
LINE
  8
0
 10
-485
 20
7.5
 11
-491
 21
7.5
  0
LINE
  8
0
 10
-491
 20
7.5
 11
-491
 21
-7.5
  0
LINE
  8
0
 10
-491
 20
-7.5
 11
-485
 21
-7.5
  0
LINE
  8
0
 10
-485
 20
-7.5
 11
-485
 21
-97.5
  0
LINE
  8
0
 10
-485
 20
-97.5
 11
-491
 21
-97.5
  0
LINE
  8
0
 10
-491
 20
-97.5
 11
-491
 21
-112.5
  0
LINE
  8
0
 10
-491
 20
-112.5
 11
-485
 21
-112.5
  0
LINE
  8
0
 10
-485
 20
-112.5
 11
-485
 21
-165
  0
LINE
  8
0
 10
-485
 20
-165
 11
-455
 21
-165
  0
LINE
  8
0
 10
-455
 20
-165
 11
-455
 21
165
  0
LINE
  8
0
 10
-333.5
 20
165
 11
-363.5
 21
165
  0
LINE
  8
0
 10
-363.5
 20
165
 11
-363.5
 21
112.5
  0
LINE
  8
0
 10
-363.5
 20
112.5
 11
-369.5
 21
112.5
  0
LINE
  8
0
 10
-369.5
 20
112.5
 11
-369.5
 21
97.5
  0
LINE
  8
0
 10
-369.5
 20
97.5
 11
-363.5
 21
97.5
  0
LINE
  8
0
 10
-363.5
 20
97.5
 11
-363.5
 21
7.5
  0
LINE
  8
0
 10
-363.5
 20
7.5
 11
-369.5
 21
7.5
  0
LINE
  8
0
 10
-369.5
 20
7.5
 11
-369.5
 21
-7.5
  0
LINE
  8
0
 10
-369.5
 20
-7.5
 11
-363.5
 21
-7.5
  0
LINE
  8
0
 10
-363.5
 20
-7.5
 11
-363.5
 21
-97.5
  0
LINE
  8
0
 10
-363.5
 20
-97.5
 11
-369.5
 21
-97.5
  0
LINE
  8
0
 10
-369.5
 20
-97.5
 11
-369.5
 21
-112.5
  0
LINE
  8
0
 10
-369.5
 20
-112.5
 11
-363.5
 21
-112.5
  0
LINE
  8
0
 10
-363.5
 20
-112.5
 11
-363.5
 21
-165
  0
LINE
  8
0
 10
-363.5
 20
-165
 11
-333.5
 21
-165
  0
LINE
  8
0
 10
-333.5
 20
-165
 11
-333.5
 21
165
  0
LINE
  8
0
 10
-293
 20
165
 11
-323
 21
165
  0
LINE
  8
0
 10
-323
 20
165
 11
-323
 21
112.5
  0
LINE
  8
0
 10
-323
 20
112.5
 11
-329
 21
112.5
  0
LINE
  8
0
 10
-329
 20
112.5
 11
-329
 21
97.5
  0
LINE
  8
0
 10
-329
 20
97.5
 11
-323
 21
97.5
  0
LINE
  8
0
 10
-323
 20
97.5
 11
-323
 21
7.5
  0
LINE
  8
0
 10
-323
 20
7.5
 11
-329
 21
7.5
  0
LINE
  8
0
 10
-329
 20
7.5
 11
-329
 21
-7.5
  0
LINE
  8
0
 10
-329
 20
-7.5
 11
-323
 21
-7.5
  0
LINE
  8
0
 10
-323
 20
-7.5
 11
-323
 21
-97.5
  0
LINE
  8
0
 10
-323
 20
-97.5
 11
-329
 21
-97.5
  0
LINE
  8
0
 10
-329
 20
-97.5
 11
-329
 21
-112.5
  0
LINE
  8
0
 10
-329
 20
-112.5
 11
-323
 21
-112.5
  0
LINE
  8
0
 10
-323
 20
-112.5
 11
-323
 21
-165
  0
LINE
  8
0
 10
-323
 20
-165
 11
-293
 21
-165
  0
LINE
  8
0
 10
-293
 20
-165
 11
-293
 21
165
  0
LINE
  8
0
 10
-252.5
 20
165
 11
-282.5
 21
165
  0
LINE
  8
0
 10
-282.5
 20
165
 11
-282.5
 21
112.5
  0
LINE
  8
0
 10
-282.5
 20
112.5
 11
-288.5
 21
112.5
  0
LINE
  8
0
 10
-288.5
 20
112.5
 11
-288.5
 21
97.5
  0
LINE
  8
0
 10
-288.5
 20
97.5
 11
-282.5
 21
97.5
  0
LINE
  8
0
 10
-282.5
 20
97.5
 11
-282.5
 21
7.5
  0
LINE
  8
0
 10
-282.5
 20
7.5
 11
-288.5
 21
7.5
  0
LINE
  8
0
 10
-288.5
 20
7.5
 11
-288.5
 21
-7.5
  0
LINE
  8
0
 10
-288.5
 20
-7.5
 11
-282.5
 21
-7.5
  0
LINE
  8
0
 10
-282.5
 20
-7.5
 11
-282.5
 21
-97.5
  0
LINE
  8
0
 10
-282.5
 20
-97.5
 11
-288.5
 21
-97.5
  0
LINE
  8
0
 10
-288.5
 20
-97.5
 11
-288.5
 21
-112.5
  0
LINE
  8
0
 10
-288.5
 20
-112.5
 11
-282.5
 21
-112.5
  0
LINE
  8
0
 10
-282.5
 20
-112.5
 11
-282.5
 21
-165
  0
LINE
  8
0
 10
-282.5
 20
-165
 11
-252.5
 21
-165
  0
LINE
  8
0
 10
-252.5
 20
-165
 11
-252.5
 21
165
  0
LINE
  8
0
 10
-212
 20
165
 11
-242
 21
165
  0
LINE
  8
0
 10
-242
 20
165
 11
-242
 21
112.5
  0
LINE
  8
0
 10
-242
 20
112.5
 11
-248
 21
112.5
  0
LINE
  8
0
 10
-248
 20
112.5
 11
-248
 21
97.5
  0
LINE
  8
0
 10
-248
 20
97.5
 11
-242
 21
97.5
  0
LINE
  8
0
 10
-242
 20
97.5
 11
-242
 21
7.5
  0
LINE
  8
0
 10
-242
 20
7.5
 11
-248
 21
7.5
  0
LINE
  8
0
 10
-248
 20
7.5
 11
-248
 21
-7.5
  0
LINE
  8
0
 10
-248
 20
-7.5
 11
-242
 21
-7.5
  0
LINE
  8
0
 10
-242
 20
-7.5
 11
-242
 21
-97.5
  0
LINE
  8
0
 10
-242
 20
-97.5
 11
-248
 21
-97.5
  0
LINE
  8
0
 10
-248
 20
-97.5
 11
-248
 21
-112.5
  0
LINE
  8
0
 10
-248
 20
-112.5
 11
-242
 21
-112.5
  0
LINE
  8
0
 10
-242
 20
-112.5
 11
-242
 21
-165
  0
LINE
  8
0
 10
-242
 20
-165
 11
-212
 21
-165
  0
LINE
  8
0
 10
-212
 20
-165
 11
-212
 21
165
  0
LINE
  8
0
 10
-171.5
 20
165
 11
-201.5
 21
165
  0
LINE
  8
0
 10
-201.5
 20
165
 11
-201.5
 21
112.5
  0
LINE
  8
0
 10
-201.5
 20
112.5
 11
-207.5
 21
112.5
  0
LINE
  8
0
 10
-207.5
 20
112.5
 11
-207.5
 21
97.5
  0
LINE
  8
0
 10
-207.5
 20
97.5
 11
-201.5
 21
97.5
  0
LINE
  8
0
 10
-201.5
 20
97.5
 11
-201.5
 21
7.5
  0
LINE
  8
0
 10
-201.5
 20
7.5
 11
-207.5
 21
7.5
  0
LINE
  8
0
 10
-207.5
 20
7.5
 11
-207.5
 21
-7.5
  0
LINE
  8
0
 10
-207.5
 20
-7.5
 11
-201.5
 21
-7.5
  0
LINE
  8
0
 10
-201.5
 20
-7.5
 11
-201.5
 21
-97.5
  0
LINE
  8
0
 10
-201.5
 20
-97.5
 11
-207.5
 21
-97.5
  0
LINE
  8
0
 10
-207.5
 20
-97.5
 11
-207.5
 21
-112.5
  0
LINE
  8
0
 10
-207.5
 20
-112.5
 11
-201.5
 21
-112.5
  0
LINE
  8
0
 10
-201.5
 20
-112.5
 11
-201.5
 21
-165
  0
LINE
  8
0
 10
-201.5
 20
-165
 11
-171.5
 21
-165
  0
LINE
  8
0
 10
-171.5
 20
-165
 11
-171.5
 21
165
  0
LINE
  8
0
 10
-494.48
 20
190.52
 11
-490.52
 21
194.48
  0
LINE
  8
0
 10
-490.52
 20
194.48
 11
-482.035
 21
185.995
  0
LINE
  8
0
 10
-482.035
 20
185.995
 11
-485.995
 21
182.035
  0
LINE
  8
0
 10
-485.995
 20
182.035
 11
-494.48
 21
190.52
  0
LINE
  8
0
 10
-117.965
 20
185.995
 11
-109.48
 21
194.48
  0
LINE
  8
0
 10
-109.48
 20
194.48
 11
-105.52
 21
190.52
  0
LINE
  8
0
 10
-105.52
 20
190.52
 11
-114.005
 21
182.035
  0
LINE
  8
0
 10
-114.005
 20
182.035
 11
-117.965
 21
185.995
  0
LINE
  8
0
 10
-494.48
 20
-190.52
 11
-485.995
 21
-182.035
  0
LINE
  8
0
 10
-485.995
 20
-182.035
 11
-482.035
 21
-185.995
  0
LINE
  8
0
 10
-482.035
 20
-185.995
 11
-490.52
 21
-194.48
  0
LINE
  8
0
 10
-490.52
 20
-194.48
 11
-494.48
 21
-190.52
  0
LINE
  8
0
 10
-117.965
 20
-185.995
 11
-114.005
 21
-182.035
  0
LINE
  8
0
 10
-114.005
 20
-182.035
 11
-105.52
 21
-190.52
  0
LINE
  8
0
 10
-105.52
 20
-190.52
 11
-109.48
 21
-194.48
  0
LINE
  8
0
 10
-109.48
 20
-194.48
 11
-117.965
 21
-185.995
  0
LINE
  8
0
 10
-532.3
 20
-201.55
 11
-532.3
 21
-195.95
  0
LINE
  8
0
 10
-532.3
 20
-195.95
 11
-517.1
 21
-195.95
  0
LINE
  8
0
 10
-517.1
 20
-195.95
 11
-517.1
 21
-201.55
  0
LINE
  8
0
 10
-517.1
 20
-201.55
 11
-532.3
 21
-201.55
  0
LINE
  8
0
 10
-82.9
 20
-201.55
 11
-82.9
 21
-195.95
  0
LINE
  8
0
 10
-82.9
 20
-195.95
 11
-67.7
 21
-195.95
  0
LINE
  8
0
 10
-67.7
 20
-195.95
 11
-67.7
 21
-201.55
  0
LINE
  8
0
 10
-67.7
 20
-201.55
 11
-82.9
 21
-201.55
  0
LINE
  8
0
 10
-571.55
 20
-201.55
 11
-571.55
 21
-195.95
  0
LINE
  8
0
 10
-571.55
 20
-195.95
 11
-556.35
 21
-195.95
  0
LINE
  8
0
 10
-556.35
 20
-195.95
 11
-556.35
 21
-201.55
  0
LINE
  8
0
 10
-556.35
 20
-201.55
 11
-571.55
 21
-201.55
  0
LINE
  8
0
 10
-43.65
 20
-201.55
 11
-43.65
 21
-195.95
  0
LINE
  8
0
 10
-43.65
 20
-195.95
 11
-28.45
 21
-195.95
  0
LINE
  8
0
 10
-28.45
 20
-195.95
 11
-28.45
 21
-201.55
  0
LINE
  8
0
 10
-28.45
 20
-201.55
 11
-43.65
 21
-201.55
  0
LINE
  8
0
 10
-501.55
 20
-232.3
 11
-501.55
 21
-217.1
  0
LINE
  8
0
 10
-501.55
 20
-217.1
 11
-495.95
 21
-217.1
  0
LINE
  8
0
 10
-495.95
 20
-217.1
 11
-495.95
 21
-232.3
  0
LINE
  8
0
 10
-495.95
 20
-232.3
 11
-501.55
 21
-232.3
  0
LINE
  8
0
 10
-104.05
 20
-232.3
 11
-104.05
 21
-217.1
  0
LINE
  8
0
 10
-104.05
 20
-217.1
 11
-98.45
 21
-217.1
  0
LINE
  8
0
 10
-98.45
 20
-217.1
 11
-98.45
 21
-232.3
  0
LINE
  8
0
 10
-98.45
 20
-232.3
 11
-104.05
 21
-232.3
  0
LINE
  8
0
 10
-501.55
 20
-271.55
 11
-501.55
 21
-256.35
  0
LINE
  8
0
 10
-501.55
 20
-256.35
 11
-495.95
 21
-256.35
  0
LINE
  8
0
 10
-495.95
 20
-256.35
 11
-495.95
 21
-271.55
  0
LINE
  8
0
 10
-495.95
 20
-271.55
 11
-501.55
 21
-271.55
  0
LINE
  8
0
 10
-104.05
 20
-271.55
 11
-104.05
 21
-256.35
  0
LINE
  8
0
 10
-104.05
 20
-256.35
 11
-98.45
 21
-256.35
  0
LINE
  8
0
 10
-98.45
 20
-256.35
 11
-98.45
 21
-271.55
  0
LINE
  8
0
 10
-98.45
 20
-271.55
 11
-104.05
 21
-271.55
  0
LINE
  8
0
 10
296.7
 20
-940.5
 11
320.95
 21
-940.5
  0
LINE
  8
0
 10
320.95
 20
-940.5
 11
320.95
 21
-946.5
  0
LINE
  8
0
 10
320.95
 20
-946.5
 11
335.95
 21
-946.5
  0
LINE
  8
0
 10
335.95
 20
-946.5
 11
335.95
 21
-940.5
  0
LINE
  8
0
 10
335.95
 20
-940.5
 11
359.5
 21
-940.5
  0
LINE
  8
0
 10
359.5
 20
-940.5
 11
359.5
 21
-320
  0
LINE
  8
0
 10
359.5
 20
-320
 11
335.95
 21
-320
  0
LINE
  8
0
 10
335.95
 20
-320
 11
335.95
 21
-314
  0
LINE
  8
0
 10
335.95
 20
-314
 11
320.95
 21
-314
  0
LINE
  8
0
 10
320.95
 20
-314
 11
320.95
 21
-320
  0
LINE
  8
0
 10
320.95
 20
-320
 11
296.7
 21
-320
  0
LINE
  8
0
 10
296.7
 20
-320
 11
296.7
 21
-314
  0
LINE
  8
0
 10
296.7
 20
-314
 11
281.7
 21
-314
  0
LINE
  8
0
 10
281.7
 20
-314
 11
281.7
 21
-320
  0
LINE
  8
0
 10
281.7
 20
-320
 11
230.5
 21
-320
  0
LINE
  8
0
 10
230.5
 20
-320
 11
230.5
 21
-940.5
  0
LINE
  8
0
 10
230.5
 20
-940.5
 11
260.45
 21
-940.5
  0
LINE
  8
0
 10
260.45
 20
-940.5
 11
260.45
 21
-629.45
  0
LINE
  8
0
 10
260.45
 20
-629.45
 11
266.05
 21
-629.45
  0
LINE
  8
0
 10
266.05
 20
-629.45
 11
266.05
 21
-940.5
  0
LINE
  8
0
 10
266.05
 20
-940.5
 11
281.7
 21
-940.5
  0
LINE
  8
0
 10
281.7
 20
-940.5
 11
281.7
 21
-946.5
  0
LINE
  8
0
 10
281.7
 20
-946.5
 11
296.7
 21
-946.5
  0
LINE
  8
0
 10
296.7
 20
-946.5
 11
296.7
 21
-940.5
  0
LINE
  8
0
 10
162.7
 20
-940.5
 11
186.95
 21
-940.5
  0
LINE
  8
0
 10
186.95
 20
-940.5
 11
186.95
 21
-946.5
  0
LINE
  8
0
 10
186.95
 20
-946.5
 11
201.95
 21
-946.5
  0
LINE
  8
0
 10
201.95
 20
-946.5
 11
201.95
 21
-940.5
  0
LINE
  8
0
 10
201.95
 20
-940.5
 11
225.5
 21
-940.5
  0
LINE
  8
0
 10
225.5
 20
-940.5
 11
225.5
 21
-320
  0
LINE
  8
0
 10
225.5
 20
-320
 11
201.95
 21
-320
  0
LINE
  8
0
 10
201.95
 20
-320
 11
201.95
 21
-314
  0
LINE
  8
0
 10
201.95
 20
-314
 11
186.95
 21
-314
  0
LINE
  8
0
 10
186.95
 20
-314
 11
186.95
 21
-320
  0
LINE
  8
0
 10
186.95
 20
-320
 11
162.7
 21
-320
  0
LINE
  8
0
 10
162.7
 20
-320
 11
162.7
 21
-314
  0
LINE
  8
0
 10
162.7
 20
-314
 11
147.7
 21
-314
  0
LINE
  8
0
 10
147.7
 20
-314
 11
147.7
 21
-320
  0
LINE
  8
0
 10
147.7
 20
-320
 11
96.5
 21
-320
  0
LINE
  8
0
 10
96.5
 20
-320
 11
96.5
 21
-940.5
  0
LINE
  8
0
 10
96.5
 20
-940.5
 11
126.45
 21
-940.5
  0
LINE
  8
0
 10
126.45
 20
-940.5
 11
126.45
 21
-629.45
  0
LINE
  8
0
 10
126.45
 20
-629.45
 11
132.05
 21
-629.45
  0
LINE
  8
0
 10
132.05
 20
-629.45
 11
132.05
 21
-940.5
  0
LINE
  8
0
 10
132.05
 20
-940.5
 11
147.7
 21
-940.5
  0
LINE
  8
0
 10
147.7
 20
-940.5
 11
147.7
 21
-946.5
  0
LINE
  8
0
 10
147.7
 20
-946.5
 11
162.7
 21
-946.5
  0
LINE
  8
0
 10
162.7
 20
-946.5
 11
162.7
 21
-940.5
  0
LINE
  8
0
 10
430.7
 20
-940.5
 11
454.95
 21
-940.5
  0
LINE
  8
0
 10
454.95
 20
-940.5
 11
454.95
 21
-946.5
  0
LINE
  8
0
 10
454.95
 20
-946.5
 11
469.95
 21
-946.5
  0
LINE
  8
0
 10
469.95
 20
-946.5
 11
469.95
 21
-940.5
  0
LINE
  8
0
 10
469.95
 20
-940.5
 11
493.5
 21
-940.5
  0
LINE
  8
0
 10
493.5
 20
-940.5
 11
493.5
 21
-320
  0
LINE
  8
0
 10
493.5
 20
-320
 11
469.95
 21
-320
  0
LINE
  8
0
 10
469.95
 20
-320
 11
469.95
 21
-314
  0
LINE
  8
0
 10
469.95
 20
-314
 11
454.95
 21
-314
  0
LINE
  8
0
 10
454.95
 20
-314
 11
454.95
 21
-320
  0
LINE
  8
0
 10
454.95
 20
-320
 11
430.7
 21
-320
  0
LINE
  8
0
 10
430.7
 20
-320
 11
430.7
 21
-314
  0
LINE
  8
0
 10
430.7
 20
-314
 11
415.7
 21
-314
  0
LINE
  8
0
 10
415.7
 20
-314
 11
415.7
 21
-320
  0
LINE
  8
0
 10
415.7
 20
-320
 11
364.5
 21
-320
  0
LINE
  8
0
 10
364.5
 20
-320
 11
364.5
 21
-940.5
  0
LINE
  8
0
 10
364.5
 20
-940.5
 11
394.45
 21
-940.5
  0
LINE
  8
0
 10
394.45
 20
-940.5
 11
394.45
 21
-629.45
  0
LINE
  8
0
 10
394.45
 20
-629.45
 11
400.05
 21
-629.45
  0
LINE
  8
0
 10
400.05
 20
-629.45
 11
400.05
 21
-940.5
  0
LINE
  8
0
 10
400.05
 20
-940.5
 11
415.7
 21
-940.5
  0
LINE
  8
0
 10
415.7
 20
-940.5
 11
415.7
 21
-946.5
  0
LINE
  8
0
 10
415.7
 20
-946.5
 11
430.7
 21
-946.5
  0
LINE
  8
0
 10
430.7
 20
-946.5
 11
430.7
 21
-940.5
  0
LINE
  8
0
 10
-507.3
 20
-940.5
 11
-483.05
 21
-940.5
  0
LINE
  8
0
 10
-483.05
 20
-940.5
 11
-483.05
 21
-946.5
  0
LINE
  8
0
 10
-483.05
 20
-946.5
 11
-468.05
 21
-946.5
  0
LINE
  8
0
 10
-468.05
 20
-946.5
 11
-468.05
 21
-940.5
  0
LINE
  8
0
 10
-468.05
 20
-940.5
 11
-444.5
 21
-940.5
  0
LINE
  8
0
 10
-444.5
 20
-940.5
 11
-444.5
 21
-320
  0
LINE
  8
0
 10
-444.5
 20
-320
 11
-468.05
 21
-320
  0
LINE
  8
0
 10
-468.05
 20
-320
 11
-468.05
 21
-314
  0
LINE
  8
0
 10
-468.05
 20
-314
 11
-483.05
 21
-314
  0
LINE
  8
0
 10
-483.05
 20
-314
 11
-483.05
 21
-320
  0
LINE
  8
0
 10
-483.05
 20
-320
 11
-507.3
 21
-320
  0
LINE
  8
0
 10
-507.3
 20
-320
 11
-507.3
 21
-314
  0
LINE
  8
0
 10
-507.3
 20
-314
 11
-522.3
 21
-314
  0
LINE
  8
0
 10
-522.3
 20
-314
 11
-522.3
 21
-320
  0
LINE
  8
0
 10
-522.3
 20
-320
 11
-573.5
 21
-320
  0
LINE
  8
0
 10
-573.5
 20
-320
 11
-573.5
 21
-940.5
  0
LINE
  8
0
 10
-573.5
 20
-940.5
 11
-543.55
 21
-940.5
  0
LINE
  8
0
 10
-543.55
 20
-940.5
 11
-543.55
 21
-629.45
  0
LINE
  8
0
 10
-543.55
 20
-629.45
 11
-537.95
 21
-629.45
  0
LINE
  8
0
 10
-537.95
 20
-629.45
 11
-537.95
 21
-940.5
  0
LINE
  8
0
 10
-537.95
 20
-940.5
 11
-522.3
 21
-940.5
  0
LINE
  8
0
 10
-522.3
 20
-940.5
 11
-522.3
 21
-946.5
  0
LINE
  8
0
 10
-522.3
 20
-946.5
 11
-507.3
 21
-946.5
  0
LINE
  8
0
 10
-507.3
 20
-946.5
 11
-507.3
 21
-940.5
  0
LINE
  8
0
 10
-105.3
 20
-940.5
 11
-81.05
 21
-940.5
  0
LINE
  8
0
 10
-81.05
 20
-940.5
 11
-81.05
 21
-946.5
  0
LINE
  8
0
 10
-81.05
 20
-946.5
 11
-66.05
 21
-946.5
  0
LINE
  8
0
 10
-66.05
 20
-946.5
 11
-66.05
 21
-940.5
  0
LINE
  8
0
 10
-66.05
 20
-940.5
 11
-42.5
 21
-940.5
  0
LINE
  8
0
 10
-42.5
 20
-940.5
 11
-42.5
 21
-320
  0
LINE
  8
0
 10
-42.5
 20
-320
 11
-66.05
 21
-320
  0
LINE
  8
0
 10
-66.05
 20
-320
 11
-66.05
 21
-314
  0
LINE
  8
0
 10
-66.05
 20
-314
 11
-81.05
 21
-314
  0
LINE
  8
0
 10
-81.05
 20
-314
 11
-81.05
 21
-320
  0
LINE
  8
0
 10
-81.05
 20
-320
 11
-105.3
 21
-320
  0
LINE
  8
0
 10
-105.3
 20
-320
 11
-105.3
 21
-314
  0
LINE
  8
0
 10
-105.3
 20
-314
 11
-120.3
 21
-314
  0
LINE
  8
0
 10
-120.3
 20
-314
 11
-120.3
 21
-320
  0
LINE
  8
0
 10
-120.3
 20
-320
 11
-171.5
 21
-320
  0
LINE
  8
0
 10
-171.5
 20
-320
 11
-171.5
 21
-940.5
  0
LINE
  8
0
 10
-171.5
 20
-940.5
 11
-141.55
 21
-940.5
  0
LINE
  8
0
 10
-141.55
 20
-940.5
 11
-141.55
 21
-629.45
  0
LINE
  8
0
 10
-141.55
 20
-629.45
 11
-135.95
 21
-629.45
  0
LINE
  8
0
 10
-135.95
 20
-629.45
 11
-135.95
 21
-940.5
  0
LINE
  8
0
 10
-135.95
 20
-940.5
 11
-120.3
 21
-940.5
  0
LINE
  8
0
 10
-120.3
 20
-940.5
 11
-120.3
 21
-946.5
  0
LINE
  8
0
 10
-120.3
 20
-946.5
 11
-105.3
 21
-946.5
  0
LINE
  8
0
 10
-105.3
 20
-946.5
 11
-105.3
 21
-940.5
  0
LINE
  8
0
 10
-373.3
 20
-940.5
 11
-349.05
 21
-940.5
  0
LINE
  8
0
 10
-349.05
 20
-940.5
 11
-349.05
 21
-946.5
  0
LINE
  8
0
 10
-349.05
 20
-946.5
 11
-334.05
 21
-946.5
  0
LINE
  8
0
 10
-334.05
 20
-946.5
 11
-334.05
 21
-940.5
  0
LINE
  8
0
 10
-334.05
 20
-940.5
 11
-310.5
 21
-940.5
  0
LINE
  8
0
 10
-310.5
 20
-940.5
 11
-310.5
 21
-320
  0
LINE
  8
0
 10
-310.5
 20
-320
 11
-334.05
 21
-320
  0
LINE
  8
0
 10
-334.05
 20
-320
 11
-334.05
 21
-314
  0
LINE
  8
0
 10
-334.05
 20
-314
 11
-349.05
 21
-314
  0
LINE
  8
0
 10
-349.05
 20
-314
 11
-349.05
 21
-320
  0
LINE
  8
0
 10
-349.05
 20
-320
 11
-373.3
 21
-320
  0
LINE
  8
0
 10
-373.3
 20
-320
 11
-373.3
 21
-314
  0
LINE
  8
0
 10
-373.3
 20
-314
 11
-388.3
 21
-314
  0
LINE
  8
0
 10
-388.3
 20
-314
 11
-388.3
 21
-320
  0
LINE
  8
0
 10
-388.3
 20
-320
 11
-439.5
 21
-320
  0
LINE
  8
0
 10
-439.5
 20
-320
 11
-439.5
 21
-940.5
  0
LINE
  8
0
 10
-439.5
 20
-940.5
 11
-409.55
 21
-940.5
  0
LINE
  8
0
 10
-409.55
 20
-940.5
 11
-409.55
 21
-629.45
  0
LINE
  8
0
 10
-409.55
 20
-629.45
 11
-403.95
 21
-629.45
  0
LINE
  8
0
 10
-403.95
 20
-629.45
 11
-403.95
 21
-940.5
  0
LINE
  8
0
 10
-403.95
 20
-940.5
 11
-388.3
 21
-940.5
  0
LINE
  8
0
 10
-388.3
 20
-940.5
 11
-388.3
 21
-946.5
  0
LINE
  8
0
 10
-388.3
 20
-946.5
 11
-373.3
 21
-946.5
  0
LINE
  8
0
 10
-373.3
 20
-946.5
 11
-373.3
 21
-940.5
  0
LINE
  8
0
 10
-239.3
 20
-940.5
 11
-215.05
 21
-940.5
  0
LINE
  8
0
 10
-215.05
 20
-940.5
 11
-215.05
 21
-946.5
  0
LINE
  8
0
 10
-215.05
 20
-946.5
 11
-200.05
 21
-946.5
  0
LINE
  8
0
 10
-200.05
 20
-946.5
 11
-200.05
 21
-940.5
  0
LINE
  8
0
 10
-200.05
 20
-940.5
 11
-176.5
 21
-940.5
  0
LINE
  8
0
 10
-176.5
 20
-940.5
 11
-176.5
 21
-320
  0
LINE
  8
0
 10
-176.5
 20
-320
 11
-200.05
 21
-320
  0
LINE
  8
0
 10
-200.05
 20
-320
 11
-200.05
 21
-314
  0
LINE
  8
0
 10
-200.05
 20
-314
 11
-215.05
 21
-314
  0
LINE
  8
0
 10
-215.05
 20
-314
 11
-215.05
 21
-320
  0
LINE
  8
0
 10
-215.05
 20
-320
 11
-239.3
 21
-320
  0
LINE
  8
0
 10
-239.3
 20
-320
 11
-239.3
 21
-314
  0
LINE
  8
0
 10
-239.3
 20
-314
 11
-254.3
 21
-314
  0
LINE
  8
0
 10
-254.3
 20
-314
 11
-254.3
 21
-320
  0
LINE
  8
0
 10
-254.3
 20
-320
 11
-305.5
 21
-320
  0
LINE
  8
0
 10
-305.5
 20
-320
 11
-305.5
 21
-940.5
  0
LINE
  8
0
 10
-305.5
 20
-940.5
 11
-275.55
 21
-940.5
  0
LINE
  8
0
 10
-275.55
 20
-940.5
 11
-275.55
 21
-629.45
  0
LINE
  8
0
 10
-275.55
 20
-629.45
 11
-269.95
 21
-629.45
  0
LINE
  8
0
 10
-269.95
 20
-629.45
 11
-269.95
 21
-940.5
  0
LINE
  8
0
 10
-269.95
 20
-940.5
 11
-254.3
 21
-940.5
  0
LINE
  8
0
 10
-254.3
 20
-940.5
 11
-254.3
 21
-946.5
  0
LINE
  8
0
 10
-254.3
 20
-946.5
 11
-239.3
 21
-946.5
  0
LINE
  8
0
 10
-239.3
 20
-946.5
 11
-239.3
 21
-940.5
  0
LINE
  8
0
 10
28.7
 20
-940.5
 11
52.95
 21
-940.5
  0
LINE
  8
0
 10
52.95
 20
-940.5
 11
52.95
 21
-946.5
  0
LINE
  8
0
 10
52.95
 20
-946.5
 11
67.95
 21
-946.5
  0
LINE
  8
0
 10
67.95
 20
-946.5
 11
67.95
 21
-940.5
  0
LINE
  8
0
 10
67.95
 20
-940.5
 11
91.5
 21
-940.5
  0
LINE
  8
0
 10
91.5
 20
-940.5
 11
91.5
 21
-320
  0
LINE
  8
0
 10
91.5
 20
-320
 11
67.95
 21
-320
  0
LINE
  8
0
 10
67.95
 20
-320
 11
67.95
 21
-314
  0
LINE
  8
0
 10
67.95
 20
-314
 11
52.95
 21
-314
  0
LINE
  8
0
 10
52.95
 20
-314
 11
52.95
 21
-320
  0
LINE
  8
0
 10
52.95
 20
-320
 11
28.7
 21
-320
  0
LINE
  8
0
 10
28.7
 20
-320
 11
28.7
 21
-314
  0
LINE
  8
0
 10
28.7
 20
-314
 11
13.7
 21
-314
  0
LINE
  8
0
 10
13.7
 20
-314
 11
13.7
 21
-320
  0
LINE
  8
0
 10
13.7
 20
-320
 11
-37.5
 21
-320
  0
LINE
  8
0
 10
-37.5
 20
-320
 11
-37.5
 21
-940.5
  0
LINE
  8
0
 10
-37.5
 20
-940.5
 11
-7.54999
 21
-940.5
  0
LINE
  8
0
 10
-7.54999
 20
-940.5
 11
-7.54999
 21
-629.45
  0
LINE
  8
0
 10
-7.54999
 20
-629.45
 11
-1.95001
 21
-629.45
  0
LINE
  8
0
 10
-1.95001
 20
-629.45
 11
-1.95001
 21
-940.5
  0
LINE
  8
0
 10
-1.95001
 20
-940.5
 11
13.7
 21
-940.5
  0
LINE
  8
0
 10
13.7
 20
-940.5
 11
13.7
 21
-946.5
  0
LINE
  8
0
 10
13.7
 20
-946.5
 11
28.7
 21
-946.5
  0
LINE
  8
0
 10
28.7
 20
-946.5
 11
28.7
 21
-940.5
  0
ENDSEC
  0
SECTION
  2
OBJECTS
  0
DICTIONARY
  0
ENDSEC
  0
EOF
