  0
SECTION
  2
BLOCKS
  0
ENDSEC
  0
SECTION
  2
ENTITIES
  0
LINE
  8
0
 10
927.65
 20
338.35
 11
921.399
 21
338.35
  0
LINE
  8
0
 10
921.399
 20
338.35
 11
864.63
 21
525.411
  0
LINE
  8
0
 10
864.63
 20
525.411
 11
888.4
 21
526.5
  0
LINE
  8
0
 10
888.4
 20
526.5
 11
888.4
 21
533.6
  0
LINE
  8
0
 10
888.4
 20
533.6
 11
893.1
 21
533.6
  0
LINE
  8
0
 10
893.1
 20
533.6
 11
893.1
 21
541.6
  0
LINE
  8
0
 10
893.1
 20
541.6
 11
888.4
 21
541.6
  0
LINE
  8
0
 10
888.4
 20
541.6
 11
888.4
 21
541.557
  0
LINE
  8
0
 10
888.4
 20
541.557
 11
848.4
 21
541.557
  0
LINE
  8
0
 10
848.4
 20
541.557
 11
848.4
 21
597.65
  0
LINE
  8
0
 10
848.4
 20
597.65
 11
610.7
 21
597.65
  0
LINE
  8
0
 10
610.7
 20
597.65
 11
610.7
 21
602.35
  0
LINE
  8
0
 10
610.7
 20
602.35
 11
848.4
 21
602.35
  0
LINE
  8
0
 10
848.4
 20
602.35
 11
848.4
 21
658.443
  0
LINE
  8
0
 10
848.4
 20
658.443
 11
888.4
 21
658.443
  0
LINE
  8
0
 10
888.4
 20
658.443
 11
888.4
 21
658.4
  0
LINE
  8
0
 10
888.4
 20
658.4
 11
893.1
 21
658.4
  0
LINE
  8
0
 10
893.1
 20
658.4
 11
893.1
 21
666.4
  0
LINE
  8
0
 10
893.1
 20
666.4
 11
888.4
 21
666.4
  0
LINE
  8
0
 10
888.4
 20
666.4
 11
888.4
 21
673.5
  0
LINE
  8
0
 10
888.4
 20
673.5
 11
864.63
 21
674.589
  0
LINE
  8
0
 10
864.63
 20
674.589
 11
921.399
 21
861.65
  0
LINE
  8
0
 10
921.399
 20
861.65
 11
927.65
 21
861.65
  0
LINE
  8
0
 10
927.65
 20
861.65
 11
927.65
 21
873.65
  0
LINE
  8
0
 10
927.65
 20
873.65
 11
916.95
 21
873.65
  0
LINE
  8
0
 10
916.95
 20
873.65
 11
916.95
 21
873.647
  0
LINE
  8
0
 10
916.95
 20
873.647
 11
916.741
 21
873.647
  0
LINE
  8
0
 10
916.741
 20
873.647
 11
916.323
 21
873.617
  0
LINE
  8
0
 10
916.323
 20
873.617
 11
915.908
 21
873.559
  0
LINE
  8
0
 10
915.908
 20
873.559
 11
915.498
 21
873.472
  0
LINE
  8
0
 10
915.498
 20
873.472
 11
915.096
 21
873.357
  0
LINE
  8
0
 10
915.096
 20
873.357
 11
914.702
 21
873.213
  0
LINE
  8
0
 10
914.702
 20
873.213
 11
914.32
 21
873.043
  0
LINE
  8
0
 10
914.32
 20
873.043
 11
913.95
 21
872.846
  0
LINE
  8
0
 10
913.95
 20
872.846
 11
913.595
 21
872.625
  0
LINE
  8
0
 10
913.595
 20
872.625
 11
913.256
 21
872.378
  0
LINE
  8
0
 10
913.256
 20
872.378
 11
912.935
 21
872.109
  0
LINE
  8
0
 10
912.935
 20
872.109
 11
912.634
 21
871.818
  0
LINE
  8
0
 10
912.634
 20
871.818
 11
912.354
 21
871.507
  0
LINE
  8
0
 10
912.354
 20
871.507
 11
912.096
 21
871.177
  0
LINE
  8
0
 10
912.096
 20
871.177
 11
911.862
 21
870.83
  0
LINE
  8
0
 10
911.862
 20
870.83
 11
911.652
 21
870.467
  0
LINE
  8
0
 10
911.652
 20
870.467
 11
804.55
 21
677.342
  0
LINE
  8
0
 10
804.55
 20
677.342
 11
310
 21
700
  0
LINE
  8
0
 10
310
 20
700
 11
300
 21
700
  0
LINE
  8
0
 10
300
 20
700
 11
300
 21
696
  0
LINE
  8
0
 10
300
 20
696
 11
295.35
 21
696
  0
LINE
  8
0
 10
295.35
 20
696
 11
295.35
 21
684
  0
LINE
  8
0
 10
295.35
 20
684
 11
300
 21
684
  0
LINE
  8
0
 10
300
 20
684
 11
300
 21
646
  0
LINE
  8
0
 10
300
 20
646
 11
295.35
 21
646
  0
LINE
  8
0
 10
295.35
 20
646
 11
295.35
 21
634
  0
LINE
  8
0
 10
295.35
 20
634
 11
300
 21
634
  0
LINE
  8
0
 10
300
 20
634
 11
300
 21
566
  0
LINE
  8
0
 10
300
 20
566
 11
295.35
 21
566
  0
LINE
  8
0
 10
295.35
 20
566
 11
295.35
 21
554
  0
LINE
  8
0
 10
295.35
 20
554
 11
300
 21
554
  0
LINE
  8
0
 10
300
 20
554
 11
300
 21
516
  0
LINE
  8
0
 10
300
 20
516
 11
295.35
 21
516
  0
LINE
  8
0
 10
295.35
 20
516
 11
295.35
 21
504
  0
LINE
  8
0
 10
295.35
 20
504
 11
300
 21
504
  0
LINE
  8
0
 10
300
 20
504
 11
300
 21
500
  0
LINE
  8
0
 10
300
 20
500
 11
310
 21
500
  0
LINE
  8
0
 10
310
 20
500
 11
804.55
 21
522.658
  0
LINE
  8
0
 10
804.55
 20
522.658
 11
911.652
 21
329.533
  0
LINE
  8
0
 10
911.652
 20
329.533
 11
911.862
 21
329.17
  0
LINE
  8
0
 10
911.862
 20
329.17
 11
912.096
 21
328.823
  0
LINE
  8
0
 10
912.096
 20
328.823
 11
912.354
 21
328.493
  0
LINE
  8
0
 10
912.354
 20
328.493
 11
912.634
 21
328.182
  0
LINE
  8
0
 10
912.634
 20
328.182
 11
912.935
 21
327.891
  0
LINE
  8
0
 10
912.935
 20
327.891
 11
913.256
 21
327.622
  0
LINE
  8
0
 10
913.256
 20
327.622
 11
913.595
 21
327.375
  0
LINE
  8
0
 10
913.595
 20
327.375
 11
913.95
 21
327.154
  0
LINE
  8
0
 10
913.95
 20
327.154
 11
914.32
 21
326.957
  0
LINE
  8
0
 10
914.32
 20
326.957
 11
914.702
 21
326.787
  0
LINE
  8
0
 10
914.702
 20
326.787
 11
915.096
 21
326.643
  0
LINE
  8
0
 10
915.096
 20
326.643
 11
915.498
 21
326.528
  0
LINE
  8
0
 10
915.498
 20
326.528
 11
915.908
 21
326.441
  0
LINE
  8
0
 10
915.908
 20
326.441
 11
916.323
 21
326.383
  0
LINE
  8
0
 10
916.323
 20
326.383
 11
916.741
 21
326.353
  0
LINE
  8
0
 10
916.741
 20
326.353
 11
916.95
 21
326.353
  0
LINE
  8
0
 10
916.95
 20
326.353
 11
916.95
 21
326.35
  0
LINE
  8
0
 10
916.95
 20
326.35
 11
927.65
 21
326.35
  0
LINE
  8
0
 10
927.65
 20
326.35
 11
927.65
 21
338.35
  0
LINE
  8
0
 10
-416.95
 20
326.353
 11
-416.741
 21
326.353
  0
LINE
  8
0
 10
-416.741
 20
326.353
 11
-416.323
 21
326.383
  0
LINE
  8
0
 10
-416.323
 20
326.383
 11
-415.908
 21
326.441
  0
LINE
  8
0
 10
-415.908
 20
326.441
 11
-415.498
 21
326.528
  0
LINE
  8
0
 10
-415.498
 20
326.528
 11
-415.096
 21
326.643
  0
LINE
  8
0
 10
-415.096
 20
326.643
 11
-414.702
 21
326.787
  0
LINE
  8
0
 10
-414.702
 20
326.787
 11
-414.32
 21
326.957
  0
LINE
  8
0
 10
-414.32
 20
326.957
 11
-413.95
 21
327.154
  0
LINE
  8
0
 10
-413.95
 20
327.154
 11
-413.595
 21
327.375
  0
LINE
  8
0
 10
-413.595
 20
327.375
 11
-413.256
 21
327.622
  0
LINE
  8
0
 10
-413.256
 20
327.622
 11
-412.935
 21
327.891
  0
LINE
  8
0
 10
-412.935
 20
327.891
 11
-412.634
 21
328.182
  0
LINE
  8
0
 10
-412.634
 20
328.182
 11
-412.354
 21
328.493
  0
LINE
  8
0
 10
-412.354
 20
328.493
 11
-412.096
 21
328.823
  0
LINE
  8
0
 10
-412.096
 20
328.823
 11
-411.862
 21
329.17
  0
LINE
  8
0
 10
-411.862
 20
329.17
 11
-411.652
 21
329.533
  0
LINE
  8
0
 10
-411.652
 20
329.533
 11
-304.55
 21
522.658
  0
LINE
  8
0
 10
-304.55
 20
522.658
 11
190
 21
500
  0
LINE
  8
0
 10
190
 20
500
 11
200
 21
500
  0
LINE
  8
0
 10
200
 20
500
 11
200
 21
504
  0
LINE
  8
0
 10
200
 20
504
 11
204.65
 21
504
  0
LINE
  8
0
 10
204.65
 20
504
 11
204.65
 21
516
  0
LINE
  8
0
 10
204.65
 20
516
 11
200
 21
516
  0
LINE
  8
0
 10
200
 20
516
 11
200
 21
554
  0
LINE
  8
0
 10
200
 20
554
 11
204.65
 21
554
  0
LINE
  8
0
 10
204.65
 20
554
 11
204.65
 21
566
  0
LINE
  8
0
 10
204.65
 20
566
 11
200
 21
566
  0
LINE
  8
0
 10
200
 20
566
 11
200
 21
597.65
  0
LINE
  8
0
 10
200
 20
597.65
 11
-112.3
 21
597.65
  0
LINE
  8
0
 10
-112.3
 20
597.65
 11
-112.3
 21
602.35
  0
LINE
  8
0
 10
-112.3
 20
602.35
 11
200
 21
602.35
  0
LINE
  8
0
 10
200
 20
602.35
 11
200
 21
634
  0
LINE
  8
0
 10
200
 20
634
 11
204.65
 21
634
  0
LINE
  8
0
 10
204.65
 20
634
 11
204.65
 21
646
  0
LINE
  8
0
 10
204.65
 20
646
 11
200
 21
646
  0
LINE
  8
0
 10
200
 20
646
 11
200
 21
684
  0
LINE
  8
0
 10
200
 20
684
 11
204.65
 21
684
  0
LINE
  8
0
 10
204.65
 20
684
 11
204.65
 21
696
  0
LINE
  8
0
 10
204.65
 20
696
 11
200
 21
696
  0
LINE
  8
0
 10
200
 20
696
 11
200
 21
700
  0
LINE
  8
0
 10
200
 20
700
 11
190
 21
700
  0
LINE
  8
0
 10
190
 20
700
 11
-304.55
 21
677.342
  0
LINE
  8
0
 10
-304.55
 20
677.342
 11
-411.652
 21
870.467
  0
LINE
  8
0
 10
-411.652
 20
870.467
 11
-411.862
 21
870.83
  0
LINE
  8
0
 10
-411.862
 20
870.83
 11
-412.096
 21
871.177
  0
LINE
  8
0
 10
-412.096
 20
871.177
 11
-412.354
 21
871.507
  0
LINE
  8
0
 10
-412.354
 20
871.507
 11
-412.634
 21
871.818
  0
LINE
  8
0
 10
-412.634
 20
871.818
 11
-412.935
 21
872.109
  0
LINE
  8
0
 10
-412.935
 20
872.109
 11
-413.256
 21
872.378
  0
LINE
  8
0
 10
-413.256
 20
872.378
 11
-413.595
 21
872.625
  0
LINE
  8
0
 10
-413.595
 20
872.625
 11
-413.95
 21
872.846
  0
LINE
  8
0
 10
-413.95
 20
872.846
 11
-414.32
 21
873.043
  0
LINE
  8
0
 10
-414.32
 20
873.043
 11
-414.702
 21
873.213
  0
LINE
  8
0
 10
-414.702
 20
873.213
 11
-415.096
 21
873.357
  0
LINE
  8
0
 10
-415.096
 20
873.357
 11
-415.498
 21
873.472
  0
LINE
  8
0
 10
-415.498
 20
873.472
 11
-415.908
 21
873.559
  0
LINE
  8
0
 10
-415.908
 20
873.559
 11
-416.323
 21
873.617
  0
LINE
  8
0
 10
-416.323
 20
873.617
 11
-416.741
 21
873.647
  0
LINE
  8
0
 10
-416.741
 20
873.647
 11
-416.95
 21
873.647
  0
LINE
  8
0
 10
-416.95
 20
873.647
 11
-416.95
 21
873.65
  0
LINE
  8
0
 10
-416.95
 20
873.65
 11
-427.65
 21
873.65
  0
LINE
  8
0
 10
-427.65
 20
873.65
 11
-427.65
 21
861.65
  0
LINE
  8
0
 10
-427.65
 20
861.65
 11
-421.399
 21
861.65
  0
LINE
  8
0
 10
-421.399
 20
861.65
 11
-364.63
 21
674.589
  0
LINE
  8
0
 10
-364.63
 20
674.589
 11
-388.4
 21
673.5
  0
LINE
  8
0
 10
-388.4
 20
673.5
 11
-388.4
 21
666.4
  0
LINE
  8
0
 10
-388.4
 20
666.4
 11
-393.1
 21
666.4
  0
LINE
  8
0
 10
-393.1
 20
666.4
 11
-393.1
 21
658.4
  0
LINE
  8
0
 10
-393.1
 20
658.4
 11
-388.4
 21
658.4
  0
LINE
  8
0
 10
-388.4
 20
658.4
 11
-388.4
 21
658.443
  0
LINE
  8
0
 10
-388.4
 20
658.443
 11
-348.4
 21
658.443
  0
LINE
  8
0
 10
-348.4
 20
658.443
 11
-348.4
 21
541.557
  0
LINE
  8
0
 10
-348.4
 20
541.557
 11
-388.4
 21
541.557
  0
LINE
  8
0
 10
-388.4
 20
541.557
 11
-388.4
 21
541.6
  0
LINE
  8
0
 10
-388.4
 20
541.6
 11
-393.1
 21
541.6
  0
LINE
  8
0
 10
-393.1
 20
541.6
 11
-393.1
 21
533.6
  0
LINE
  8
0
 10
-393.1
 20
533.6
 11
-388.4
 21
533.6
  0
LINE
  8
0
 10
-388.4
 20
533.6
 11
-388.4
 21
526.5
  0
LINE
  8
0
 10
-388.4
 20
526.5
 11
-364.63
 21
525.411
  0
LINE
  8
0
 10
-364.63
 20
525.411
 11
-421.399
 21
338.35
  0
LINE
  8
0
 10
-421.399
 20
338.35
 11
-427.65
 21
338.35
  0
LINE
  8
0
 10
-427.65
 20
338.35
 11
-427.65
 21
326.35
  0
LINE
  8
0
 10
-427.65
 20
326.35
 11
-416.95
 21
326.35
  0
LINE
  8
0
 10
-416.95
 20
326.35
 11
-416.95
 21
326.353
  0
LINE
  8
0
 10
-437.873
 20
526.679
 11
-432.771
 21
527.215
  0
LINE
  8
0
 10
-432.771
 20
527.215
 11
-427.719
 21
528.106
  0
LINE
  8
0
 10
-427.719
 20
528.106
 11
-422.741
 21
529.347
  0
LINE
  8
0
 10
-422.741
 20
529.347
 11
-417.862
 21
530.933
  0
LINE
  8
0
 10
-417.862
 20
530.933
 11
-413.105
 21
532.854
  0
LINE
  8
0
 10
-413.105
 20
532.854
 11
-408.494
 21
535.103
  0
LINE
  8
0
 10
-408.494
 20
535.103
 11
-404.051
 21
537.668
  0
LINE
  8
0
 10
-404.051
 20
537.668
 11
-399.798
 21
540.537
  0
LINE
  8
0
 10
-399.798
 20
540.537
 11
-395.755
 21
543.696
  0
LINE
  8
0
 10
-395.755
 20
543.696
 11
-391.943
 21
547.129
  0
LINE
  8
0
 10
-391.943
 20
547.129
 11
-388.379
 21
550.819
  0
LINE
  8
0
 10
-388.379
 20
550.819
 11
-385.081
 21
554.749
  0
LINE
  8
0
 10
-385.081
 20
554.749
 11
-382.066
 21
558.899
  0
LINE
  8
0
 10
-382.066
 20
558.899
 11
-379.347
 21
563.25
  0
LINE
  8
0
 10
-379.347
 20
563.25
 11
-376.939
 21
567.78
  0
LINE
  8
0
 10
-376.939
 20
567.78
 11
-374.852
 21
572.466
  0
LINE
  8
0
 10
-374.852
 20
572.466
 11
-373.097
 21
577.287
  0
LINE
  8
0
 10
-373.097
 20
577.287
 11
-371.683
 21
582.219
  0
LINE
  8
0
 10
-371.683
 20
582.219
 11
-370.617
 21
587.237
  0
LINE
  8
0
 10
-370.617
 20
587.237
 11
-369.903
 21
592.317
  0
LINE
  8
0
 10
-369.903
 20
592.317
 11
-369.545
 21
597.435
  0
LINE
  8
0
 10
-369.545
 20
597.435
 11
-369.545
 21
602.565
  0
LINE
  8
0
 10
-369.545
 20
602.565
 11
-369.903
 21
607.683
  0
LINE
  8
0
 10
-369.903
 20
607.683
 11
-370.617
 21
612.763
  0
LINE
  8
0
 10
-370.617
 20
612.763
 11
-371.683
 21
617.781
  0
LINE
  8
0
 10
-371.683
 20
617.781
 11
-373.097
 21
622.713
  0
LINE
  8
0
 10
-373.097
 20
622.713
 11
-374.852
 21
627.534
  0
LINE
  8
0
 10
-374.852
 20
627.534
 11
-376.939
 21
632.22
  0
LINE
  8
0
 10
-376.939
 20
632.22
 11
-379.347
 21
636.75
  0
LINE
  8
0
 10
-379.347
 20
636.75
 11
-382.066
 21
641.101
  0
LINE
  8
0
 10
-382.066
 20
641.101
 11
-385.081
 21
645.251
  0
LINE
  8
0
 10
-385.081
 20
645.251
 11
-388.379
 21
649.181
  0
LINE
  8
0
 10
-388.379
 20
649.181
 11
-391.943
 21
652.871
  0
LINE
  8
0
 10
-391.943
 20
652.871
 11
-395.755
 21
656.304
  0
LINE
  8
0
 10
-395.755
 20
656.304
 11
-399.798
 21
659.463
  0
LINE
  8
0
 10
-399.798
 20
659.463
 11
-404.051
 21
662.332
  0
LINE
  8
0
 10
-404.051
 20
662.332
 11
-408.494
 21
664.897
  0
LINE
  8
0
 10
-408.494
 20
664.897
 11
-413.105
 21
667.146
  0
LINE
  8
0
 10
-413.105
 20
667.146
 11
-417.862
 21
669.067
  0
LINE
  8
0
 10
-417.862
 20
669.067
 11
-422.741
 21
670.653
  0
LINE
  8
0
 10
-422.741
 20
670.653
 11
-427.719
 21
671.894
  0
LINE
  8
0
 10
-427.719
 20
671.894
 11
-432.771
 21
672.785
  0
LINE
  8
0
 10
-432.771
 20
672.785
 11
-437.873
 21
673.321
  0
LINE
  8
0
 10
-437.873
 20
673.321
 11
-443
 21
673.5
  0
LINE
  8
0
 10
-443
 20
673.5
 11
-448.127
 21
673.321
  0
LINE
  8
0
 10
-448.127
 20
673.321
 11
-453.229
 21
672.785
  0
LINE
  8
0
 10
-453.229
 20
672.785
 11
-458.281
 21
671.894
  0
LINE
  8
0
 10
-458.281
 20
671.894
 11
-463.259
 21
670.653
  0
LINE
  8
0
 10
-463.259
 20
670.653
 11
-468.138
 21
669.067
  0
LINE
  8
0
 10
-468.138
 20
669.067
 11
-472.895
 21
667.146
  0
LINE
  8
0
 10
-472.895
 20
667.146
 11
-477.506
 21
664.897
  0
LINE
  8
0
 10
-477.506
 20
664.897
 11
-481.949
 21
662.332
  0
LINE
  8
0
 10
-481.949
 20
662.332
 11
-486.202
 21
659.463
  0
LINE
  8
0
 10
-486.202
 20
659.463
 11
-490.245
 21
656.304
  0
LINE
  8
0
 10
-490.245
 20
656.304
 11
-494.057
 21
652.871
  0
LINE
  8
0
 10
-494.057
 20
652.871
 11
-497.621
 21
649.181
  0
LINE
  8
0
 10
-497.621
 20
649.181
 11
-500.919
 21
645.251
  0
LINE
  8
0
 10
-500.919
 20
645.251
 11
-503.934
 21
641.101
  0
LINE
  8
0
 10
-503.934
 20
641.101
 11
-506.653
 21
636.75
  0
LINE
  8
0
 10
-506.653
 20
636.75
 11
-509.061
 21
632.22
  0
LINE
  8
0
 10
-509.061
 20
632.22
 11
-511.148
 21
627.534
  0
LINE
  8
0
 10
-511.148
 20
627.534
 11
-512.903
 21
622.713
  0
LINE
  8
0
 10
-512.903
 20
622.713
 11
-514.317
 21
617.781
  0
LINE
  8
0
 10
-514.317
 20
617.781
 11
-515.383
 21
612.763
  0
LINE
  8
0
 10
-515.383
 20
612.763
 11
-516.097
 21
607.683
  0
LINE
  8
0
 10
-516.097
 20
607.683
 11
-516.455
 21
602.565
  0
LINE
  8
0
 10
-516.455
 20
602.565
 11
-516.455
 21
597.435
  0
LINE
  8
0
 10
-516.455
 20
597.435
 11
-516.097
 21
592.317
  0
LINE
  8
0
 10
-516.097
 20
592.317
 11
-515.383
 21
587.237
  0
LINE
  8
0
 10
-515.383
 20
587.237
 11
-514.317
 21
582.219
  0
LINE
  8
0
 10
-514.317
 20
582.219
 11
-512.903
 21
577.287
  0
LINE
  8
0
 10
-512.903
 20
577.287
 11
-511.148
 21
572.466
  0
LINE
  8
0
 10
-511.148
 20
572.466
 11
-509.061
 21
567.78
  0
LINE
  8
0
 10
-509.061
 20
567.78
 11
-506.653
 21
563.25
  0
LINE
  8
0
 10
-506.653
 20
563.25
 11
-503.934
 21
558.899
  0
LINE
  8
0
 10
-503.934
 20
558.899
 11
-500.919
 21
554.749
  0
LINE
  8
0
 10
-500.919
 20
554.749
 11
-497.621
 21
550.819
  0
LINE
  8
0
 10
-497.621
 20
550.819
 11
-494.057
 21
547.129
  0
LINE
  8
0
 10
-494.057
 20
547.129
 11
-490.245
 21
543.696
  0
LINE
  8
0
 10
-490.245
 20
543.696
 11
-486.202
 21
540.537
  0
LINE
  8
0
 10
-486.202
 20
540.537
 11
-481.949
 21
537.668
  0
LINE
  8
0
 10
-481.949
 20
537.668
 11
-477.506
 21
535.103
  0
LINE
  8
0
 10
-477.506
 20
535.103
 11
-472.895
 21
532.854
  0
LINE
  8
0
 10
-472.895
 20
532.854
 11
-468.138
 21
530.933
  0
LINE
  8
0
 10
-468.138
 20
530.933
 11
-463.259
 21
529.347
  0
LINE
  8
0
 10
-463.259
 20
529.347
 11
-458.281
 21
528.106
  0
LINE
  8
0
 10
-458.281
 20
528.106
 11
-453.229
 21
527.215
  0
LINE
  8
0
 10
-453.229
 20
527.215
 11
-448.127
 21
526.679
  0
LINE
  8
0
 10
-448.127
 20
526.679
 11
-443
 21
526.5
  0
LINE
  8
0
 10
-443
 20
526.5
 11
-437.873
 21
526.679
  0
LINE
  8
0
 10
-447.081
 20
541.643
 11
-451.142
 21
542.069
  0
LINE
  8
0
 10
-451.142
 20
542.069
 11
-455.163
 21
542.778
  0
LINE
  8
0
 10
-455.163
 20
542.778
 11
-459.125
 21
543.766
  0
LINE
  8
0
 10
-459.125
 20
543.766
 11
-463.008
 21
545.028
  0
LINE
  8
0
 10
-463.008
 20
545.028
 11
-466.794
 21
546.558
  0
LINE
  8
0
 10
-466.794
 20
546.558
 11
-470.464
 21
548.348
  0
LINE
  8
0
 10
-470.464
 20
548.348
 11
-474
 21
550.389
  0
LINE
  8
0
 10
-474
 20
550.389
 11
-477.385
 21
552.673
  0
LINE
  8
0
 10
-477.385
 20
552.673
 11
-480.603
 21
555.186
  0
LINE
  8
0
 10
-480.603
 20
555.186
 11
-482.686
 21
557.062
  0
LINE
  8
0
 10
-482.686
 20
557.062
 11
-488.326
 21
551.422
  0
LINE
  8
0
 10
-488.326
 20
551.422
 11
-491.578
 21
554.674
  0
LINE
  8
0
 10
-491.578
 20
554.674
 11
-485.945
 21
560.308
  0
LINE
  8
0
 10
-485.945
 20
560.308
 11
-486.474
 21
560.856
  0
LINE
  8
0
 10
-486.474
 20
560.856
 11
-489.099
 21
563.984
  0
LINE
  8
0
 10
-489.099
 20
563.984
 11
-491.499
 21
567.287
  0
LINE
  8
0
 10
-491.499
 20
567.287
 11
-493.662
 21
570.75
  0
LINE
  8
0
 10
-493.662
 20
570.75
 11
-495.579
 21
574.355
  0
LINE
  8
0
 10
-495.579
 20
574.355
 11
-497.24
 21
578.086
  0
LINE
  8
0
 10
-497.24
 20
578.086
 11
-498.637
 21
581.923
  0
LINE
  8
0
 10
-498.637
 20
581.923
 11
-499.762
 21
585.848
  0
LINE
  8
0
 10
-499.762
 20
585.848
 11
-500.611
 21
589.842
  0
LINE
  8
0
 10
-500.611
 20
589.842
 11
-501.18
 21
593.885
  0
LINE
  8
0
 10
-501.18
 20
593.885
 11
-501.464
 21
597.958
  0
LINE
  8
0
 10
-501.464
 20
597.958
 11
-501.464
 21
602.042
  0
LINE
  8
0
 10
-501.464
 20
602.042
 11
-501.18
 21
606.115
  0
LINE
  8
0
 10
-501.18
 20
606.115
 11
-500.611
 21
610.158
  0
LINE
  8
0
 10
-500.611
 20
610.158
 11
-499.762
 21
614.152
  0
LINE
  8
0
 10
-499.762
 20
614.152
 11
-498.637
 21
618.077
  0
LINE
  8
0
 10
-498.637
 20
618.077
 11
-497.24
 21
621.914
  0
LINE
  8
0
 10
-497.24
 20
621.914
 11
-495.579
 21
625.645
  0
LINE
  8
0
 10
-495.579
 20
625.645
 11
-493.662
 21
629.25
  0
LINE
  8
0
 10
-493.662
 20
629.25
 11
-491.499
 21
632.713
  0
LINE
  8
0
 10
-491.499
 20
632.713
 11
-489.099
 21
636.016
  0
LINE
  8
0
 10
-489.099
 20
636.016
 11
-486.474
 21
639.144
  0
LINE
  8
0
 10
-486.474
 20
639.144
 11
-485.945
 21
639.692
  0
LINE
  8
0
 10
-485.945
 20
639.692
 11
-491.578
 21
645.326
  0
LINE
  8
0
 10
-491.578
 20
645.326
 11
-488.326
 21
648.578
  0
LINE
  8
0
 10
-488.326
 20
648.578
 11
-482.686
 21
642.938
  0
LINE
  8
0
 10
-482.686
 20
642.938
 11
-480.603
 21
644.814
  0
LINE
  8
0
 10
-480.603
 20
644.814
 11
-477.385
 21
647.327
  0
LINE
  8
0
 10
-477.385
 20
647.327
 11
-474
 21
649.611
  0
LINE
  8
0
 10
-474
 20
649.611
 11
-470.464
 21
651.652
  0
LINE
  8
0
 10
-470.464
 20
651.652
 11
-466.794
 21
653.442
  0
LINE
  8
0
 10
-466.794
 20
653.442
 11
-463.008
 21
654.972
  0
LINE
  8
0
 10
-463.008
 20
654.972
 11
-459.125
 21
656.234
  0
LINE
  8
0
 10
-459.125
 20
656.234
 11
-455.163
 21
657.222
  0
LINE
  8
0
 10
-455.163
 20
657.222
 11
-451.142
 21
657.931
  0
LINE
  8
0
 10
-451.142
 20
657.931
 11
-447.081
 21
658.357
  0
LINE
  8
0
 10
-447.081
 20
658.357
 11
-443
 21
658.5
  0
LINE
  8
0
 10
-443
 20
658.5
 11
-438.919
 21
658.357
  0
LINE
  8
0
 10
-438.919
 20
658.357
 11
-434.858
 21
657.931
  0
LINE
  8
0
 10
-434.858
 20
657.931
 11
-430.837
 21
657.222
  0
LINE
  8
0
 10
-430.837
 20
657.222
 11
-426.875
 21
656.234
  0
LINE
  8
0
 10
-426.875
 20
656.234
 11
-422.992
 21
654.972
  0
LINE
  8
0
 10
-422.992
 20
654.972
 11
-419.206
 21
653.442
  0
LINE
  8
0
 10
-419.206
 20
653.442
 11
-415.536
 21
651.652
  0
LINE
  8
0
 10
-415.536
 20
651.652
 11
-412
 21
649.611
  0
LINE
  8
0
 10
-412
 20
649.611
 11
-408.615
 21
647.327
  0
LINE
  8
0
 10
-408.615
 20
647.327
 11
-405.397
 21
644.814
  0
LINE
  8
0
 10
-405.397
 20
644.814
 11
-403.314
 21
642.938
  0
LINE
  8
0
 10
-403.314
 20
642.938
 11
-397.674
 21
648.578
  0
LINE
  8
0
 10
-397.674
 20
648.578
 11
-394.422
 21
645.326
  0
LINE
  8
0
 10
-394.422
 20
645.326
 11
-400.055
 21
639.692
  0
LINE
  8
0
 10
-400.055
 20
639.692
 11
-399.526
 21
639.144
  0
LINE
  8
0
 10
-399.526
 20
639.144
 11
-396.901
 21
636.016
  0
LINE
  8
0
 10
-396.901
 20
636.016
 11
-394.501
 21
632.713
  0
LINE
  8
0
 10
-394.501
 20
632.713
 11
-392.338
 21
629.25
  0
LINE
  8
0
 10
-392.338
 20
629.25
 11
-390.421
 21
625.645
  0
LINE
  8
0
 10
-390.421
 20
625.645
 11
-388.76
 21
621.914
  0
LINE
  8
0
 10
-388.76
 20
621.914
 11
-387.363
 21
618.077
  0
LINE
  8
0
 10
-387.363
 20
618.077
 11
-386.238
 21
614.152
  0
LINE
  8
0
 10
-386.238
 20
614.152
 11
-385.389
 21
610.158
  0
LINE
  8
0
 10
-385.389
 20
610.158
 11
-384.82
 21
606.115
  0
LINE
  8
0
 10
-384.82
 20
606.115
 11
-384.536
 21
602.042
  0
LINE
  8
0
 10
-384.536
 20
602.042
 11
-384.536
 21
597.958
  0
LINE
  8
0
 10
-384.536
 20
597.958
 11
-384.82
 21
593.885
  0
LINE
  8
0
 10
-384.82
 20
593.885
 11
-385.389
 21
589.842
  0
LINE
  8
0
 10
-385.389
 20
589.842
 11
-386.238
 21
585.848
  0
LINE
  8
0
 10
-386.238
 20
585.848
 11
-387.363
 21
581.923
  0
LINE
  8
0
 10
-387.363
 20
581.923
 11
-388.76
 21
578.086
  0
LINE
  8
0
 10
-388.76
 20
578.086
 11
-390.421
 21
574.355
  0
LINE
  8
0
 10
-390.421
 20
574.355
 11
-392.338
 21
570.75
  0
LINE
  8
0
 10
-392.338
 20
570.75
 11
-394.501
 21
567.287
  0
LINE
  8
0
 10
-394.501
 20
567.287
 11
-396.901
 21
563.984
  0
LINE
  8
0
 10
-396.901
 20
563.984
 11
-399.526
 21
560.856
  0
LINE
  8
0
 10
-399.526
 20
560.856
 11
-400.055
 21
560.308
  0
LINE
  8
0
 10
-400.055
 20
560.308
 11
-394.422
 21
554.674
  0
LINE
  8
0
 10
-394.422
 20
554.674
 11
-397.674
 21
551.422
  0
LINE
  8
0
 10
-397.674
 20
551.422
 11
-403.314
 21
557.062
  0
LINE
  8
0
 10
-403.314
 20
557.062
 11
-405.397
 21
555.186
  0
LINE
  8
0
 10
-405.397
 20
555.186
 11
-408.615
 21
552.673
  0
LINE
  8
0
 10
-408.615
 20
552.673
 11
-412
 21
550.389
  0
LINE
  8
0
 10
-412
 20
550.389
 11
-415.536
 21
548.348
  0
LINE
  8
0
 10
-415.536
 20
548.348
 11
-419.206
 21
546.558
  0
LINE
  8
0
 10
-419.206
 20
546.558
 11
-422.992
 21
545.028
  0
LINE
  8
0
 10
-422.992
 20
545.028
 11
-426.875
 21
543.766
  0
LINE
  8
0
 10
-426.875
 20
543.766
 11
-430.837
 21
542.778
  0
LINE
  8
0
 10
-430.837
 20
542.778
 11
-434.858
 21
542.069
  0
LINE
  8
0
 10
-434.858
 20
542.069
 11
-438.919
 21
541.643
  0
LINE
  8
0
 10
-438.919
 20
541.643
 11
-443
 21
541.5
  0
LINE
  8
0
 10
-443
 20
541.5
 11
-447.081
 21
541.643
  0
LINE
  8
0
 10
511.53
 20
-296.08
 11
518.097
 21
-295.157
  0
LINE
  8
0
 10
518.097
 20
-295.157
 11
524.583
 21
-293.778
  0
LINE
  8
0
 10
524.583
 20
-293.778
 11
530.957
 21
-291.95
  0
LINE
  8
0
 10
530.957
 20
-291.95
 11
537.188
 21
-289.682
  0
LINE
  8
0
 10
537.188
 20
-289.682
 11
543.245
 21
-286.985
  0
LINE
  8
0
 10
543.245
 20
-286.985
 11
549.1
 21
-283.872
  0
LINE
  8
0
 10
549.1
 20
-283.872
 11
554.723
 21
-280.359
  0
LINE
  8
0
 10
554.723
 20
-280.359
 11
560.088
 21
-276.461
  0
LINE
  8
0
 10
560.088
 20
-276.461
 11
565.167
 21
-272.199
  0
LINE
  8
0
 10
565.167
 20
-272.199
 11
569.937
 21
-267.593
  0
LINE
  8
0
 10
569.937
 20
-267.593
 11
574.374
 21
-262.665
  0
LINE
  8
0
 10
574.374
 20
-262.665
 11
578.457
 21
-257.44
  0
LINE
  8
0
 10
578.457
 20
-257.44
 11
582.165
 21
-251.942
  0
LINE
  8
0
 10
582.165
 20
-251.942
 11
585.48
 21
-246.2
  0
LINE
  8
0
 10
585.48
 20
-246.2
 11
588.387
 21
-240.24
  0
LINE
  8
0
 10
588.387
 20
-240.24
 11
590.871
 21
-234.092
  0
LINE
  8
0
 10
590.871
 20
-234.092
 11
592.92
 21
-227.786
  0
LINE
  8
0
 10
592.92
 20
-227.786
 11
594.524
 21
-221.352
  0
LINE
  8
0
 10
594.524
 20
-221.352
 11
595.675
 21
-214.821
  0
LINE
  8
0
 10
595.675
 20
-214.821
 11
596.369
 21
-208.227
  0
LINE
  8
0
 10
596.369
 20
-208.227
 11
596.6
 21
-201.6
  0
LINE
  8
0
 10
596.6
 20
-201.6
 11
596.6
 21
201.6
  0
LINE
  8
0
 10
596.6
 20
201.6
 11
596.369
 21
208.227
  0
LINE
  8
0
 10
596.369
 20
208.227
 11
595.675
 21
214.821
  0
LINE
  8
0
 10
595.675
 20
214.821
 11
594.524
 21
221.352
  0
LINE
  8
0
 10
594.524
 20
221.352
 11
592.92
 21
227.786
  0
LINE
  8
0
 10
592.92
 20
227.786
 11
590.871
 21
234.092
  0
LINE
  8
0
 10
590.871
 20
234.092
 11
588.387
 21
240.24
  0
LINE
  8
0
 10
588.387
 20
240.24
 11
585.48
 21
246.2
  0
LINE
  8
0
 10
585.48
 20
246.2
 11
582.165
 21
251.942
  0
LINE
  8
0
 10
582.165
 20
251.942
 11
578.457
 21
257.44
  0
LINE
  8
0
 10
578.457
 20
257.44
 11
574.374
 21
262.665
  0
LINE
  8
0
 10
574.374
 20
262.665
 11
569.937
 21
267.593
  0
LINE
  8
0
 10
569.937
 20
267.593
 11
565.167
 21
272.199
  0
LINE
  8
0
 10
565.167
 20
272.199
 11
560.088
 21
276.461
  0
LINE
  8
0
 10
560.088
 20
276.461
 11
554.723
 21
280.359
  0
LINE
  8
0
 10
554.723
 20
280.359
 11
549.1
 21
283.872
  0
LINE
  8
0
 10
549.1
 20
283.872
 11
543.245
 21
286.985
  0
LINE
  8
0
 10
543.245
 20
286.985
 11
537.188
 21
289.682
  0
LINE
  8
0
 10
537.188
 20
289.682
 11
530.957
 21
291.95
  0
LINE
  8
0
 10
530.957
 20
291.95
 11
524.583
 21
293.778
  0
LINE
  8
0
 10
524.583
 20
293.778
 11
518.097
 21
295.157
  0
LINE
  8
0
 10
518.097
 20
295.157
 11
511.53
 21
296.08
  0
LINE
  8
0
 10
511.53
 20
296.08
 11
504.915
 21
296.542
  0
LINE
  8
0
 10
504.915
 20
296.542
 11
95.0845
 21
296.542
  0
LINE
  8
0
 10
95.0845
 20
296.542
 11
88.4698
 21
296.08
  0
LINE
  8
0
 10
88.4698
 20
296.08
 11
81.9034
 21
295.157
  0
LINE
  8
0
 10
81.9034
 20
295.157
 11
75.4174
 21
293.778
  0
LINE
  8
0
 10
75.4174
 20
293.778
 11
69.0434
 21
291.95
  0
LINE
  8
0
 10
69.0434
 20
291.95
 11
62.8124
 21
289.682
  0
LINE
  8
0
 10
62.8124
 20
289.682
 11
56.7547
 21
286.985
  0
LINE
  8
0
 10
56.7547
 20
286.985
 11
50.9
 21
283.872
  0
LINE
  8
0
 10
50.9
 20
283.872
 11
45.2767
 21
280.359
  0
LINE
  8
0
 10
45.2767
 20
280.359
 11
39.9122
 21
276.461
  0
LINE
  8
0
 10
39.9122
 20
276.461
 11
34.8326
 21
272.199
  0
LINE
  8
0
 10
34.8326
 20
272.199
 11
30.0627
 21
267.593
  0
LINE
  8
0
 10
30.0627
 20
267.593
 11
25.6258
 21
262.665
  0
LINE
  8
0
 10
25.6258
 20
262.665
 11
21.5434
 21
257.44
  0
LINE
  8
0
 10
21.5434
 20
257.44
 11
17.8354
 21
251.942
  0
LINE
  8
0
 10
17.8354
 20
251.942
 11
14.52
 21
246.2
  0
LINE
  8
0
 10
14.52
 20
246.2
 11
11.6132
 21
240.24
  0
LINE
  8
0
 10
11.6132
 20
240.24
 11
9.12921
 21
234.092
  0
LINE
  8
0
 10
9.12921
 20
234.092
 11
7.08014
 21
227.786
  0
LINE
  8
0
 10
7.08014
 20
227.786
 11
5.47598
 21
221.352
  0
LINE
  8
0
 10
5.47598
 20
221.352
 11
4.32452
 21
214.821
  0
LINE
  8
0
 10
4.32452
 20
214.821
 11
3.63141
 21
208.227
  0
LINE
  8
0
 10
3.63141
 20
208.227
 11
3.39999
 21
201.6
  0
LINE
  8
0
 10
3.39999
 20
201.6
 11
3.39999
 21
-201.6
  0
LINE
  8
0
 10
3.39999
 20
-201.6
 11
3.63141
 21
-208.227
  0
LINE
  8
0
 10
3.63141
 20
-208.227
 11
4.32452
 21
-214.821
  0
LINE
  8
0
 10
4.32452
 20
-214.821
 11
5.47598
 21
-221.352
  0
LINE
  8
0
 10
5.47598
 20
-221.352
 11
7.08014
 21
-227.786
  0
LINE
  8
0
 10
7.08014
 20
-227.786
 11
9.12921
 21
-234.092
  0
LINE
  8
0
 10
9.12921
 20
-234.092
 11
11.6132
 21
-240.24
  0
LINE
  8
0
 10
11.6132
 20
-240.24
 11
14.52
 21
-246.2
  0
LINE
  8
0
 10
14.52
 20
-246.2
 11
17.8354
 21
-251.942
  0
LINE
  8
0
 10
17.8354
 20
-251.942
 11
21.5434
 21
-257.44
  0
LINE
  8
0
 10
21.5434
 20
-257.44
 11
25.6258
 21
-262.665
  0
LINE
  8
0
 10
25.6258
 20
-262.665
 11
30.0627
 21
-267.593
  0
LINE
  8
0
 10
30.0627
 20
-267.593
 11
34.8326
 21
-272.199
  0
LINE
  8
0
 10
34.8326
 20
-272.199
 11
39.9122
 21
-276.461
  0
LINE
  8
0
 10
39.9122
 20
-276.461
 11
45.2767
 21
-280.359
  0
LINE
  8
0
 10
45.2767
 20
-280.359
 11
50.9
 21
-283.872
  0
LINE
  8
0
 10
50.9
 20
-283.872
 11
56.7547
 21
-286.985
  0
LINE
  8
0
 10
56.7547
 20
-286.985
 11
62.8124
 21
-289.682
  0
LINE
  8
0
 10
62.8124
 20
-289.682
 11
69.0434
 21
-291.95
  0
LINE
  8
0
 10
69.0434
 20
-291.95
 11
75.4174
 21
-293.778
  0
LINE
  8
0
 10
75.4174
 20
-293.778
 11
81.9034
 21
-295.157
  0
LINE
  8
0
 10
81.9034
 20
-295.157
 11
88.4698
 21
-296.08
  0
LINE
  8
0
 10
88.4698
 20
-296.08
 11
95.0845
 21
-296.542
  0
LINE
  8
0
 10
95.0845
 20
-296.542
 11
504.915
 21
-296.542
  0
LINE
  8
0
 10
504.915
 20
-296.542
 11
511.53
 21
-296.08
  0
LINE
  8
0
 10
98.35
 20
257.5
 11
98.35
 21
272.7
  0
LINE
  8
0
 10
98.35
 20
272.7
 11
103.05
 21
272.7
  0
LINE
  8
0
 10
103.05
 20
272.7
 11
103.05
 21
257.5
  0
LINE
  8
0
 10
103.05
 20
257.5
 11
98.35
 21
257.5
  0
LINE
  8
0
 10
496.95
 20
257.5
 11
496.95
 21
272.7
  0
LINE
  8
0
 10
496.95
 20
272.7
 11
501.65
 21
272.7
  0
LINE
  8
0
 10
501.65
 20
272.7
 11
501.65
 21
257.5
  0
LINE
  8
0
 10
501.65
 20
257.5
 11
496.95
 21
257.5
  0
LINE
  8
0
 10
496.95
 20
217.5
 11
496.95
 21
232.7
  0
LINE
  8
0
 10
496.95
 20
232.7
 11
501.65
 21
232.7
  0
LINE
  8
0
 10
501.65
 20
232.7
 11
501.65
 21
217.5
  0
LINE
  8
0
 10
501.65
 20
217.5
 11
496.95
 21
217.5
  0
LINE
  8
0
 10
98.35
 20
217.5
 11
98.35
 21
232.7
  0
LINE
  8
0
 10
98.35
 20
232.7
 11
103.05
 21
232.7
  0
LINE
  8
0
 10
103.05
 20
232.7
 11
103.05
 21
217.5
  0
LINE
  8
0
 10
103.05
 20
217.5
 11
98.35
 21
217.5
  0
LINE
  8
0
 10
183.4
 20
196.95
 11
183.4
 21
201.65
  0
LINE
  8
0
 10
183.4
 20
201.65
 11
198.6
 21
201.65
  0
LINE
  8
0
 10
198.6
 20
201.65
 11
198.6
 21
196.95
  0
LINE
  8
0
 10
198.6
 20
196.95
 11
183.4
 21
196.95
  0
LINE
  8
0
 10
67.3
 20
196.95
 11
67.3
 21
201.65
  0
LINE
  8
0
 10
67.3
 20
201.65
 11
82.5
 21
201.65
  0
LINE
  8
0
 10
82.5
 20
201.65
 11
82.5
 21
196.95
  0
LINE
  8
0
 10
82.5
 20
196.95
 11
67.3
 21
196.95
  0
LINE
  8
0
 10
557.5
 20
196.95
 11
557.5
 21
201.65
  0
LINE
  8
0
 10
557.5
 20
201.65
 11
572.7
 21
201.65
  0
LINE
  8
0
 10
572.7
 20
201.65
 11
572.7
 21
196.95
  0
LINE
  8
0
 10
572.7
 20
196.95
 11
557.5
 21
196.95
  0
LINE
  8
0
 10
27.3
 20
196.95
 11
27.3
 21
201.65
  0
LINE
  8
0
 10
27.3
 20
201.65
 11
42.5
 21
201.65
  0
LINE
  8
0
 10
42.5
 20
201.65
 11
42.5
 21
196.95
  0
LINE
  8
0
 10
42.5
 20
196.95
 11
27.3
 21
196.95
  0
LINE
  8
0
 10
517.5
 20
196.95
 11
517.5
 21
201.65
  0
LINE
  8
0
 10
517.5
 20
201.65
 11
532.7
 21
201.65
  0
LINE
  8
0
 10
532.7
 20
201.65
 11
532.7
 21
196.95
  0
LINE
  8
0
 10
532.7
 20
196.95
 11
517.5
 21
196.95
  0
LINE
  8
0
 10
292.4
 20
196.95
 11
292.4
 21
201.65
  0
LINE
  8
0
 10
292.4
 20
201.65
 11
307.6
 21
201.65
  0
LINE
  8
0
 10
307.6
 20
201.65
 11
307.6
 21
196.95
  0
LINE
  8
0
 10
307.6
 20
196.95
 11
292.4
 21
196.95
  0
LINE
  8
0
 10
401.4
 20
196.95
 11
401.4
 21
201.65
  0
LINE
  8
0
 10
401.4
 20
201.65
 11
416.6
 21
201.65
  0
LINE
  8
0
 10
416.6
 20
201.65
 11
416.6
 21
196.95
  0
LINE
  8
0
 10
416.6
 20
196.95
 11
401.4
 21
196.95
  0
LINE
  8
0
 10
496.95
 20
101.4
 11
496.95
 21
116.6
  0
LINE
  8
0
 10
496.95
 20
116.6
 11
501.65
 21
116.6
  0
LINE
  8
0
 10
501.65
 20
116.6
 11
501.65
 21
101.4
  0
LINE
  8
0
 10
501.65
 20
101.4
 11
496.95
 21
101.4
  0
LINE
  8
0
 10
98.35
 20
101.4
 11
98.35
 21
116.6
  0
LINE
  8
0
 10
98.35
 20
116.6
 11
103.05
 21
116.6
  0
LINE
  8
0
 10
103.05
 20
116.6
 11
103.05
 21
101.4
  0
LINE
  8
0
 10
103.05
 20
101.4
 11
98.35
 21
101.4
  0
LINE
  8
0
 10
230.456
 20
66.2206
 11
233.779
 21
69.5439
  0
LINE
  8
0
 10
233.779
 20
69.5439
 11
242.265
 21
61.0587
  0
LINE
  8
0
 10
242.265
 20
61.0587
 11
238.941
 21
57.7353
  0
LINE
  8
0
 10
238.941
 20
57.7353
 11
230.456
 21
66.2206
  0
LINE
  8
0
 10
357.735
 20
61.0587
 11
366.221
 21
69.5439
  0
LINE
  8
0
 10
366.221
 20
69.5439
 11
369.544
 21
66.2206
  0
LINE
  8
0
 10
369.544
 20
66.2206
 11
361.059
 21
57.7353
  0
LINE
  8
0
 10
361.059
 20
57.7353
 11
357.735
 21
61.0587
  0
LINE
  8
0
 10
265.811
 20
30.8652
 11
269.135
 21
34.1886
  0
LINE
  8
0
 10
269.135
 20
34.1886
 11
277.62
 21
25.7033
  0
LINE
  8
0
 10
277.62
 20
25.7033
 11
274.297
 21
22.3799
  0
LINE
  8
0
 10
274.297
 20
22.3799
 11
265.811
 21
30.8652
  0
LINE
  8
0
 10
322.38
 20
25.7033
 11
330.865
 21
34.1886
  0
LINE
  8
0
 10
330.865
 20
34.1886
 11
334.189
 21
30.8652
  0
LINE
  8
0
 10
334.189
 20
30.8652
 11
325.703
 21
22.3799
  0
LINE
  8
0
 10
325.703
 20
22.3799
 11
322.38
 21
25.7033
  0
LINE
  8
0
 10
98.35
 20
-7.59999
 11
98.35
 21
7.59999
  0
LINE
  8
0
 10
98.35
 20
7.59999
 11
103.05
 21
7.59999
  0
LINE
  8
0
 10
103.05
 20
7.59999
 11
103.05
 21
-7.59999
  0
LINE
  8
0
 10
103.05
 20
-7.59999
 11
98.35
 21
-7.59999
  0
LINE
  8
0
 10
496.95
 20
-7.59999
 11
496.95
 21
7.59999
  0
LINE
  8
0
 10
496.95
 20
7.59999
 11
501.65
 21
7.59999
  0
LINE
  8
0
 10
501.65
 20
7.59999
 11
501.65
 21
-7.59999
  0
LINE
  8
0
 10
501.65
 20
-7.59999
 11
496.95
 21
-7.59999
  0
LINE
  8
0
 10
265.811
 20
-30.8652
 11
274.297
 21
-22.3799
  0
LINE
  8
0
 10
274.297
 20
-22.3799
 11
277.62
 21
-25.7033
  0
LINE
  8
0
 10
277.62
 20
-25.7033
 11
269.135
 21
-34.1886
  0
LINE
  8
0
 10
269.135
 20
-34.1886
 11
265.811
 21
-30.8652
  0
LINE
  8
0
 10
322.38
 20
-25.7033
 11
325.703
 21
-22.3799
  0
LINE
  8
0
 10
325.703
 20
-22.3799
 11
334.189
 21
-30.8652
  0
LINE
  8
0
 10
334.189
 20
-30.8652
 11
330.865
 21
-34.1886
  0
LINE
  8
0
 10
330.865
 20
-34.1886
 11
322.38
 21
-25.7033
  0
LINE
  8
0
 10
357.735
 20
-61.0587
 11
361.059
 21
-57.7353
  0
LINE
  8
0
 10
361.059
 20
-57.7353
 11
369.544
 21
-66.2206
  0
LINE
  8
0
 10
369.544
 20
-66.2206
 11
366.221
 21
-69.5439
  0
LINE
  8
0
 10
366.221
 20
-69.5439
 11
357.735
 21
-61.0587
  0
LINE
  8
0
 10
230.456
 20
-66.2206
 11
238.941
 21
-57.7353
  0
LINE
  8
0
 10
238.941
 20
-57.7353
 11
242.265
 21
-61.0587
  0
LINE
  8
0
 10
242.265
 20
-61.0587
 11
233.779
 21
-69.5439
  0
LINE
  8
0
 10
233.779
 20
-69.5439
 11
230.456
 21
-66.2206
  0
LINE
  8
0
 10
98.35
 20
-116.6
 11
98.35
 21
-101.4
  0
LINE
  8
0
 10
98.35
 20
-101.4
 11
103.05
 21
-101.4
  0
LINE
  8
0
 10
103.05
 20
-101.4
 11
103.05
 21
-116.6
  0
LINE
  8
0
 10
103.05
 20
-116.6
 11
98.35
 21
-116.6
  0
LINE
  8
0
 10
496.95
 20
-116.6
 11
496.95
 21
-101.4
  0
LINE
  8
0
 10
496.95
 20
-101.4
 11
501.65
 21
-101.4
  0
LINE
  8
0
 10
501.65
 20
-101.4
 11
501.65
 21
-116.6
  0
LINE
  8
0
 10
501.65
 20
-116.6
 11
496.95
 21
-116.6
  0
LINE
  8
0
 10
27.3
 20
-201.65
 11
27.3
 21
-196.95
  0
LINE
  8
0
 10
27.3
 20
-196.95
 11
42.5
 21
-196.95
  0
LINE
  8
0
 10
42.5
 20
-196.95
 11
42.5
 21
-201.65
  0
LINE
  8
0
 10
42.5
 20
-201.65
 11
27.3
 21
-201.65
  0
LINE
  8
0
 10
401.4
 20
-201.65
 11
401.4
 21
-196.95
  0
LINE
  8
0
 10
401.4
 20
-196.95
 11
416.6
 21
-196.95
  0
LINE
  8
0
 10
416.6
 20
-196.95
 11
416.6
 21
-201.65
  0
LINE
  8
0
 10
416.6
 20
-201.65
 11
401.4
 21
-201.65
  0
LINE
  8
0
 10
517.5
 20
-201.65
 11
517.5
 21
-196.95
  0
LINE
  8
0
 10
517.5
 20
-196.95
 11
532.7
 21
-196.95
  0
LINE
  8
0
 10
532.7
 20
-196.95
 11
532.7
 21
-201.65
  0
LINE
  8
0
 10
532.7
 20
-201.65
 11
517.5
 21
-201.65
  0
LINE
  8
0
 10
557.5
 20
-201.65
 11
557.5
 21
-196.95
  0
LINE
  8
0
 10
557.5
 20
-196.95
 11
572.7
 21
-196.95
  0
LINE
  8
0
 10
572.7
 20
-196.95
 11
572.7
 21
-201.65
  0
LINE
  8
0
 10
572.7
 20
-201.65
 11
557.5
 21
-201.65
  0
LINE
  8
0
 10
67.3
 20
-201.65
 11
67.3
 21
-196.95
  0
LINE
  8
0
 10
67.3
 20
-196.95
 11
82.5
 21
-196.95
  0
LINE
  8
0
 10
82.5
 20
-196.95
 11
82.5
 21
-201.65
  0
LINE
  8
0
 10
82.5
 20
-201.65
 11
67.3
 21
-201.65
  0
LINE
  8
0
 10
292.4
 20
-201.65
 11
292.4
 21
-196.95
  0
LINE
  8
0
 10
292.4
 20
-196.95
 11
307.6
 21
-196.95
  0
LINE
  8
0
 10
307.6
 20
-196.95
 11
307.6
 21
-201.65
  0
LINE
  8
0
 10
307.6
 20
-201.65
 11
292.4
 21
-201.65
  0
LINE
  8
0
 10
183.4
 20
-201.65
 11
183.4
 21
-196.95
  0
LINE
  8
0
 10
183.4
 20
-196.95
 11
198.6
 21
-196.95
  0
LINE
  8
0
 10
198.6
 20
-196.95
 11
198.6
 21
-201.65
  0
LINE
  8
0
 10
198.6
 20
-201.65
 11
183.4
 21
-201.65
  0
LINE
  8
0
 10
98.35
 20
-232.7
 11
98.35
 21
-217.5
  0
LINE
  8
0
 10
98.35
 20
-217.5
 11
103.05
 21
-217.5
  0
LINE
  8
0
 10
103.05
 20
-217.5
 11
103.05
 21
-232.7
  0
LINE
  8
0
 10
103.05
 20
-232.7
 11
98.35
 21
-232.7
  0
LINE
  8
0
 10
496.95
 20
-232.7
 11
496.95
 21
-217.5
  0
LINE
  8
0
 10
496.95
 20
-217.5
 11
501.65
 21
-217.5
  0
LINE
  8
0
 10
501.65
 20
-217.5
 11
501.65
 21
-232.7
  0
LINE
  8
0
 10
501.65
 20
-232.7
 11
496.95
 21
-232.7
  0
LINE
  8
0
 10
496.95
 20
-272.7
 11
496.95
 21
-257.5
  0
LINE
  8
0
 10
496.95
 20
-257.5
 11
501.65
 21
-257.5
  0
LINE
  8
0
 10
501.65
 20
-257.5
 11
501.65
 21
-272.7
  0
LINE
  8
0
 10
501.65
 20
-272.7
 11
496.95
 21
-272.7
  0
LINE
  8
0
 10
98.35
 20
-272.7
 11
98.35
 21
-257.5
  0
LINE
  8
0
 10
98.35
 20
-257.5
 11
103.05
 21
-257.5
  0
LINE
  8
0
 10
103.05
 20
-257.5
 11
103.05
 21
-272.7
  0
LINE
  8
0
 10
103.05
 20
-272.7
 11
98.35
 21
-272.7
  0
LINE
  8
0
 10
-88.4698
 20
-296.08
 11
-81.9034
 21
-295.157
  0
LINE
  8
0
 10
-81.9034
 20
-295.157
 11
-75.4174
 21
-293.778
  0
LINE
  8
0
 10
-75.4174
 20
-293.778
 11
-69.0434
 21
-291.95
  0
LINE
  8
0
 10
-69.0434
 20
-291.95
 11
-62.8124
 21
-289.682
  0
LINE
  8
0
 10
-62.8124
 20
-289.682
 11
-56.7547
 21
-286.985
  0
LINE
  8
0
 10
-56.7547
 20
-286.985
 11
-50.9
 21
-283.872
  0
LINE
  8
0
 10
-50.9
 20
-283.872
 11
-45.2767
 21
-280.359
  0
LINE
  8
0
 10
-45.2767
 20
-280.359
 11
-39.9122
 21
-276.461
  0
LINE
  8
0
 10
-39.9122
 20
-276.461
 11
-34.8326
 21
-272.199
  0
LINE
  8
0
 10
-34.8326
 20
-272.199
 11
-30.0627
 21
-267.593
  0
LINE
  8
0
 10
-30.0627
 20
-267.593
 11
-25.6258
 21
-262.665
  0
LINE
  8
0
 10
-25.6258
 20
-262.665
 11
-21.5434
 21
-257.44
  0
LINE
  8
0
 10
-21.5434
 20
-257.44
 11
-17.8354
 21
-251.942
  0
LINE
  8
0
 10
-17.8354
 20
-251.942
 11
-14.52
 21
-246.2
  0
LINE
  8
0
 10
-14.52
 20
-246.2
 11
-11.6132
 21
-240.24
  0
LINE
  8
0
 10
-11.6132
 20
-240.24
 11
-9.12921
 21
-234.092
  0
LINE
  8
0
 10
-9.12921
 20
-234.092
 11
-7.08014
 21
-227.786
  0
LINE
  8
0
 10
-7.08014
 20
-227.786
 11
-5.47598
 21
-221.352
  0
LINE
  8
0
 10
-5.47598
 20
-221.352
 11
-4.32452
 21
-214.821
  0
LINE
  8
0
 10
-4.32452
 20
-214.821
 11
-3.63141
 21
-208.227
  0
LINE
  8
0
 10
-3.63141
 20
-208.227
 11
-3.39999
 21
-201.6
  0
LINE
  8
0
 10
-3.39999
 20
-201.6
 11
-3.39999
 21
201.6
  0
LINE
  8
0
 10
-3.39999
 20
201.6
 11
-3.63141
 21
208.227
  0
LINE
  8
0
 10
-3.63141
 20
208.227
 11
-4.32452
 21
214.821
  0
LINE
  8
0
 10
-4.32452
 20
214.821
 11
-5.47598
 21
221.352
  0
LINE
  8
0
 10
-5.47598
 20
221.352
 11
-7.08014
 21
227.786
  0
LINE
  8
0
 10
-7.08014
 20
227.786
 11
-9.12921
 21
234.092
  0
LINE
  8
0
 10
-9.12921
 20
234.092
 11
-11.6132
 21
240.24
  0
LINE
  8
0
 10
-11.6132
 20
240.24
 11
-14.52
 21
246.2
  0
LINE
  8
0
 10
-14.52
 20
246.2
 11
-17.8354
 21
251.942
  0
LINE
  8
0
 10
-17.8354
 20
251.942
 11
-21.5434
 21
257.44
  0
LINE
  8
0
 10
-21.5434
 20
257.44
 11
-25.6258
 21
262.665
  0
LINE
  8
0
 10
-25.6258
 20
262.665
 11
-30.0627
 21
267.593
  0
LINE
  8
0
 10
-30.0627
 20
267.593
 11
-34.8326
 21
272.199
  0
LINE
  8
0
 10
-34.8326
 20
272.199
 11
-39.9122
 21
276.461
  0
LINE
  8
0
 10
-39.9122
 20
276.461
 11
-45.2767
 21
280.359
  0
LINE
  8
0
 10
-45.2767
 20
280.359
 11
-50.9
 21
283.872
  0
LINE
  8
0
 10
-50.9
 20
283.872
 11
-56.7547
 21
286.985
  0
LINE
  8
0
 10
-56.7547
 20
286.985
 11
-62.8124
 21
289.682
  0
LINE
  8
0
 10
-62.8124
 20
289.682
 11
-69.0434
 21
291.95
  0
LINE
  8
0
 10
-69.0434
 20
291.95
 11
-75.4174
 21
293.778
  0
LINE
  8
0
 10
-75.4174
 20
293.778
 11
-81.9034
 21
295.157
  0
LINE
  8
0
 10
-81.9034
 20
295.157
 11
-88.4698
 21
296.08
  0
LINE
  8
0
 10
-88.4698
 20
296.08
 11
-95.0845
 21
296.542
  0
LINE
  8
0
 10
-95.0845
 20
296.542
 11
-504.915
 21
296.542
  0
LINE
  8
0
 10
-504.915
 20
296.542
 11
-511.53
 21
296.08
  0
LINE
  8
0
 10
-511.53
 20
296.08
 11
-518.097
 21
295.157
  0
LINE
  8
0
 10
-518.097
 20
295.157
 11
-524.583
 21
293.778
  0
LINE
  8
0
 10
-524.583
 20
293.778
 11
-530.957
 21
291.95
  0
LINE
  8
0
 10
-530.957
 20
291.95
 11
-537.188
 21
289.682
  0
LINE
  8
0
 10
-537.188
 20
289.682
 11
-543.245
 21
286.985
  0
LINE
  8
0
 10
-543.245
 20
286.985
 11
-549.1
 21
283.872
  0
LINE
  8
0
 10
-549.1
 20
283.872
 11
-554.723
 21
280.359
  0
LINE
  8
0
 10
-554.723
 20
280.359
 11
-560.088
 21
276.461
  0
LINE
  8
0
 10
-560.088
 20
276.461
 11
-565.167
 21
272.199
  0
LINE
  8
0
 10
-565.167
 20
272.199
 11
-569.937
 21
267.593
  0
LINE
  8
0
 10
-569.937
 20
267.593
 11
-574.374
 21
262.665
  0
LINE
  8
0
 10
-574.374
 20
262.665
 11
-578.457
 21
257.44
  0
LINE
  8
0
 10
-578.457
 20
257.44
 11
-582.165
 21
251.942
  0
LINE
  8
0
 10
-582.165
 20
251.942
 11
-585.48
 21
246.2
  0
LINE
  8
0
 10
-585.48
 20
246.2
 11
-588.387
 21
240.24
  0
LINE
  8
0
 10
-588.387
 20
240.24
 11
-590.871
 21
234.092
  0
LINE
  8
0
 10
-590.871
 20
234.092
 11
-592.92
 21
227.786
  0
LINE
  8
0
 10
-592.92
 20
227.786
 11
-594.524
 21
221.352
  0
LINE
  8
0
 10
-594.524
 20
221.352
 11
-595.675
 21
214.821
  0
LINE
  8
0
 10
-595.675
 20
214.821
 11
-596.369
 21
208.227
  0
LINE
  8
0
 10
-596.369
 20
208.227
 11
-596.6
 21
201.6
  0
LINE
  8
0
 10
-596.6
 20
201.6
 11
-596.6
 21
-201.6
  0
LINE
  8
0
 10
-596.6
 20
-201.6
 11
-596.369
 21
-208.227
  0
LINE
  8
0
 10
-596.369
 20
-208.227
 11
-595.675
 21
-214.821
  0
LINE
  8
0
 10
-595.675
 20
-214.821
 11
-594.524
 21
-221.352
  0
LINE
  8
0
 10
-594.524
 20
-221.352
 11
-592.92
 21
-227.786
  0
LINE
  8
0
 10
-592.92
 20
-227.786
 11
-590.871
 21
-234.092
  0
LINE
  8
0
 10
-590.871
 20
-234.092
 11
-588.387
 21
-240.24
  0
LINE
  8
0
 10
-588.387
 20
-240.24
 11
-585.48
 21
-246.2
  0
LINE
  8
0
 10
-585.48
 20
-246.2
 11
-582.165
 21
-251.942
  0
LINE
  8
0
 10
-582.165
 20
-251.942
 11
-578.457
 21
-257.44
  0
LINE
  8
0
 10
-578.457
 20
-257.44
 11
-574.374
 21
-262.665
  0
LINE
  8
0
 10
-574.374
 20
-262.665
 11
-569.937
 21
-267.593
  0
LINE
  8
0
 10
-569.937
 20
-267.593
 11
-565.167
 21
-272.199
  0
LINE
  8
0
 10
-565.167
 20
-272.199
 11
-560.088
 21
-276.461
  0
LINE
  8
0
 10
-560.088
 20
-276.461
 11
-554.723
 21
-280.359
  0
LINE
  8
0
 10
-554.723
 20
-280.359
 11
-549.1
 21
-283.872
  0
LINE
  8
0
 10
-549.1
 20
-283.872
 11
-543.245
 21
-286.985
  0
LINE
  8
0
 10
-543.245
 20
-286.985
 11
-537.188
 21
-289.682
  0
LINE
  8
0
 10
-537.188
 20
-289.682
 11
-530.957
 21
-291.95
  0
LINE
  8
0
 10
-530.957
 20
-291.95
 11
-524.583
 21
-293.778
  0
LINE
  8
0
 10
-524.583
 20
-293.778
 11
-518.097
 21
-295.157
  0
LINE
  8
0
 10
-518.097
 20
-295.157
 11
-511.53
 21
-296.08
  0
LINE
  8
0
 10
-511.53
 20
-296.08
 11
-504.915
 21
-296.542
  0
LINE
  8
0
 10
-504.915
 20
-296.542
 11
-95.0845
 21
-296.542
  0
LINE
  8
0
 10
-95.0845
 20
-296.542
 11
-88.4698
 21
-296.08
  0
LINE
  8
0
 10
-501.65
 20
257.5
 11
-501.65
 21
272.7
  0
LINE
  8
0
 10
-501.65
 20
272.7
 11
-496.95
 21
272.7
  0
LINE
  8
0
 10
-496.95
 20
272.7
 11
-496.95
 21
257.5
  0
LINE
  8
0
 10
-496.95
 20
257.5
 11
-501.65
 21
257.5
  0
LINE
  8
0
 10
-103.05
 20
257.5
 11
-103.05
 21
272.7
  0
LINE
  8
0
 10
-103.05
 20
272.7
 11
-98.35
 21
272.7
  0
LINE
  8
0
 10
-98.35
 20
272.7
 11
-98.35
 21
257.5
  0
LINE
  8
0
 10
-98.35
 20
257.5
 11
-103.05
 21
257.5
  0
LINE
  8
0
 10
-103.05
 20
217.5
 11
-103.05
 21
232.7
  0
LINE
  8
0
 10
-103.05
 20
232.7
 11
-98.35
 21
232.7
  0
LINE
  8
0
 10
-98.35
 20
232.7
 11
-98.35
 21
217.5
  0
LINE
  8
0
 10
-98.35
 20
217.5
 11
-103.05
 21
217.5
  0
LINE
  8
0
 10
-501.65
 20
217.5
 11
-501.65
 21
232.7
  0
LINE
  8
0
 10
-501.65
 20
232.7
 11
-496.95
 21
232.7
  0
LINE
  8
0
 10
-496.95
 20
232.7
 11
-496.95
 21
217.5
  0
LINE
  8
0
 10
-496.95
 20
217.5
 11
-501.65
 21
217.5
  0
LINE
  8
0
 10
-416.6
 20
-201.65
 11
-416.6
 21
-197.213
  0
LINE
  8
0
 10
-416.6
 20
-197.213
 11
-439.344
 21
-197.213
  0
LINE
  8
0
 10
-439.344
 20
-197.213
 11
-443.522
 21
-196.921
  0
LINE
  8
0
 10
-443.522
 20
-196.921
 11
-447.669
 21
-196.338
  0
LINE
  8
0
 10
-447.669
 20
-196.338
 11
-451.765
 21
-195.468
  0
LINE
  8
0
 10
-451.765
 20
-195.468
 11
-455.791
 21
-194.313
  0
LINE
  8
0
 10
-455.791
 20
-194.313
 11
-459.726
 21
-192.881
  0
LINE
  8
0
 10
-459.726
 20
-192.881
 11
-463.552
 21
-191.178
  0
LINE
  8
0
 10
-463.552
 20
-191.178
 11
-467.25
 21
-189.212
  0
LINE
  8
0
 10
-467.25
 20
-189.212
 11
-470.802
 21
-186.992
  0
LINE
  8
0
 10
-470.802
 20
-186.992
 11
-474.19
 21
-184.531
  0
LINE
  8
0
 10
-474.19
 20
-184.531
 11
-477.398
 21
-181.839
  0
LINE
  8
0
 10
-477.398
 20
-181.839
 11
-480.41
 21
-178.93
  0
LINE
  8
0
 10
-480.41
 20
-178.93
 11
-483.213
 21
-175.817
  0
LINE
  8
0
 10
-483.213
 20
-175.817
 11
-485.791
 21
-172.517
  0
LINE
  8
0
 10
-485.791
 20
-172.517
 11
-488.133
 21
-169.045
  0
LINE
  8
0
 10
-488.133
 20
-169.045
 11
-490.227
 21
-165.418
  0
LINE
  8
0
 10
-490.227
 20
-165.418
 11
-492.063
 21
-161.654
  0
LINE
  8
0
 10
-492.063
 20
-161.654
 11
-493.632
 21
-157.771
  0
LINE
  8
0
 10
-493.632
 20
-157.771
 11
-494.926
 21
-153.788
  0
LINE
  8
0
 10
-494.926
 20
-153.788
 11
-495.939
 21
-149.725
  0
LINE
  8
0
 10
-495.939
 20
-149.725
 11
-496.666
 21
-145.6
  0
LINE
  8
0
 10
-496.666
 20
-145.6
 11
-497.104
 21
-141.435
  0
LINE
  8
0
 10
-497.104
 20
-141.435
 11
-497.25
 21
-137.25
  0
LINE
  8
0
 10
-497.25
 20
-137.25
 11
-497.25
 21
-116.6
  0
LINE
  8
0
 10
-497.25
 20
-116.6
 11
-501.65
 21
-116.6
  0
LINE
  8
0
 10
-501.65
 20
-116.6
 11
-501.65
 21
-101.4
  0
LINE
  8
0
 10
-501.65
 20
-101.4
 11
-497.25
 21
-101.4
  0
LINE
  8
0
 10
-497.25
 20
-101.4
 11
-497.25
 21
-7.59999
  0
LINE
  8
0
 10
-497.25
 20
-7.59999
 11
-501.65
 21
-7.59999
  0
LINE
  8
0
 10
-501.65
 20
-7.59999
 11
-501.65
 21
7.59999
  0
LINE
  8
0
 10
-501.65
 20
7.59999
 11
-497.25
 21
7.59999
  0
LINE
  8
0
 10
-497.25
 20
7.59999
 11
-497.25
 21
101.4
  0
LINE
  8
0
 10
-497.25
 20
101.4
 11
-501.65
 21
101.4
  0
LINE
  8
0
 10
-501.65
 20
101.4
 11
-501.65
 21
116.6
  0
LINE
  8
0
 10
-501.65
 20
116.6
 11
-497.25
 21
116.6
  0
LINE
  8
0
 10
-497.25
 20
116.6
 11
-497.25
 21
137.25
  0
LINE
  8
0
 10
-497.25
 20
137.25
 11
-497.104
 21
141.435
  0
LINE
  8
0
 10
-497.104
 20
141.435
 11
-496.666
 21
145.6
  0
LINE
  8
0
 10
-496.666
 20
145.6
 11
-495.939
 21
149.725
  0
LINE
  8
0
 10
-495.939
 20
149.725
 11
-494.926
 21
153.788
  0
LINE
  8
0
 10
-494.926
 20
153.788
 11
-493.632
 21
157.771
  0
LINE
  8
0
 10
-493.632
 20
157.771
 11
-492.063
 21
161.654
  0
LINE
  8
0
 10
-492.063
 20
161.654
 11
-490.227
 21
165.418
  0
LINE
  8
0
 10
-490.227
 20
165.418
 11
-488.133
 21
169.045
  0
LINE
  8
0
 10
-488.133
 20
169.045
 11
-485.791
 21
172.517
  0
LINE
  8
0
 10
-485.791
 20
172.517
 11
-483.213
 21
175.817
  0
LINE
  8
0
 10
-483.213
 20
175.817
 11
-480.41
 21
178.93
  0
LINE
  8
0
 10
-480.41
 20
178.93
 11
-477.398
 21
181.839
  0
LINE
  8
0
 10
-477.398
 20
181.839
 11
-474.19
 21
184.531
  0
LINE
  8
0
 10
-474.19
 20
184.531
 11
-470.802
 21
186.992
  0
LINE
  8
0
 10
-470.802
 20
186.992
 11
-467.25
 21
189.212
  0
LINE
  8
0
 10
-467.25
 20
189.212
 11
-463.552
 21
191.178
  0
LINE
  8
0
 10
-463.552
 20
191.178
 11
-459.726
 21
192.881
  0
LINE
  8
0
 10
-459.726
 20
192.881
 11
-455.791
 21
194.313
  0
LINE
  8
0
 10
-455.791
 20
194.313
 11
-451.765
 21
195.468
  0
LINE
  8
0
 10
-451.765
 20
195.468
 11
-447.669
 21
196.338
  0
LINE
  8
0
 10
-447.669
 20
196.338
 11
-443.522
 21
196.921
  0
LINE
  8
0
 10
-443.522
 20
196.921
 11
-439.344
 21
197.213
  0
LINE
  8
0
 10
-439.344
 20
197.213
 11
-416.6
 21
197.213
  0
LINE
  8
0
 10
-416.6
 20
197.213
 11
-416.6
 21
201.65
  0
LINE
  8
0
 10
-416.6
 20
201.65
 11
-401.4
 21
201.65
  0
LINE
  8
0
 10
-401.4
 20
201.65
 11
-401.4
 21
197.213
  0
LINE
  8
0
 10
-401.4
 20
197.213
 11
-307.6
 21
197.213
  0
LINE
  8
0
 10
-307.6
 20
197.213
 11
-307.6
 21
201.65
  0
LINE
  8
0
 10
-307.6
 20
201.65
 11
-292.4
 21
201.65
  0
LINE
  8
0
 10
-292.4
 20
201.65
 11
-292.4
 21
197.213
  0
LINE
  8
0
 10
-292.4
 20
197.213
 11
-198.6
 21
197.213
  0
LINE
  8
0
 10
-198.6
 20
197.213
 11
-198.6
 21
201.65
  0
LINE
  8
0
 10
-198.6
 20
201.65
 11
-183.4
 21
201.65
  0
LINE
  8
0
 10
-183.4
 20
201.65
 11
-183.4
 21
197.213
  0
LINE
  8
0
 10
-183.4
 20
197.213
 11
-160.656
 21
197.213
  0
LINE
  8
0
 10
-160.656
 20
197.213
 11
-156.478
 21
196.921
  0
LINE
  8
0
 10
-156.478
 20
196.921
 11
-152.331
 21
196.338
  0
LINE
  8
0
 10
-152.331
 20
196.338
 11
-148.235
 21
195.468
  0
LINE
  8
0
 10
-148.235
 20
195.468
 11
-144.209
 21
194.313
  0
LINE
  8
0
 10
-144.209
 20
194.313
 11
-140.274
 21
192.881
  0
LINE
  8
0
 10
-140.274
 20
192.881
 11
-136.448
 21
191.178
  0
LINE
  8
0
 10
-136.448
 20
191.178
 11
-132.75
 21
189.212
  0
LINE
  8
0
 10
-132.75
 20
189.212
 11
-129.198
 21
186.992
  0
LINE
  8
0
 10
-129.198
 20
186.992
 11
-125.81
 21
184.531
  0
LINE
  8
0
 10
-125.81
 20
184.531
 11
-122.602
 21
181.839
  0
LINE
  8
0
 10
-122.602
 20
181.839
 11
-119.59
 21
178.93
  0
LINE
  8
0
 10
-119.59
 20
178.93
 11
-116.787
 21
175.817
  0
LINE
  8
0
 10
-116.787
 20
175.817
 11
-114.209
 21
172.517
  0
LINE
  8
0
 10
-114.209
 20
172.517
 11
-111.867
 21
169.045
  0
LINE
  8
0
 10
-111.867
 20
169.045
 11
-109.773
 21
165.418
  0
LINE
  8
0
 10
-109.773
 20
165.418
 11
-107.937
 21
161.654
  0
LINE
  8
0
 10
-107.937
 20
161.654
 11
-106.368
 21
157.771
  0
LINE
  8
0
 10
-106.368
 20
157.771
 11
-105.074
 21
153.788
  0
LINE
  8
0
 10
-105.074
 20
153.788
 11
-104.061
 21
149.725
  0
LINE
  8
0
 10
-104.061
 20
149.725
 11
-103.334
 21
145.6
  0
LINE
  8
0
 10
-103.334
 20
145.6
 11
-102.896
 21
141.435
  0
LINE
  8
0
 10
-102.896
 20
141.435
 11
-102.75
 21
137.25
  0
LINE
  8
0
 10
-102.75
 20
137.25
 11
-102.75
 21
116.6
  0
LINE
  8
0
 10
-102.75
 20
116.6
 11
-98.35
 21
116.6
  0
LINE
  8
0
 10
-98.35
 20
116.6
 11
-98.35
 21
101.4
  0
LINE
  8
0
 10
-98.35
 20
101.4
 11
-102.75
 21
101.4
  0
LINE
  8
0
 10
-102.75
 20
101.4
 11
-102.75
 21
7.59999
  0
LINE
  8
0
 10
-102.75
 20
7.59999
 11
-98.35
 21
7.59999
  0
LINE
  8
0
 10
-98.35
 20
7.59999
 11
-98.35
 21
-7.59999
  0
LINE
  8
0
 10
-98.35
 20
-7.59999
 11
-102.75
 21
-7.59999
  0
LINE
  8
0
 10
-102.75
 20
-7.59999
 11
-102.75
 21
-101.4
  0
LINE
  8
0
 10
-102.75
 20
-101.4
 11
-98.35
 21
-101.4
  0
LINE
  8
0
 10
-98.35
 20
-101.4
 11
-98.35
 21
-116.6
  0
LINE
  8
0
 10
-98.35
 20
-116.6
 11
-102.75
 21
-116.6
  0
LINE
  8
0
 10
-102.75
 20
-116.6
 11
-102.75
 21
-137.25
  0
LINE
  8
0
 10
-102.75
 20
-137.25
 11
-102.896
 21
-141.435
  0
LINE
  8
0
 10
-102.896
 20
-141.435
 11
-103.334
 21
-145.6
  0
LINE
  8
0
 10
-103.334
 20
-145.6
 11
-104.061
 21
-149.725
  0
LINE
  8
0
 10
-104.061
 20
-149.725
 11
-105.074
 21
-153.788
  0
LINE
  8
0
 10
-105.074
 20
-153.788
 11
-106.368
 21
-157.771
  0
LINE
  8
0
 10
-106.368
 20
-157.771
 11
-107.937
 21
-161.654
  0
LINE
  8
0
 10
-107.937
 20
-161.654
 11
-109.773
 21
-165.418
  0
LINE
  8
0
 10
-109.773
 20
-165.418
 11
-111.867
 21
-169.045
  0
LINE
  8
0
 10
-111.867
 20
-169.045
 11
-114.209
 21
-172.517
  0
LINE
  8
0
 10
-114.209
 20
-172.517
 11
-116.787
 21
-175.817
  0
LINE
  8
0
 10
-116.787
 20
-175.817
 11
-119.59
 21
-178.93
  0
LINE
  8
0
 10
-119.59
 20
-178.93
 11
-122.602
 21
-181.839
  0
LINE
  8
0
 10
-122.602
 20
-181.839
 11
-125.81
 21
-184.531
  0
LINE
  8
0
 10
-125.81
 20
-184.531
 11
-129.198
 21
-186.992
  0
LINE
  8
0
 10
-129.198
 20
-186.992
 11
-132.75
 21
-189.212
  0
LINE
  8
0
 10
-132.75
 20
-189.212
 11
-136.448
 21
-191.178
  0
LINE
  8
0
 10
-136.448
 20
-191.178
 11
-140.274
 21
-192.881
  0
LINE
  8
0
 10
-140.274
 20
-192.881
 11
-144.209
 21
-194.313
  0
LINE
  8
0
 10
-144.209
 20
-194.313
 11
-148.235
 21
-195.468
  0
LINE
  8
0
 10
-148.235
 20
-195.468
 11
-152.331
 21
-196.338
  0
LINE
  8
0
 10
-152.331
 20
-196.338
 11
-156.478
 21
-196.921
  0
LINE
  8
0
 10
-156.478
 20
-196.921
 11
-160.656
 21
-197.213
  0
LINE
  8
0
 10
-160.656
 20
-197.213
 11
-183.4
 21
-197.213
  0
LINE
  8
0
 10
-183.4
 20
-197.213
 11
-183.4
 21
-201.65
  0
LINE
  8
0
 10
-183.4
 20
-201.65
 11
-198.6
 21
-201.65
  0
LINE
  8
0
 10
-198.6
 20
-201.65
 11
-198.6
 21
-197.213
  0
LINE
  8
0
 10
-198.6
 20
-197.213
 11
-292.4
 21
-197.213
  0
LINE
  8
0
 10
-292.4
 20
-197.213
 11
-292.4
 21
-201.65
  0
LINE
  8
0
 10
-292.4
 20
-201.65
 11
-307.6
 21
-201.65
  0
LINE
  8
0
 10
-307.6
 20
-201.65
 11
-307.6
 21
-197.213
  0
LINE
  8
0
 10
-307.6
 20
-197.213
 11
-401.4
 21
-197.213
  0
LINE
  8
0
 10
-401.4
 20
-197.213
 11
-401.4
 21
-201.65
  0
LINE
  8
0
 10
-401.4
 20
-201.65
 11
-416.6
 21
-201.65
  0
LINE
  8
0
 10
-460
 20
171
 11
-485
 21
171
  0
LINE
  8
0
 10
-485
 20
171
 11
-485
 21
116.5
  0
LINE
  8
0
 10
-485
 20
116.5
 11
-490.1
 21
116.5
  0
LINE
  8
0
 10
-490.1
 20
116.5
 11
-490.1
 21
101.5
  0
LINE
  8
0
 10
-490.1
 20
101.5
 11
-485
 21
101.5
  0
LINE
  8
0
 10
-485
 20
101.5
 11
-485
 21
7.5
  0
LINE
  8
0
 10
-485
 20
7.5
 11
-490.1
 21
7.5
  0
LINE
  8
0
 10
-490.1
 20
7.5
 11
-490.1
 21
-7.5
  0
LINE
  8
0
 10
-490.1
 20
-7.5
 11
-485
 21
-7.5
  0
LINE
  8
0
 10
-485
 20
-7.5
 11
-485
 21
-101.5
  0
LINE
  8
0
 10
-485
 20
-101.5
 11
-490.1
 21
-101.5
  0
LINE
  8
0
 10
-490.1
 20
-101.5
 11
-490.1
 21
-116.5
  0
LINE
  8
0
 10
-490.1
 20
-116.5
 11
-485
 21
-116.5
  0
LINE
  8
0
 10
-485
 20
-116.5
 11
-485
 21
-171
  0
LINE
  8
0
 10
-485
 20
-171
 11
-460
 21
-171
  0
LINE
  8
0
 10
-460
 20
-171
 11
-460
 21
171
  0
LINE
  8
0
 10
-287
 20
171
 11
-312
 21
171
  0
LINE
  8
0
 10
-312
 20
171
 11
-312
 21
116.5
  0
LINE
  8
0
 10
-312
 20
116.5
 11
-317.1
 21
116.5
  0
LINE
  8
0
 10
-317.1
 20
116.5
 11
-317.1
 21
101.5
  0
LINE
  8
0
 10
-317.1
 20
101.5
 11
-312
 21
101.5
  0
LINE
  8
0
 10
-312
 20
101.5
 11
-312
 21
7.5
  0
LINE
  8
0
 10
-312
 20
7.5
 11
-317.1
 21
7.5
  0
LINE
  8
0
 10
-317.1
 20
7.5
 11
-317.1
 21
-7.5
  0
LINE
  8
0
 10
-317.1
 20
-7.5
 11
-312
 21
-7.5
  0
LINE
  8
0
 10
-312
 20
-7.5
 11
-312
 21
-101.5
  0
LINE
  8
0
 10
-312
 20
-101.5
 11
-317.1
 21
-101.5
  0
LINE
  8
0
 10
-317.1
 20
-101.5
 11
-317.1
 21
-116.5
  0
LINE
  8
0
 10
-317.1
 20
-116.5
 11
-312
 21
-116.5
  0
LINE
  8
0
 10
-312
 20
-116.5
 11
-312
 21
-171
  0
LINE
  8
0
 10
-312
 20
-171
 11
-287
 21
-171
  0
LINE
  8
0
 10
-287
 20
-171
 11
-287
 21
171
  0
LINE
  8
0
 10
-321.6
 20
171
 11
-346.6
 21
171
  0
LINE
  8
0
 10
-346.6
 20
171
 11
-346.6
 21
116.5
  0
LINE
  8
0
 10
-346.6
 20
116.5
 11
-351.7
 21
116.5
  0
LINE
  8
0
 10
-351.7
 20
116.5
 11
-351.7
 21
101.5
  0
LINE
  8
0
 10
-351.7
 20
101.5
 11
-346.6
 21
101.5
  0
LINE
  8
0
 10
-346.6
 20
101.5
 11
-346.6
 21
7.5
  0
LINE
  8
0
 10
-346.6
 20
7.5
 11
-351.7
 21
7.5
  0
LINE
  8
0
 10
-351.7
 20
7.5
 11
-351.7
 21
-7.5
  0
LINE
  8
0
 10
-351.7
 20
-7.5
 11
-346.6
 21
-7.5
  0
LINE
  8
0
 10
-346.6
 20
-7.5
 11
-346.6
 21
-101.5
  0
LINE
  8
0
 10
-346.6
 20
-101.5
 11
-351.7
 21
-101.5
  0
LINE
  8
0
 10
-351.7
 20
-101.5
 11
-351.7
 21
-116.5
  0
LINE
  8
0
 10
-351.7
 20
-116.5
 11
-346.6
 21
-116.5
  0
LINE
  8
0
 10
-346.6
 20
-116.5
 11
-346.6
 21
-171
  0
LINE
  8
0
 10
-346.6
 20
-171
 11
-321.6
 21
-171
  0
LINE
  8
0
 10
-321.6
 20
-171
 11
-321.6
 21
171
  0
LINE
  8
0
 10
-252.4
 20
171
 11
-277.4
 21
171
  0
LINE
  8
0
 10
-277.4
 20
171
 11
-277.4
 21
116.5
  0
LINE
  8
0
 10
-277.4
 20
116.5
 11
-282.5
 21
116.5
  0
LINE
  8
0
 10
-282.5
 20
116.5
 11
-282.5
 21
101.5
  0
LINE
  8
0
 10
-282.5
 20
101.5
 11
-277.4
 21
101.5
  0
LINE
  8
0
 10
-277.4
 20
101.5
 11
-277.4
 21
7.5
  0
LINE
  8
0
 10
-277.4
 20
7.5
 11
-282.5
 21
7.5
  0
LINE
  8
0
 10
-282.5
 20
7.5
 11
-282.5
 21
-7.5
  0
LINE
  8
0
 10
-282.5
 20
-7.5
 11
-277.4
 21
-7.5
  0
LINE
  8
0
 10
-277.4
 20
-7.5
 11
-277.4
 21
-101.5
  0
LINE
  8
0
 10
-277.4
 20
-101.5
 11
-282.5
 21
-101.5
  0
LINE
  8
0
 10
-282.5
 20
-101.5
 11
-282.5
 21
-116.5
  0
LINE
  8
0
 10
-282.5
 20
-116.5
 11
-277.4
 21
-116.5
  0
LINE
  8
0
 10
-277.4
 20
-116.5
 11
-277.4
 21
-171
  0
LINE
  8
0
 10
-277.4
 20
-171
 11
-252.4
 21
-171
  0
LINE
  8
0
 10
-252.4
 20
-171
 11
-252.4
 21
171
  0
LINE
  8
0
 10
-217.8
 20
171
 11
-242.8
 21
171
  0
LINE
  8
0
 10
-242.8
 20
171
 11
-242.8
 21
116.5
  0
LINE
  8
0
 10
-242.8
 20
116.5
 11
-247.9
 21
116.5
  0
LINE
  8
0
 10
-247.9
 20
116.5
 11
-247.9
 21
101.5
  0
LINE
  8
0
 10
-247.9
 20
101.5
 11
-242.8
 21
101.5
  0
LINE
  8
0
 10
-242.8
 20
101.5
 11
-242.8
 21
7.5
  0
LINE
  8
0
 10
-242.8
 20
7.5
 11
-247.9
 21
7.5
  0
LINE
  8
0
 10
-247.9
 20
7.5
 11
-247.9
 21
-7.5
  0
LINE
  8
0
 10
-247.9
 20
-7.5
 11
-242.8
 21
-7.5
  0
LINE
  8
0
 10
-242.8
 20
-7.5
 11
-242.8
 21
-101.5
  0
LINE
  8
0
 10
-242.8
 20
-101.5
 11
-247.9
 21
-101.5
  0
LINE
  8
0
 10
-247.9
 20
-101.5
 11
-247.9
 21
-116.5
  0
LINE
  8
0
 10
-247.9
 20
-116.5
 11
-242.8
 21
-116.5
  0
LINE
  8
0
 10
-242.8
 20
-116.5
 11
-242.8
 21
-171
  0
LINE
  8
0
 10
-242.8
 20
-171
 11
-217.8
 21
-171
  0
LINE
  8
0
 10
-217.8
 20
-171
 11
-217.8
 21
171
  0
LINE
  8
0
 10
-356.2
 20
171
 11
-381.2
 21
171
  0
LINE
  8
0
 10
-381.2
 20
171
 11
-381.2
 21
116.5
  0
LINE
  8
0
 10
-381.2
 20
116.5
 11
-386.3
 21
116.5
  0
LINE
  8
0
 10
-386.3
 20
116.5
 11
-386.3
 21
101.5
  0
LINE
  8
0
 10
-386.3
 20
101.5
 11
-381.2
 21
101.5
  0
LINE
  8
0
 10
-381.2
 20
101.5
 11
-381.2
 21
7.5
  0
LINE
  8
0
 10
-381.2
 20
7.5
 11
-386.3
 21
7.5
  0
LINE
  8
0
 10
-386.3
 20
7.5
 11
-386.3
 21
-7.5
  0
LINE
  8
0
 10
-386.3
 20
-7.5
 11
-381.2
 21
-7.5
  0
LINE
  8
0
 10
-381.2
 20
-7.5
 11
-381.2
 21
-101.5
  0
LINE
  8
0
 10
-381.2
 20
-101.5
 11
-386.3
 21
-101.5
  0
LINE
  8
0
 10
-386.3
 20
-101.5
 11
-386.3
 21
-116.5
  0
LINE
  8
0
 10
-386.3
 20
-116.5
 11
-381.2
 21
-116.5
  0
LINE
  8
0
 10
-381.2
 20
-116.5
 11
-381.2
 21
-171
  0
LINE
  8
0
 10
-381.2
 20
-171
 11
-356.2
 21
-171
  0
LINE
  8
0
 10
-356.2
 20
-171
 11
-356.2
 21
171
  0
LINE
  8
0
 10
-390.8
 20
171
 11
-415.8
 21
171
  0
LINE
  8
0
 10
-415.8
 20
171
 11
-415.8
 21
116.5
  0
LINE
  8
0
 10
-415.8
 20
116.5
 11
-420.9
 21
116.5
  0
LINE
  8
0
 10
-420.9
 20
116.5
 11
-420.9
 21
101.5
  0
LINE
  8
0
 10
-420.9
 20
101.5
 11
-415.8
 21
101.5
  0
LINE
  8
0
 10
-415.8
 20
101.5
 11
-415.8
 21
7.5
  0
LINE
  8
0
 10
-415.8
 20
7.5
 11
-420.9
 21
7.5
  0
LINE
  8
0
 10
-420.9
 20
7.5
 11
-420.9
 21
-7.5
  0
LINE
  8
0
 10
-420.9
 20
-7.5
 11
-415.8
 21
-7.5
  0
LINE
  8
0
 10
-415.8
 20
-7.5
 11
-415.8
 21
-101.5
  0
LINE
  8
0
 10
-415.8
 20
-101.5
 11
-420.9
 21
-101.5
  0
LINE
  8
0
 10
-420.9
 20
-101.5
 11
-420.9
 21
-116.5
  0
LINE
  8
0
 10
-420.9
 20
-116.5
 11
-415.8
 21
-116.5
  0
LINE
  8
0
 10
-415.8
 20
-116.5
 11
-415.8
 21
-171
  0
LINE
  8
0
 10
-415.8
 20
-171
 11
-390.8
 21
-171
  0
LINE
  8
0
 10
-390.8
 20
-171
 11
-390.8
 21
171
  0
LINE
  8
0
 10
-425.4
 20
171
 11
-450.4
 21
171
  0
LINE
  8
0
 10
-450.4
 20
171
 11
-450.4
 21
116.5
  0
LINE
  8
0
 10
-450.4
 20
116.5
 11
-455.5
 21
116.5
  0
LINE
  8
0
 10
-455.5
 20
116.5
 11
-455.5
 21
101.5
  0
LINE
  8
0
 10
-455.5
 20
101.5
 11
-450.4
 21
101.5
  0
LINE
  8
0
 10
-450.4
 20
101.5
 11
-450.4
 21
7.5
  0
LINE
  8
0
 10
-450.4
 20
7.5
 11
-455.5
 21
7.5
  0
LINE
  8
0
 10
-455.5
 20
7.5
 11
-455.5
 21
-7.5
  0
LINE
  8
0
 10
-455.5
 20
-7.5
 11
-450.4
 21
-7.5
  0
LINE
  8
0
 10
-450.4
 20
-7.5
 11
-450.4
 21
-101.5
  0
LINE
  8
0
 10
-450.4
 20
-101.5
 11
-455.5
 21
-101.5
  0
LINE
  8
0
 10
-455.5
 20
-101.5
 11
-455.5
 21
-116.5
  0
LINE
  8
0
 10
-455.5
 20
-116.5
 11
-450.4
 21
-116.5
  0
LINE
  8
0
 10
-450.4
 20
-116.5
 11
-450.4
 21
-171
  0
LINE
  8
0
 10
-450.4
 20
-171
 11
-425.4
 21
-171
  0
LINE
  8
0
 10
-425.4
 20
-171
 11
-425.4
 21
171
  0
LINE
  8
0
 10
-82.5
 20
196.95
 11
-82.5
 21
201.65
  0
LINE
  8
0
 10
-82.5
 20
201.65
 11
-67.3
 21
201.65
  0
LINE
  8
0
 10
-67.3
 20
201.65
 11
-67.3
 21
196.95
  0
LINE
  8
0
 10
-67.3
 20
196.95
 11
-82.5
 21
196.95
  0
LINE
  8
0
 10
-572.7
 20
196.95
 11
-572.7
 21
201.65
  0
LINE
  8
0
 10
-572.7
 20
201.65
 11
-557.5
 21
201.65
  0
LINE
  8
0
 10
-557.5
 20
201.65
 11
-557.5
 21
196.95
  0
LINE
  8
0
 10
-557.5
 20
196.95
 11
-572.7
 21
196.95
  0
LINE
  8
0
 10
-42.5
 20
196.95
 11
-42.5
 21
201.65
  0
LINE
  8
0
 10
-42.5
 20
201.65
 11
-27.3
 21
201.65
  0
LINE
  8
0
 10
-27.3
 20
201.65
 11
-27.3
 21
196.95
  0
LINE
  8
0
 10
-27.3
 20
196.95
 11
-42.5
 21
196.95
  0
LINE
  8
0
 10
-532.7
 20
196.95
 11
-532.7
 21
201.65
  0
LINE
  8
0
 10
-532.7
 20
201.65
 11
-517.5
 21
201.65
  0
LINE
  8
0
 10
-517.5
 20
201.65
 11
-517.5
 21
196.95
  0
LINE
  8
0
 10
-517.5
 20
196.95
 11
-532.7
 21
196.95
  0
LINE
  8
0
 10
-495.162
 20
191.838
 11
-491.838
 21
195.162
  0
LINE
  8
0
 10
-491.838
 20
195.162
 11
-483.353
 21
186.676
  0
LINE
  8
0
 10
-483.353
 20
186.676
 11
-486.676
 21
183.353
  0
LINE
  8
0
 10
-486.676
 20
183.353
 11
-495.162
 21
191.838
  0
LINE
  8
0
 10
-116.647
 20
186.676
 11
-108.162
 21
195.162
  0
LINE
  8
0
 10
-108.162
 20
195.162
 11
-104.838
 21
191.838
  0
LINE
  8
0
 10
-104.838
 20
191.838
 11
-113.324
 21
183.353
  0
LINE
  8
0
 10
-113.324
 20
183.353
 11
-116.647
 21
186.676
  0
LINE
  8
0
 10
-116.647
 20
-186.676
 11
-113.324
 21
-183.353
  0
LINE
  8
0
 10
-113.324
 20
-183.353
 11
-104.838
 21
-191.838
  0
LINE
  8
0
 10
-104.838
 20
-191.838
 11
-108.162
 21
-195.162
  0
LINE
  8
0
 10
-108.162
 20
-195.162
 11
-116.647
 21
-186.676
  0
LINE
  8
0
 10
-495.162
 20
-191.838
 11
-486.676
 21
-183.353
  0
LINE
  8
0
 10
-486.676
 20
-183.353
 11
-483.353
 21
-186.676
  0
LINE
  8
0
 10
-483.353
 20
-186.676
 11
-491.838
 21
-195.162
  0
LINE
  8
0
 10
-491.838
 20
-195.162
 11
-495.162
 21
-191.838
  0
LINE
  8
0
 10
-572.7
 20
-201.65
 11
-572.7
 21
-196.95
  0
LINE
  8
0
 10
-572.7
 20
-196.95
 11
-557.5
 21
-196.95
  0
LINE
  8
0
 10
-557.5
 20
-196.95
 11
-557.5
 21
-201.65
  0
LINE
  8
0
 10
-557.5
 20
-201.65
 11
-572.7
 21
-201.65
  0
LINE
  8
0
 10
-82.5
 20
-201.65
 11
-82.5
 21
-196.95
  0
LINE
  8
0
 10
-82.5
 20
-196.95
 11
-67.3
 21
-196.95
  0
LINE
  8
0
 10
-67.3
 20
-196.95
 11
-67.3
 21
-201.65
  0
LINE
  8
0
 10
-67.3
 20
-201.65
 11
-82.5
 21
-201.65
  0
LINE
  8
0
 10
-42.5
 20
-201.65
 11
-42.5
 21
-196.95
  0
LINE
  8
0
 10
-42.5
 20
-196.95
 11
-27.3
 21
-196.95
  0
LINE
  8
0
 10
-27.3
 20
-196.95
 11
-27.3
 21
-201.65
  0
LINE
  8
0
 10
-27.3
 20
-201.65
 11
-42.5
 21
-201.65
  0
LINE
  8
0
 10
-532.7
 20
-201.65
 11
-532.7
 21
-196.95
  0
LINE
  8
0
 10
-532.7
 20
-196.95
 11
-517.5
 21
-196.95
  0
LINE
  8
0
 10
-517.5
 20
-196.95
 11
-517.5
 21
-201.65
  0
LINE
  8
0
 10
-517.5
 20
-201.65
 11
-532.7
 21
-201.65
  0
LINE
  8
0
 10
-103.05
 20
-232.7
 11
-103.05
 21
-217.5
  0
LINE
  8
0
 10
-103.05
 20
-217.5
 11
-98.35
 21
-217.5
  0
LINE
  8
0
 10
-98.35
 20
-217.5
 11
-98.35
 21
-232.7
  0
LINE
  8
0
 10
-98.35
 20
-232.7
 11
-103.05
 21
-232.7
  0
LINE
  8
0
 10
-501.65
 20
-232.7
 11
-501.65
 21
-217.5
  0
LINE
  8
0
 10
-501.65
 20
-217.5
 11
-496.95
 21
-217.5
  0
LINE
  8
0
 10
-496.95
 20
-217.5
 11
-496.95
 21
-232.7
  0
LINE
  8
0
 10
-496.95
 20
-232.7
 11
-501.65
 21
-232.7
  0
LINE
  8
0
 10
-501.65
 20
-272.7
 11
-501.65
 21
-257.5
  0
LINE
  8
0
 10
-501.65
 20
-257.5
 11
-496.95
 21
-257.5
  0
LINE
  8
0
 10
-496.95
 20
-257.5
 11
-496.95
 21
-272.7
  0
LINE
  8
0
 10
-496.95
 20
-272.7
 11
-501.65
 21
-272.7
  0
LINE
  8
0
 10
-103.05
 20
-272.7
 11
-103.05
 21
-257.5
  0
LINE
  8
0
 10
-103.05
 20
-257.5
 11
-98.35
 21
-257.5
  0
LINE
  8
0
 10
-98.35
 20
-257.5
 11
-98.35
 21
-272.7
  0
LINE
  8
0
 10
-98.35
 20
-272.7
 11
-103.05
 21
-272.7
  0
LINE
  8
0
 10
-346.6
 20
-943
 11
-321.6
 21
-943
  0
LINE
  8
0
 10
-321.6
 20
-943
 11
-321.6
 21
-948.1
  0
LINE
  8
0
 10
-321.6
 20
-948.1
 11
-306.6
 21
-948.1
  0
LINE
  8
0
 10
-306.6
 20
-948.1
 11
-306.6
 21
-943
  0
LINE
  8
0
 10
-306.6
 20
-943
 11
-282.6
 21
-943
  0
LINE
  8
0
 10
-282.6
 20
-943
 11
-282.6
 21
-320
  0
LINE
  8
0
 10
-282.6
 20
-320
 11
-306.6
 21
-320
  0
LINE
  8
0
 10
-306.6
 20
-320
 11
-306.6
 21
-314.9
  0
LINE
  8
0
 10
-306.6
 20
-314.9
 11
-321.6
 21
-314.9
  0
LINE
  8
0
 10
-321.6
 20
-314.9
 11
-321.6
 21
-320
  0
LINE
  8
0
 10
-321.6
 20
-320
 11
-346.6
 21
-320
  0
LINE
  8
0
 10
-346.6
 20
-320
 11
-346.6
 21
-314.9
  0
LINE
  8
0
 10
-346.6
 20
-314.9
 11
-361.6
 21
-314.9
  0
LINE
  8
0
 10
-361.6
 20
-314.9
 11
-361.6
 21
-320
  0
LINE
  8
0
 10
-361.6
 20
-320
 11
-407.2
 21
-320
  0
LINE
  8
0
 10
-407.2
 20
-320
 11
-407.2
 21
-943
  0
LINE
  8
0
 10
-407.2
 20
-943
 11
-382.25
 21
-943
  0
LINE
  8
0
 10
-382.25
 20
-943
 11
-382.25
 21
-630.7
  0
LINE
  8
0
 10
-382.25
 20
-630.7
 11
-377.55
 21
-630.7
  0
LINE
  8
0
 10
-377.55
 20
-630.7
 11
-377.55
 21
-943
  0
LINE
  8
0
 10
-377.55
 20
-943
 11
-361.6
 21
-943
  0
LINE
  8
0
 10
-361.6
 20
-943
 11
-361.6
 21
-948.1
  0
LINE
  8
0
 10
-361.6
 20
-948.1
 11
-346.6
 21
-948.1
  0
LINE
  8
0
 10
-346.6
 20
-948.1
 11
-346.6
 21
-943
  0
LINE
  8
0
 10
171.8
 20
-943
 11
196.8
 21
-943
  0
LINE
  8
0
 10
196.8
 20
-943
 11
196.8
 21
-948.1
  0
LINE
  8
0
 10
196.8
 20
-948.1
 11
211.8
 21
-948.1
  0
LINE
  8
0
 10
211.8
 20
-948.1
 11
211.8
 21
-943
  0
LINE
  8
0
 10
211.8
 20
-943
 11
235.8
 21
-943
  0
LINE
  8
0
 10
235.8
 20
-943
 11
235.8
 21
-320
  0
LINE
  8
0
 10
235.8
 20
-320
 11
211.8
 21
-320
  0
LINE
  8
0
 10
211.8
 20
-320
 11
211.8
 21
-314.9
  0
LINE
  8
0
 10
211.8
 20
-314.9
 11
196.8
 21
-314.9
  0
LINE
  8
0
 10
196.8
 20
-314.9
 11
196.8
 21
-320
  0
LINE
  8
0
 10
196.8
 20
-320
 11
171.8
 21
-320
  0
LINE
  8
0
 10
171.8
 20
-320
 11
171.8
 21
-314.9
  0
LINE
  8
0
 10
171.8
 20
-314.9
 11
156.8
 21
-314.9
  0
LINE
  8
0
 10
156.8
 20
-314.9
 11
156.8
 21
-320
  0
LINE
  8
0
 10
156.8
 20
-320
 11
111.2
 21
-320
  0
LINE
  8
0
 10
111.2
 20
-320
 11
111.2
 21
-943
  0
LINE
  8
0
 10
111.2
 20
-943
 11
136.15
 21
-943
  0
LINE
  8
0
 10
136.15
 20
-943
 11
136.15
 21
-630.7
  0
LINE
  8
0
 10
136.15
 20
-630.7
 11
140.85
 21
-630.7
  0
LINE
  8
0
 10
140.85
 20
-630.7
 11
140.85
 21
-943
  0
LINE
  8
0
 10
140.85
 20
-943
 11
156.8
 21
-943
  0
LINE
  8
0
 10
156.8
 20
-943
 11
156.8
 21
-948.1
  0
LINE
  8
0
 10
156.8
 20
-948.1
 11
171.8
 21
-948.1
  0
LINE
  8
0
 10
171.8
 20
-948.1
 11
171.8
 21
-943
  0
LINE
  8
0
 10
-87.4
 20
-943
 11
-62.4
 21
-943
  0
LINE
  8
0
 10
-62.4
 20
-943
 11
-62.4
 21
-948.1
  0
LINE
  8
0
 10
-62.4
 20
-948.1
 11
-47.4
 21
-948.1
  0
LINE
  8
0
 10
-47.4
 20
-948.1
 11
-47.4
 21
-943
  0
LINE
  8
0
 10
-47.4
 20
-943
 11
-23.4
 21
-943
  0
LINE
  8
0
 10
-23.4
 20
-943
 11
-23.4
 21
-320
  0
LINE
  8
0
 10
-23.4
 20
-320
 11
-47.4
 21
-320
  0
LINE
  8
0
 10
-47.4
 20
-320
 11
-47.4
 21
-314.9
  0
LINE
  8
0
 10
-47.4
 20
-314.9
 11
-62.4
 21
-314.9
  0
LINE
  8
0
 10
-62.4
 20
-314.9
 11
-62.4
 21
-320
  0
LINE
  8
0
 10
-62.4
 20
-320
 11
-87.4
 21
-320
  0
LINE
  8
0
 10
-87.4
 20
-320
 11
-87.4
 21
-314.9
  0
LINE
  8
0
 10
-87.4
 20
-314.9
 11
-102.4
 21
-314.9
  0
LINE
  8
0
 10
-102.4
 20
-314.9
 11
-102.4
 21
-320
  0
LINE
  8
0
 10
-102.4
 20
-320
 11
-148
 21
-320
  0
LINE
  8
0
 10
-148
 20
-320
 11
-148
 21
-943
  0
LINE
  8
0
 10
-148
 20
-943
 11
-123.05
 21
-943
  0
LINE
  8
0
 10
-123.05
 20
-943
 11
-123.05
 21
-630.7
  0
LINE
  8
0
 10
-123.05
 20
-630.7
 11
-118.35
 21
-630.7
  0
LINE
  8
0
 10
-118.35
 20
-630.7
 11
-118.35
 21
-943
  0
LINE
  8
0
 10
-118.35
 20
-943
 11
-102.4
 21
-943
  0
LINE
  8
0
 10
-102.4
 20
-943
 11
-102.4
 21
-948.1
  0
LINE
  8
0
 10
-102.4
 20
-948.1
 11
-87.4
 21
-948.1
  0
LINE
  8
0
 10
-87.4
 20
-948.1
 11
-87.4
 21
-943
  0
LINE
  8
0
 10
-217
 20
-943
 11
-192
 21
-943
  0
LINE
  8
0
 10
-192
 20
-943
 11
-192
 21
-948.1
  0
LINE
  8
0
 10
-192
 20
-948.1
 11
-177
 21
-948.1
  0
LINE
  8
0
 10
-177
 20
-948.1
 11
-177
 21
-943
  0
LINE
  8
0
 10
-177
 20
-943
 11
-153
 21
-943
  0
LINE
  8
0
 10
-153
 20
-943
 11
-153
 21
-320
  0
LINE
  8
0
 10
-153
 20
-320
 11
-177
 21
-320
  0
LINE
  8
0
 10
-177
 20
-320
 11
-177
 21
-314.9
  0
LINE
  8
0
 10
-177
 20
-314.9
 11
-192
 21
-314.9
  0
LINE
  8
0
 10
-192
 20
-314.9
 11
-192
 21
-320
  0
LINE
  8
0
 10
-192
 20
-320
 11
-217
 21
-320
  0
LINE
  8
0
 10
-217
 20
-320
 11
-217
 21
-314.9
  0
LINE
  8
0
 10
-217
 20
-314.9
 11
-232
 21
-314.9
  0
LINE
  8
0
 10
-232
 20
-314.9
 11
-232
 21
-320
  0
LINE
  8
0
 10
-232
 20
-320
 11
-277.6
 21
-320
  0
LINE
  8
0
 10
-277.6
 20
-320
 11
-277.6
 21
-943
  0
LINE
  8
0
 10
-277.6
 20
-943
 11
-252.65
 21
-943
  0
LINE
  8
0
 10
-252.65
 20
-943
 11
-252.65
 21
-630.7
  0
LINE
  8
0
 10
-252.65
 20
-630.7
 11
-247.95
 21
-630.7
  0
LINE
  8
0
 10
-247.95
 20
-630.7
 11
-247.95
 21
-943
  0
LINE
  8
0
 10
-247.95
 20
-943
 11
-232
 21
-943
  0
LINE
  8
0
 10
-232
 20
-943
 11
-232
 21
-948.1
  0
LINE
  8
0
 10
-232
 20
-948.1
 11
-217
 21
-948.1
  0
LINE
  8
0
 10
-217
 20
-948.1
 11
-217
 21
-943
  0
LINE
  8
0
 10
42.2
 20
-943
 11
67.2
 21
-943
  0
LINE
  8
0
 10
67.2
 20
-943
 11
67.2
 21
-948.1
  0
LINE
  8
0
 10
67.2
 20
-948.1
 11
82.2
 21
-948.1
  0
LINE
  8
0
 10
82.2
 20
-948.1
 11
82.2
 21
-943
  0
LINE
  8
0
 10
82.2
 20
-943
 11
106.2
 21
-943
  0
LINE
  8
0
 10
106.2
 20
-943
 11
106.2
 21
-320
  0
LINE
  8
0
 10
106.2
 20
-320
 11
82.2
 21
-320
  0
LINE
  8
0
 10
82.2
 20
-320
 11
82.2
 21
-314.9
  0
LINE
  8
0
 10
82.2
 20
-314.9
 11
67.2
 21
-314.9
  0
LINE
  8
0
 10
67.2
 20
-314.9
 11
67.2
 21
-320
  0
LINE
  8
0
 10
67.2
 20
-320
 11
42.2
 21
-320
  0
LINE
  8
0
 10
42.2
 20
-320
 11
42.2
 21
-314.9
  0
LINE
  8
0
 10
42.2
 20
-314.9
 11
27.2
 21
-314.9
  0
LINE
  8
0
 10
27.2
 20
-314.9
 11
27.2
 21
-320
  0
LINE
  8
0
 10
27.2
 20
-320
 11
-18.4
 21
-320
  0
LINE
  8
0
 10
-18.4
 20
-320
 11
-18.4
 21
-943
  0
LINE
  8
0
 10
-18.4
 20
-943
 11
6.55
 21
-943
  0
LINE
  8
0
 10
6.55
 20
-943
 11
6.55
 21
-630.7
  0
LINE
  8
0
 10
6.55
 20
-630.7
 11
11.25
 21
-630.7
  0
LINE
  8
0
 10
11.25
 20
-630.7
 11
11.25
 21
-943
  0
LINE
  8
0
 10
11.25
 20
-943
 11
27.2
 21
-943
  0
LINE
  8
0
 10
27.2
 20
-943
 11
27.2
 21
-948.1
  0
LINE
  8
0
 10
27.2
 20
-948.1
 11
42.2
 21
-948.1
  0
LINE
  8
0
 10
42.2
 20
-948.1
 11
42.2
 21
-943
  0
LINE
  8
0
 10
301.4
 20
-943
 11
326.4
 21
-943
  0
LINE
  8
0
 10
326.4
 20
-943
 11
326.4
 21
-948.1
  0
LINE
  8
0
 10
326.4
 20
-948.1
 11
341.4
 21
-948.1
  0
LINE
  8
0
 10
341.4
 20
-948.1
 11
341.4
 21
-943
  0
LINE
  8
0
 10
341.4
 20
-943
 11
365.4
 21
-943
  0
LINE
  8
0
 10
365.4
 20
-943
 11
365.4
 21
-320
  0
LINE
  8
0
 10
365.4
 20
-320
 11
341.4
 21
-320
  0
LINE
  8
0
 10
341.4
 20
-320
 11
341.4
 21
-314.9
  0
LINE
  8
0
 10
341.4
 20
-314.9
 11
326.4
 21
-314.9
  0
LINE
  8
0
 10
326.4
 20
-314.9
 11
326.4
 21
-320
  0
LINE
  8
0
 10
326.4
 20
-320
 11
301.4
 21
-320
  0
LINE
  8
0
 10
301.4
 20
-320
 11
301.4
 21
-314.9
  0
LINE
  8
0
 10
301.4
 20
-314.9
 11
286.4
 21
-314.9
  0
LINE
  8
0
 10
286.4
 20
-314.9
 11
286.4
 21
-320
  0
LINE
  8
0
 10
286.4
 20
-320
 11
240.8
 21
-320
  0
LINE
  8
0
 10
240.8
 20
-320
 11
240.8
 21
-943
  0
LINE
  8
0
 10
240.8
 20
-943
 11
265.75
 21
-943
  0
LINE
  8
0
 10
265.75
 20
-943
 11
265.75
 21
-630.7
  0
LINE
  8
0
 10
265.75
 20
-630.7
 11
270.45
 21
-630.7
  0
LINE
  8
0
 10
270.45
 20
-630.7
 11
270.45
 21
-943
  0
LINE
  8
0
 10
270.45
 20
-943
 11
286.4
 21
-943
  0
LINE
  8
0
 10
286.4
 20
-943
 11
286.4
 21
-948.1
  0
LINE
  8
0
 10
286.4
 20
-948.1
 11
301.4
 21
-948.1
  0
LINE
  8
0
 10
301.4
 20
-948.1
 11
301.4
 21
-943
  0
LINE
  8
0
 10
-476.2
 20
-943
 11
-451.2
 21
-943
  0
LINE
  8
0
 10
-451.2
 20
-943
 11
-451.2
 21
-948.1
  0
LINE
  8
0
 10
-451.2
 20
-948.1
 11
-436.2
 21
-948.1
  0
LINE
  8
0
 10
-436.2
 20
-948.1
 11
-436.2
 21
-943
  0
LINE
  8
0
 10
-436.2
 20
-943
 11
-412.2
 21
-943
  0
LINE
  8
0
 10
-412.2
 20
-943
 11
-412.2
 21
-320
  0
LINE
  8
0
 10
-412.2
 20
-320
 11
-436.2
 21
-320
  0
LINE
  8
0
 10
-436.2
 20
-320
 11
-436.2
 21
-314.9
  0
LINE
  8
0
 10
-436.2
 20
-314.9
 11
-451.2
 21
-314.9
  0
LINE
  8
0
 10
-451.2
 20
-314.9
 11
-451.2
 21
-320
  0
LINE
  8
0
 10
-451.2
 20
-320
 11
-476.2
 21
-320
  0
LINE
  8
0
 10
-476.2
 20
-320
 11
-476.2
 21
-314.9
  0
LINE
  8
0
 10
-476.2
 20
-314.9
 11
-491.2
 21
-314.9
  0
LINE
  8
0
 10
-491.2
 20
-314.9
 11
-491.2
 21
-320
  0
LINE
  8
0
 10
-491.2
 20
-320
 11
-536.8
 21
-320
  0
LINE
  8
0
 10
-536.8
 20
-320
 11
-536.8
 21
-943
  0
LINE
  8
0
 10
-536.8
 20
-943
 11
-511.85
 21
-943
  0
LINE
  8
0
 10
-511.85
 20
-943
 11
-511.85
 21
-630.7
  0
LINE
  8
0
 10
-511.85
 20
-630.7
 11
-507.15
 21
-630.7
  0
LINE
  8
0
 10
-507.15
 20
-630.7
 11
-507.15
 21
-943
  0
LINE
  8
0
 10
-507.15
 20
-943
 11
-491.2
 21
-943
  0
LINE
  8
0
 10
-491.2
 20
-943
 11
-491.2
 21
-948.1
  0
LINE
  8
0
 10
-491.2
 20
-948.1
 11
-476.2
 21
-948.1
  0
LINE
  8
0
 10
-476.2
 20
-948.1
 11
-476.2
 21
-943
  0
LINE
  8
0
 10
431
 20
-943
 11
456
 21
-943
  0
LINE
  8
0
 10
456
 20
-943
 11
456
 21
-948.1
  0
LINE
  8
0
 10
456
 20
-948.1
 11
471
 21
-948.1
  0
LINE
  8
0
 10
471
 20
-948.1
 11
471
 21
-943
  0
LINE
  8
0
 10
471
 20
-943
 11
495
 21
-943
  0
LINE
  8
0
 10
495
 20
-943
 11
495
 21
-320
  0
LINE
  8
0
 10
495
 20
-320
 11
471
 21
-320
  0
LINE
  8
0
 10
471
 20
-320
 11
471
 21
-314.9
  0
LINE
  8
0
 10
471
 20
-314.9
 11
456
 21
-314.9
  0
LINE
  8
0
 10
456
 20
-314.9
 11
456
 21
-320
  0
LINE
  8
0
 10
456
 20
-320
 11
431
 21
-320
  0
LINE
  8
0
 10
431
 20
-320
 11
431
 21
-314.9
  0
LINE
  8
0
 10
431
 20
-314.9
 11
416
 21
-314.9
  0
LINE
  8
0
 10
416
 20
-314.9
 11
416
 21
-320
  0
LINE
  8
0
 10
416
 20
-320
 11
370.4
 21
-320
  0
LINE
  8
0
 10
370.4
 20
-320
 11
370.4
 21
-943
  0
LINE
  8
0
 10
370.4
 20
-943
 11
395.35
 21
-943
  0
LINE
  8
0
 10
395.35
 20
-943
 11
395.35
 21
-630.7
  0
LINE
  8
0
 10
395.35
 20
-630.7
 11
400.05
 21
-630.7
  0
LINE
  8
0
 10
400.05
 20
-630.7
 11
400.05
 21
-943
  0
LINE
  8
0
 10
400.05
 20
-943
 11
416
 21
-943
  0
LINE
  8
0
 10
416
 20
-943
 11
416
 21
-948.1
  0
LINE
  8
0
 10
416
 20
-948.1
 11
431
 21
-948.1
  0
LINE
  8
0
 10
431
 20
-948.1
 11
431
 21
-943
  0
ENDSEC
  0
SECTION
  2
OBJECTS
  0
DICTIONARY
  0
ENDSEC
  0
EOF
