  0
SECTION
  2
BLOCKS
  0
ENDSEC
  0
SECTION
  2
ENTITIES
  0
LINE
  8
0
 10
512.43
 20
-296.98
 11
518.997
 21
-296.057
  0
LINE
  8
0
 10
518.997
 20
-296.057
 11
525.483
 21
-294.678
  0
LINE
  8
0
 10
525.483
 20
-294.678
 11
531.857
 21
-292.85
  0
LINE
  8
0
 10
531.857
 20
-292.85
 11
538.088
 21
-290.582
  0
LINE
  8
0
 10
538.088
 20
-290.582
 11
544.145
 21
-287.885
  0
LINE
  8
0
 10
544.145
 20
-287.885
 11
550
 21
-284.772
  0
LINE
  8
0
 10
550
 20
-284.772
 11
555.623
 21
-281.259
  0
LINE
  8
0
 10
555.623
 20
-281.259
 11
560.988
 21
-277.361
  0
LINE
  8
0
 10
560.988
 20
-277.361
 11
566.067
 21
-273.099
  0
LINE
  8
0
 10
566.067
 20
-273.099
 11
570.837
 21
-268.493
  0
LINE
  8
0
 10
570.837
 20
-268.493
 11
575.274
 21
-263.565
  0
LINE
  8
0
 10
575.274
 20
-263.565
 11
579.357
 21
-258.34
  0
LINE
  8
0
 10
579.357
 20
-258.34
 11
583.065
 21
-252.842
  0
LINE
  8
0
 10
583.065
 20
-252.842
 11
586.38
 21
-247.1
  0
LINE
  8
0
 10
586.38
 20
-247.1
 11
589.287
 21
-241.14
  0
LINE
  8
0
 10
589.287
 20
-241.14
 11
591.771
 21
-234.992
  0
LINE
  8
0
 10
591.771
 20
-234.992
 11
593.82
 21
-228.686
  0
LINE
  8
0
 10
593.82
 20
-228.686
 11
595.424
 21
-222.252
  0
LINE
  8
0
 10
595.424
 20
-222.252
 11
596.575
 21
-215.721
  0
LINE
  8
0
 10
596.575
 20
-215.721
 11
597.269
 21
-209.127
  0
LINE
  8
0
 10
597.269
 20
-209.127
 11
597.5
 21
-202.5
  0
LINE
  8
0
 10
597.5
 20
-202.5
 11
597.5
 21
202.5
  0
LINE
  8
0
 10
597.5
 20
202.5
 11
597.269
 21
209.127
  0
LINE
  8
0
 10
597.269
 20
209.127
 11
596.575
 21
215.721
  0
LINE
  8
0
 10
596.575
 20
215.721
 11
595.424
 21
222.252
  0
LINE
  8
0
 10
595.424
 20
222.252
 11
593.82
 21
228.686
  0
LINE
  8
0
 10
593.82
 20
228.686
 11
591.771
 21
234.992
  0
LINE
  8
0
 10
591.771
 20
234.992
 11
589.287
 21
241.14
  0
LINE
  8
0
 10
589.287
 20
241.14
 11
586.38
 21
247.1
  0
LINE
  8
0
 10
586.38
 20
247.1
 11
583.065
 21
252.842
  0
LINE
  8
0
 10
583.065
 20
252.842
 11
579.357
 21
258.34
  0
LINE
  8
0
 10
579.357
 20
258.34
 11
575.274
 21
263.565
  0
LINE
  8
0
 10
575.274
 20
263.565
 11
570.837
 21
268.493
  0
LINE
  8
0
 10
570.837
 20
268.493
 11
566.067
 21
273.099
  0
LINE
  8
0
 10
566.067
 20
273.099
 11
560.988
 21
277.361
  0
LINE
  8
0
 10
560.988
 20
277.361
 11
555.623
 21
281.259
  0
LINE
  8
0
 10
555.623
 20
281.259
 11
550
 21
284.772
  0
LINE
  8
0
 10
550
 20
284.772
 11
544.145
 21
287.885
  0
LINE
  8
0
 10
544.145
 20
287.885
 11
538.088
 21
290.582
  0
LINE
  8
0
 10
538.088
 20
290.582
 11
531.857
 21
292.85
  0
LINE
  8
0
 10
531.857
 20
292.85
 11
525.483
 21
294.678
  0
LINE
  8
0
 10
525.483
 20
294.678
 11
518.997
 21
296.057
  0
LINE
  8
0
 10
518.997
 20
296.057
 11
512.43
 21
296.98
  0
LINE
  8
0
 10
512.43
 20
296.98
 11
505.815
 21
297.442
  0
LINE
  8
0
 10
505.815
 20
297.442
 11
94.1846
 21
297.442
  0
LINE
  8
0
 10
94.1846
 20
297.442
 11
87.5698
 21
296.98
  0
LINE
  8
0
 10
87.5698
 20
296.98
 11
81.0034
 21
296.057
  0
LINE
  8
0
 10
81.0034
 20
296.057
 11
74.5174
 21
294.678
  0
LINE
  8
0
 10
74.5174
 20
294.678
 11
68.1434
 21
292.85
  0
LINE
  8
0
 10
68.1434
 20
292.85
 11
61.9124
 21
290.582
  0
LINE
  8
0
 10
61.9124
 20
290.582
 11
55.8547
 21
287.885
  0
LINE
  8
0
 10
55.8547
 20
287.885
 11
50
 21
284.772
  0
LINE
  8
0
 10
50
 20
284.772
 11
44.3767
 21
281.259
  0
LINE
  8
0
 10
44.3767
 20
281.259
 11
39.0121
 21
277.361
  0
LINE
  8
0
 10
39.0121
 20
277.361
 11
33.9326
 21
273.099
  0
LINE
  8
0
 10
33.9326
 20
273.099
 11
29.1627
 21
268.493
  0
LINE
  8
0
 10
29.1627
 20
268.493
 11
24.7258
 21
263.565
  0
LINE
  8
0
 10
24.7258
 20
263.565
 11
20.6434
 21
258.34
  0
LINE
  8
0
 10
20.6434
 20
258.34
 11
16.9354
 21
252.842
  0
LINE
  8
0
 10
16.9354
 20
252.842
 11
13.62
 21
247.1
  0
LINE
  8
0
 10
13.62
 20
247.1
 11
10.7132
 21
241.14
  0
LINE
  8
0
 10
10.7132
 20
241.14
 11
8.22919
 21
234.992
  0
LINE
  8
0
 10
8.22919
 20
234.992
 11
6.18015
 21
228.686
  0
LINE
  8
0
 10
6.18015
 20
228.686
 11
4.57599
 21
222.252
  0
LINE
  8
0
 10
4.57599
 20
222.252
 11
3.42453
 21
215.721
  0
LINE
  8
0
 10
3.42453
 20
215.721
 11
2.73141
 21
209.127
  0
LINE
  8
0
 10
2.73141
 20
209.127
 11
2.5
 21
202.5
  0
LINE
  8
0
 10
2.5
 20
202.5
 11
2.5
 21
-202.5
  0
LINE
  8
0
 10
2.5
 20
-202.5
 11
2.73141
 21
-209.127
  0
LINE
  8
0
 10
2.73141
 20
-209.127
 11
3.42453
 21
-215.721
  0
LINE
  8
0
 10
3.42453
 20
-215.721
 11
4.57599
 21
-222.252
  0
LINE
  8
0
 10
4.57599
 20
-222.252
 11
6.18015
 21
-228.686
  0
LINE
  8
0
 10
6.18015
 20
-228.686
 11
8.22919
 21
-234.992
  0
LINE
  8
0
 10
8.22919
 20
-234.992
 11
10.7132
 21
-241.14
  0
LINE
  8
0
 10
10.7132
 20
-241.14
 11
13.62
 21
-247.1
  0
LINE
  8
0
 10
13.62
 20
-247.1
 11
16.9354
 21
-252.842
  0
LINE
  8
0
 10
16.9354
 20
-252.842
 11
20.6434
 21
-258.34
  0
LINE
  8
0
 10
20.6434
 20
-258.34
 11
24.7258
 21
-263.565
  0
LINE
  8
0
 10
24.7258
 20
-263.565
 11
29.1627
 21
-268.493
  0
LINE
  8
0
 10
29.1627
 20
-268.493
 11
33.9326
 21
-273.099
  0
LINE
  8
0
 10
33.9326
 20
-273.099
 11
39.0121
 21
-277.361
  0
LINE
  8
0
 10
39.0121
 20
-277.361
 11
44.3767
 21
-281.259
  0
LINE
  8
0
 10
44.3767
 20
-281.259
 11
50
 21
-284.772
  0
LINE
  8
0
 10
50
 20
-284.772
 11
55.8547
 21
-287.885
  0
LINE
  8
0
 10
55.8547
 20
-287.885
 11
61.9124
 21
-290.582
  0
LINE
  8
0
 10
61.9124
 20
-290.582
 11
68.1434
 21
-292.85
  0
LINE
  8
0
 10
68.1434
 20
-292.85
 11
74.5174
 21
-294.678
  0
LINE
  8
0
 10
74.5174
 20
-294.678
 11
81.0034
 21
-296.057
  0
LINE
  8
0
 10
81.0034
 20
-296.057
 11
87.5698
 21
-296.98
  0
LINE
  8
0
 10
87.5698
 20
-296.98
 11
94.1846
 21
-297.442
  0
LINE
  8
0
 10
94.1846
 20
-297.442
 11
505.815
 21
-297.442
  0
LINE
  8
0
 10
505.815
 20
-297.442
 11
512.43
 21
-296.98
  0
LINE
  8
0
 10
97.45
 20
258.4
 11
97.45
 21
273.6
  0
LINE
  8
0
 10
97.45
 20
273.6
 11
103.05
 21
273.6
  0
LINE
  8
0
 10
103.05
 20
273.6
 11
103.05
 21
258.4
  0
LINE
  8
0
 10
103.05
 20
258.4
 11
97.45
 21
258.4
  0
LINE
  8
0
 10
496.95
 20
258.4
 11
496.95
 21
273.6
  0
LINE
  8
0
 10
496.95
 20
273.6
 11
502.55
 21
273.6
  0
LINE
  8
0
 10
502.55
 20
273.6
 11
502.55
 21
258.4
  0
LINE
  8
0
 10
502.55
 20
258.4
 11
496.95
 21
258.4
  0
LINE
  8
0
 10
97.45
 20
218.4
 11
97.45
 21
233.6
  0
LINE
  8
0
 10
97.45
 20
233.6
 11
103.05
 21
233.6
  0
LINE
  8
0
 10
103.05
 20
233.6
 11
103.05
 21
218.4
  0
LINE
  8
0
 10
103.05
 20
218.4
 11
97.45
 21
218.4
  0
LINE
  8
0
 10
496.95
 20
218.4
 11
496.95
 21
233.6
  0
LINE
  8
0
 10
496.95
 20
233.6
 11
502.55
 21
233.6
  0
LINE
  8
0
 10
502.55
 20
233.6
 11
502.55
 21
218.4
  0
LINE
  8
0
 10
502.55
 20
218.4
 11
496.95
 21
218.4
  0
LINE
  8
0
 10
66.4
 20
196.95
 11
66.4
 21
202.55
  0
LINE
  8
0
 10
66.4
 20
202.55
 11
81.6
 21
202.55
  0
LINE
  8
0
 10
81.6
 20
202.55
 11
81.6
 21
196.95
  0
LINE
  8
0
 10
81.6
 20
196.95
 11
66.4
 21
196.95
  0
LINE
  8
0
 10
558.4
 20
196.95
 11
558.4
 21
202.55
  0
LINE
  8
0
 10
558.4
 20
202.55
 11
573.6
 21
202.55
  0
LINE
  8
0
 10
573.6
 20
202.55
 11
573.6
 21
196.95
  0
LINE
  8
0
 10
573.6
 20
196.95
 11
558.4
 21
196.95
  0
LINE
  8
0
 10
26.4
 20
196.95
 11
26.4
 21
202.55
  0
LINE
  8
0
 10
26.4
 20
202.55
 11
41.6
 21
202.55
  0
LINE
  8
0
 10
41.6
 20
202.55
 11
41.6
 21
196.95
  0
LINE
  8
0
 10
41.6
 20
196.95
 11
26.4
 21
196.95
  0
LINE
  8
0
 10
183.4
 20
196.95
 11
183.4
 21
202.55
  0
LINE
  8
0
 10
183.4
 20
202.55
 11
198.6
 21
202.55
  0
LINE
  8
0
 10
198.6
 20
202.55
 11
198.6
 21
196.95
  0
LINE
  8
0
 10
198.6
 20
196.95
 11
183.4
 21
196.95
  0
LINE
  8
0
 10
518.4
 20
196.95
 11
518.4
 21
202.55
  0
LINE
  8
0
 10
518.4
 20
202.55
 11
533.6
 21
202.55
  0
LINE
  8
0
 10
533.6
 20
202.55
 11
533.6
 21
196.95
  0
LINE
  8
0
 10
533.6
 20
196.95
 11
518.4
 21
196.95
  0
LINE
  8
0
 10
292.4
 20
196.95
 11
292.4
 21
202.55
  0
LINE
  8
0
 10
292.4
 20
202.55
 11
307.6
 21
202.55
  0
LINE
  8
0
 10
307.6
 20
202.55
 11
307.6
 21
196.95
  0
LINE
  8
0
 10
307.6
 20
196.95
 11
292.4
 21
196.95
  0
LINE
  8
0
 10
401.4
 20
196.95
 11
401.4
 21
202.55
  0
LINE
  8
0
 10
401.4
 20
202.55
 11
416.6
 21
202.55
  0
LINE
  8
0
 10
416.6
 20
202.55
 11
416.6
 21
196.95
  0
LINE
  8
0
 10
416.6
 20
196.95
 11
401.4
 21
196.95
  0
LINE
  8
0
 10
97.45
 20
101.4
 11
97.45
 21
116.6
  0
LINE
  8
0
 10
97.45
 20
116.6
 11
103.05
 21
116.6
  0
LINE
  8
0
 10
103.05
 20
116.6
 11
103.05
 21
101.4
  0
LINE
  8
0
 10
103.05
 20
101.4
 11
97.45
 21
101.4
  0
LINE
  8
0
 10
496.95
 20
101.4
 11
496.95
 21
116.6
  0
LINE
  8
0
 10
496.95
 20
116.6
 11
502.55
 21
116.6
  0
LINE
  8
0
 10
502.55
 20
116.6
 11
502.55
 21
101.4
  0
LINE
  8
0
 10
502.55
 20
101.4
 11
496.95
 21
101.4
  0
LINE
  8
0
 10
357.417
 20
61.3769
 11
365.902
 21
69.8622
  0
LINE
  8
0
 10
365.902
 20
69.8622
 11
369.862
 21
65.9023
  0
LINE
  8
0
 10
369.862
 20
65.9023
 11
361.377
 21
57.4171
  0
LINE
  8
0
 10
361.377
 20
57.4171
 11
357.417
 21
61.3769
  0
LINE
  8
0
 10
230.138
 20
65.9023
 11
234.098
 21
69.8622
  0
LINE
  8
0
 10
234.098
 20
69.8622
 11
242.583
 21
61.3769
  0
LINE
  8
0
 10
242.583
 20
61.3769
 11
238.623
 21
57.4171
  0
LINE
  8
0
 10
238.623
 20
57.4171
 11
230.138
 21
65.9023
  0
LINE
  8
0
 10
265.493
 20
30.547
 11
269.453
 21
34.5068
  0
LINE
  8
0
 10
269.453
 20
34.5068
 11
277.938
 21
26.0215
  0
LINE
  8
0
 10
277.938
 20
26.0215
 11
273.978
 21
22.0617
  0
LINE
  8
0
 10
273.978
 20
22.0617
 11
265.493
 21
30.547
  0
LINE
  8
0
 10
322.062
 20
26.0215
 11
330.547
 21
34.5068
  0
LINE
  8
0
 10
330.547
 20
34.5068
 11
334.507
 21
30.547
  0
LINE
  8
0
 10
334.507
 20
30.547
 11
326.022
 21
22.0617
  0
LINE
  8
0
 10
326.022
 20
22.0617
 11
322.062
 21
26.0215
  0
LINE
  8
0
 10
496.95
 20
-7.59999
 11
496.95
 21
7.59999
  0
LINE
  8
0
 10
496.95
 20
7.59999
 11
502.55
 21
7.59999
  0
LINE
  8
0
 10
502.55
 20
7.59999
 11
502.55
 21
-7.59999
  0
LINE
  8
0
 10
502.55
 20
-7.59999
 11
496.95
 21
-7.59999
  0
LINE
  8
0
 10
97.45
 20
-7.59999
 11
97.45
 21
7.59999
  0
LINE
  8
0
 10
97.45
 20
7.59999
 11
103.05
 21
7.59999
  0
LINE
  8
0
 10
103.05
 20
7.59999
 11
103.05
 21
-7.59999
  0
LINE
  8
0
 10
103.05
 20
-7.59999
 11
97.45
 21
-7.59999
  0
LINE
  8
0
 10
265.493
 20
-30.547
 11
273.978
 21
-22.0617
  0
LINE
  8
0
 10
273.978
 20
-22.0617
 11
277.938
 21
-26.0215
  0
LINE
  8
0
 10
277.938
 20
-26.0215
 11
269.453
 21
-34.5068
  0
LINE
  8
0
 10
269.453
 20
-34.5068
 11
265.493
 21
-30.547
  0
LINE
  8
0
 10
322.062
 20
-26.0215
 11
326.022
 21
-22.0617
  0
LINE
  8
0
 10
326.022
 20
-22.0617
 11
334.507
 21
-30.547
  0
LINE
  8
0
 10
334.507
 20
-30.547
 11
330.547
 21
-34.5068
  0
LINE
  8
0
 10
330.547
 20
-34.5068
 11
322.062
 21
-26.0215
  0
LINE
  8
0
 10
357.417
 20
-61.3769
 11
361.377
 21
-57.4171
  0
LINE
  8
0
 10
361.377
 20
-57.4171
 11
369.862
 21
-65.9023
  0
LINE
  8
0
 10
369.862
 20
-65.9023
 11
365.902
 21
-69.8622
  0
LINE
  8
0
 10
365.902
 20
-69.8622
 11
357.417
 21
-61.3769
  0
LINE
  8
0
 10
230.138
 20
-65.9023
 11
238.623
 21
-57.4171
  0
LINE
  8
0
 10
238.623
 20
-57.4171
 11
242.583
 21
-61.3769
  0
LINE
  8
0
 10
242.583
 20
-61.3769
 11
234.098
 21
-69.8622
  0
LINE
  8
0
 10
234.098
 20
-69.8622
 11
230.138
 21
-65.9023
  0
LINE
  8
0
 10
496.95
 20
-116.6
 11
496.95
 21
-101.4
  0
LINE
  8
0
 10
496.95
 20
-101.4
 11
502.55
 21
-101.4
  0
LINE
  8
0
 10
502.55
 20
-101.4
 11
502.55
 21
-116.6
  0
LINE
  8
0
 10
502.55
 20
-116.6
 11
496.95
 21
-116.6
  0
LINE
  8
0
 10
97.45
 20
-116.6
 11
97.45
 21
-101.4
  0
LINE
  8
0
 10
97.45
 20
-101.4
 11
103.05
 21
-101.4
  0
LINE
  8
0
 10
103.05
 20
-101.4
 11
103.05
 21
-116.6
  0
LINE
  8
0
 10
103.05
 20
-116.6
 11
97.45
 21
-116.6
  0
LINE
  8
0
 10
26.4
 20
-202.55
 11
26.4
 21
-196.95
  0
LINE
  8
0
 10
26.4
 20
-196.95
 11
41.6
 21
-196.95
  0
LINE
  8
0
 10
41.6
 20
-196.95
 11
41.6
 21
-202.55
  0
LINE
  8
0
 10
41.6
 20
-202.55
 11
26.4
 21
-202.55
  0
LINE
  8
0
 10
183.4
 20
-202.55
 11
183.4
 21
-196.95
  0
LINE
  8
0
 10
183.4
 20
-196.95
 11
198.6
 21
-196.95
  0
LINE
  8
0
 10
198.6
 20
-196.95
 11
198.6
 21
-202.55
  0
LINE
  8
0
 10
198.6
 20
-202.55
 11
183.4
 21
-202.55
  0
LINE
  8
0
 10
292.4
 20
-202.55
 11
292.4
 21
-196.95
  0
LINE
  8
0
 10
292.4
 20
-196.95
 11
307.6
 21
-196.95
  0
LINE
  8
0
 10
307.6
 20
-196.95
 11
307.6
 21
-202.55
  0
LINE
  8
0
 10
307.6
 20
-202.55
 11
292.4
 21
-202.55
  0
LINE
  8
0
 10
66.4
 20
-202.55
 11
66.4
 21
-196.95
  0
LINE
  8
0
 10
66.4
 20
-196.95
 11
81.6
 21
-196.95
  0
LINE
  8
0
 10
81.6
 20
-196.95
 11
81.6
 21
-202.55
  0
LINE
  8
0
 10
81.6
 20
-202.55
 11
66.4
 21
-202.55
  0
LINE
  8
0
 10
558.4
 20
-202.55
 11
558.4
 21
-196.95
  0
LINE
  8
0
 10
558.4
 20
-196.95
 11
573.6
 21
-196.95
  0
LINE
  8
0
 10
573.6
 20
-196.95
 11
573.6
 21
-202.55
  0
LINE
  8
0
 10
573.6
 20
-202.55
 11
558.4
 21
-202.55
  0
LINE
  8
0
 10
518.4
 20
-202.55
 11
518.4
 21
-196.95
  0
LINE
  8
0
 10
518.4
 20
-196.95
 11
533.6
 21
-196.95
  0
LINE
  8
0
 10
533.6
 20
-196.95
 11
533.6
 21
-202.55
  0
LINE
  8
0
 10
533.6
 20
-202.55
 11
518.4
 21
-202.55
  0
LINE
  8
0
 10
401.4
 20
-202.55
 11
401.4
 21
-196.95
  0
LINE
  8
0
 10
401.4
 20
-196.95
 11
416.6
 21
-196.95
  0
LINE
  8
0
 10
416.6
 20
-196.95
 11
416.6
 21
-202.55
  0
LINE
  8
0
 10
416.6
 20
-202.55
 11
401.4
 21
-202.55
  0
LINE
  8
0
 10
97.45
 20
-233.6
 11
97.45
 21
-218.4
  0
LINE
  8
0
 10
97.45
 20
-218.4
 11
103.05
 21
-218.4
  0
LINE
  8
0
 10
103.05
 20
-218.4
 11
103.05
 21
-233.6
  0
LINE
  8
0
 10
103.05
 20
-233.6
 11
97.45
 21
-233.6
  0
LINE
  8
0
 10
496.95
 20
-233.6
 11
496.95
 21
-218.4
  0
LINE
  8
0
 10
496.95
 20
-218.4
 11
502.55
 21
-218.4
  0
LINE
  8
0
 10
502.55
 20
-218.4
 11
502.55
 21
-233.6
  0
LINE
  8
0
 10
502.55
 20
-233.6
 11
496.95
 21
-233.6
  0
LINE
  8
0
 10
496.95
 20
-273.6
 11
496.95
 21
-258.4
  0
LINE
  8
0
 10
496.95
 20
-258.4
 11
502.55
 21
-258.4
  0
LINE
  8
0
 10
502.55
 20
-258.4
 11
502.55
 21
-273.6
  0
LINE
  8
0
 10
502.55
 20
-273.6
 11
496.95
 21
-273.6
  0
LINE
  8
0
 10
97.45
 20
-273.6
 11
97.45
 21
-258.4
  0
LINE
  8
0
 10
97.45
 20
-258.4
 11
103.05
 21
-258.4
  0
LINE
  8
0
 10
103.05
 20
-258.4
 11
103.05
 21
-273.6
  0
LINE
  8
0
 10
103.05
 20
-273.6
 11
97.45
 21
-273.6
  0
LINE
  8
0
 10
-87.5698
 20
-296.98
 11
-81.0034
 21
-296.057
  0
LINE
  8
0
 10
-81.0034
 20
-296.057
 11
-74.5174
 21
-294.678
  0
LINE
  8
0
 10
-74.5174
 20
-294.678
 11
-68.1434
 21
-292.85
  0
LINE
  8
0
 10
-68.1434
 20
-292.85
 11
-61.9124
 21
-290.582
  0
LINE
  8
0
 10
-61.9124
 20
-290.582
 11
-55.8547
 21
-287.885
  0
LINE
  8
0
 10
-55.8547
 20
-287.885
 11
-50
 21
-284.772
  0
LINE
  8
0
 10
-50
 20
-284.772
 11
-44.3767
 21
-281.259
  0
LINE
  8
0
 10
-44.3767
 20
-281.259
 11
-39.0121
 21
-277.361
  0
LINE
  8
0
 10
-39.0121
 20
-277.361
 11
-33.9326
 21
-273.099
  0
LINE
  8
0
 10
-33.9326
 20
-273.099
 11
-29.1627
 21
-268.493
  0
LINE
  8
0
 10
-29.1627
 20
-268.493
 11
-24.7258
 21
-263.565
  0
LINE
  8
0
 10
-24.7258
 20
-263.565
 11
-20.6434
 21
-258.34
  0
LINE
  8
0
 10
-20.6434
 20
-258.34
 11
-16.9354
 21
-252.842
  0
LINE
  8
0
 10
-16.9354
 20
-252.842
 11
-13.62
 21
-247.1
  0
LINE
  8
0
 10
-13.62
 20
-247.1
 11
-10.7132
 21
-241.14
  0
LINE
  8
0
 10
-10.7132
 20
-241.14
 11
-8.22919
 21
-234.992
  0
LINE
  8
0
 10
-8.22919
 20
-234.992
 11
-6.18015
 21
-228.686
  0
LINE
  8
0
 10
-6.18015
 20
-228.686
 11
-4.57599
 21
-222.252
  0
LINE
  8
0
 10
-4.57599
 20
-222.252
 11
-3.42453
 21
-215.721
  0
LINE
  8
0
 10
-3.42453
 20
-215.721
 11
-2.73141
 21
-209.127
  0
LINE
  8
0
 10
-2.73141
 20
-209.127
 11
-2.5
 21
-202.5
  0
LINE
  8
0
 10
-2.5
 20
-202.5
 11
-2.5
 21
202.5
  0
LINE
  8
0
 10
-2.5
 20
202.5
 11
-2.73141
 21
209.127
  0
LINE
  8
0
 10
-2.73141
 20
209.127
 11
-3.42453
 21
215.721
  0
LINE
  8
0
 10
-3.42453
 20
215.721
 11
-4.57599
 21
222.252
  0
LINE
  8
0
 10
-4.57599
 20
222.252
 11
-6.18015
 21
228.686
  0
LINE
  8
0
 10
-6.18015
 20
228.686
 11
-8.22919
 21
234.992
  0
LINE
  8
0
 10
-8.22919
 20
234.992
 11
-10.7132
 21
241.14
  0
LINE
  8
0
 10
-10.7132
 20
241.14
 11
-13.62
 21
247.1
  0
LINE
  8
0
 10
-13.62
 20
247.1
 11
-16.9354
 21
252.842
  0
LINE
  8
0
 10
-16.9354
 20
252.842
 11
-20.6434
 21
258.34
  0
LINE
  8
0
 10
-20.6434
 20
258.34
 11
-24.7258
 21
263.565
  0
LINE
  8
0
 10
-24.7258
 20
263.565
 11
-29.1627
 21
268.493
  0
LINE
  8
0
 10
-29.1627
 20
268.493
 11
-33.9326
 21
273.099
  0
LINE
  8
0
 10
-33.9326
 20
273.099
 11
-39.0121
 21
277.361
  0
LINE
  8
0
 10
-39.0121
 20
277.361
 11
-44.3767
 21
281.259
  0
LINE
  8
0
 10
-44.3767
 20
281.259
 11
-50
 21
284.772
  0
LINE
  8
0
 10
-50
 20
284.772
 11
-55.8547
 21
287.885
  0
LINE
  8
0
 10
-55.8547
 20
287.885
 11
-61.9124
 21
290.582
  0
LINE
  8
0
 10
-61.9124
 20
290.582
 11
-68.1434
 21
292.85
  0
LINE
  8
0
 10
-68.1434
 20
292.85
 11
-74.5174
 21
294.678
  0
LINE
  8
0
 10
-74.5174
 20
294.678
 11
-81.0034
 21
296.057
  0
LINE
  8
0
 10
-81.0034
 20
296.057
 11
-87.5698
 21
296.98
  0
LINE
  8
0
 10
-87.5698
 20
296.98
 11
-94.1846
 21
297.442
  0
LINE
  8
0
 10
-94.1846
 20
297.442
 11
-505.815
 21
297.442
  0
LINE
  8
0
 10
-505.815
 20
297.442
 11
-512.43
 21
296.98
  0
LINE
  8
0
 10
-512.43
 20
296.98
 11
-518.997
 21
296.057
  0
LINE
  8
0
 10
-518.997
 20
296.057
 11
-525.483
 21
294.678
  0
LINE
  8
0
 10
-525.483
 20
294.678
 11
-531.857
 21
292.85
  0
LINE
  8
0
 10
-531.857
 20
292.85
 11
-538.088
 21
290.582
  0
LINE
  8
0
 10
-538.088
 20
290.582
 11
-544.145
 21
287.885
  0
LINE
  8
0
 10
-544.145
 20
287.885
 11
-550
 21
284.772
  0
LINE
  8
0
 10
-550
 20
284.772
 11
-555.623
 21
281.259
  0
LINE
  8
0
 10
-555.623
 20
281.259
 11
-560.988
 21
277.361
  0
LINE
  8
0
 10
-560.988
 20
277.361
 11
-566.067
 21
273.099
  0
LINE
  8
0
 10
-566.067
 20
273.099
 11
-570.837
 21
268.493
  0
LINE
  8
0
 10
-570.837
 20
268.493
 11
-575.274
 21
263.565
  0
LINE
  8
0
 10
-575.274
 20
263.565
 11
-579.357
 21
258.34
  0
LINE
  8
0
 10
-579.357
 20
258.34
 11
-583.065
 21
252.842
  0
LINE
  8
0
 10
-583.065
 20
252.842
 11
-586.38
 21
247.1
  0
LINE
  8
0
 10
-586.38
 20
247.1
 11
-589.287
 21
241.14
  0
LINE
  8
0
 10
-589.287
 20
241.14
 11
-591.771
 21
234.992
  0
LINE
  8
0
 10
-591.771
 20
234.992
 11
-593.82
 21
228.686
  0
LINE
  8
0
 10
-593.82
 20
228.686
 11
-595.424
 21
222.252
  0
LINE
  8
0
 10
-595.424
 20
222.252
 11
-596.575
 21
215.721
  0
LINE
  8
0
 10
-596.575
 20
215.721
 11
-597.269
 21
209.127
  0
LINE
  8
0
 10
-597.269
 20
209.127
 11
-597.5
 21
202.5
  0
LINE
  8
0
 10
-597.5
 20
202.5
 11
-597.5
 21
-202.5
  0
LINE
  8
0
 10
-597.5
 20
-202.5
 11
-597.269
 21
-209.127
  0
LINE
  8
0
 10
-597.269
 20
-209.127
 11
-596.575
 21
-215.721
  0
LINE
  8
0
 10
-596.575
 20
-215.721
 11
-595.424
 21
-222.252
  0
LINE
  8
0
 10
-595.424
 20
-222.252
 11
-593.82
 21
-228.686
  0
LINE
  8
0
 10
-593.82
 20
-228.686
 11
-591.771
 21
-234.992
  0
LINE
  8
0
 10
-591.771
 20
-234.992
 11
-589.287
 21
-241.14
  0
LINE
  8
0
 10
-589.287
 20
-241.14
 11
-586.38
 21
-247.1
  0
LINE
  8
0
 10
-586.38
 20
-247.1
 11
-583.065
 21
-252.842
  0
LINE
  8
0
 10
-583.065
 20
-252.842
 11
-579.357
 21
-258.34
  0
LINE
  8
0
 10
-579.357
 20
-258.34
 11
-575.274
 21
-263.565
  0
LINE
  8
0
 10
-575.274
 20
-263.565
 11
-570.837
 21
-268.493
  0
LINE
  8
0
 10
-570.837
 20
-268.493
 11
-566.067
 21
-273.099
  0
LINE
  8
0
 10
-566.067
 20
-273.099
 11
-560.988
 21
-277.361
  0
LINE
  8
0
 10
-560.988
 20
-277.361
 11
-555.623
 21
-281.259
  0
LINE
  8
0
 10
-555.623
 20
-281.259
 11
-550
 21
-284.772
  0
LINE
  8
0
 10
-550
 20
-284.772
 11
-544.145
 21
-287.885
  0
LINE
  8
0
 10
-544.145
 20
-287.885
 11
-538.088
 21
-290.582
  0
LINE
  8
0
 10
-538.088
 20
-290.582
 11
-531.857
 21
-292.85
  0
LINE
  8
0
 10
-531.857
 20
-292.85
 11
-525.483
 21
-294.678
  0
LINE
  8
0
 10
-525.483
 20
-294.678
 11
-518.997
 21
-296.057
  0
LINE
  8
0
 10
-518.997
 20
-296.057
 11
-512.43
 21
-296.98
  0
LINE
  8
0
 10
-512.43
 20
-296.98
 11
-505.815
 21
-297.442
  0
LINE
  8
0
 10
-505.815
 20
-297.442
 11
-94.1846
 21
-297.442
  0
LINE
  8
0
 10
-94.1846
 20
-297.442
 11
-87.5698
 21
-296.98
  0
LINE
  8
0
 10
-302.8
 20
261.65
 11
-302.8
 21
273.65
  0
LINE
  8
0
 10
-302.8
 20
273.65
 11
-297.2
 21
273.65
  0
LINE
  8
0
 10
-297.2
 20
273.65
 11
-297.2
 21
261.65
  0
LINE
  8
0
 10
-297.2
 20
261.65
 11
-302.8
 21
261.65
  0
LINE
  8
0
 10
-502.55
 20
258.4
 11
-502.55
 21
273.6
  0
LINE
  8
0
 10
-502.55
 20
273.6
 11
-496.95
 21
273.6
  0
LINE
  8
0
 10
-496.95
 20
273.6
 11
-496.95
 21
258.4
  0
LINE
  8
0
 10
-496.95
 20
258.4
 11
-502.55
 21
258.4
  0
LINE
  8
0
 10
-103.05
 20
258.4
 11
-103.05
 21
273.6
  0
LINE
  8
0
 10
-103.05
 20
273.6
 11
-97.45
 21
273.6
  0
LINE
  8
0
 10
-97.45
 20
273.6
 11
-97.45
 21
258.4
  0
LINE
  8
0
 10
-97.45
 20
258.4
 11
-103.05
 21
258.4
  0
LINE
  8
0
 10
-502.55
 20
218.4
 11
-502.55
 21
233.6
  0
LINE
  8
0
 10
-502.55
 20
233.6
 11
-496.95
 21
233.6
  0
LINE
  8
0
 10
-496.95
 20
233.6
 11
-496.95
 21
218.4
  0
LINE
  8
0
 10
-496.95
 20
218.4
 11
-502.55
 21
218.4
  0
LINE
  8
0
 10
-103.05
 20
218.4
 11
-103.05
 21
233.6
  0
LINE
  8
0
 10
-103.05
 20
233.6
 11
-97.45
 21
233.6
  0
LINE
  8
0
 10
-97.45
 20
233.6
 11
-97.45
 21
218.4
  0
LINE
  8
0
 10
-97.45
 20
218.4
 11
-103.05
 21
218.4
  0
LINE
  8
0
 10
-416.6
 20
-202.55
 11
-416.6
 21
-197.213
  0
LINE
  8
0
 10
-416.6
 20
-197.213
 11
-439.344
 21
-197.213
  0
LINE
  8
0
 10
-439.344
 20
-197.213
 11
-443.522
 21
-196.921
  0
LINE
  8
0
 10
-443.522
 20
-196.921
 11
-447.669
 21
-196.338
  0
LINE
  8
0
 10
-447.669
 20
-196.338
 11
-451.765
 21
-195.468
  0
LINE
  8
0
 10
-451.765
 20
-195.468
 11
-455.791
 21
-194.313
  0
LINE
  8
0
 10
-455.791
 20
-194.313
 11
-459.726
 21
-192.881
  0
LINE
  8
0
 10
-459.726
 20
-192.881
 11
-463.552
 21
-191.178
  0
LINE
  8
0
 10
-463.552
 20
-191.178
 11
-467.25
 21
-189.212
  0
LINE
  8
0
 10
-467.25
 20
-189.212
 11
-470.802
 21
-186.992
  0
LINE
  8
0
 10
-470.802
 20
-186.992
 11
-474.19
 21
-184.531
  0
LINE
  8
0
 10
-474.19
 20
-184.531
 11
-477.398
 21
-181.839
  0
LINE
  8
0
 10
-477.398
 20
-181.839
 11
-480.41
 21
-178.93
  0
LINE
  8
0
 10
-480.41
 20
-178.93
 11
-483.213
 21
-175.817
  0
LINE
  8
0
 10
-483.213
 20
-175.817
 11
-485.791
 21
-172.517
  0
LINE
  8
0
 10
-485.791
 20
-172.517
 11
-488.133
 21
-169.045
  0
LINE
  8
0
 10
-488.133
 20
-169.045
 11
-490.227
 21
-165.418
  0
LINE
  8
0
 10
-490.227
 20
-165.418
 11
-492.063
 21
-161.654
  0
LINE
  8
0
 10
-492.063
 20
-161.654
 11
-493.632
 21
-157.771
  0
LINE
  8
0
 10
-493.632
 20
-157.771
 11
-494.926
 21
-153.788
  0
LINE
  8
0
 10
-494.926
 20
-153.788
 11
-495.939
 21
-149.725
  0
LINE
  8
0
 10
-495.939
 20
-149.725
 11
-496.666
 21
-145.6
  0
LINE
  8
0
 10
-496.666
 20
-145.6
 11
-497.104
 21
-141.435
  0
LINE
  8
0
 10
-497.104
 20
-141.435
 11
-497.25
 21
-137.25
  0
LINE
  8
0
 10
-497.25
 20
-137.25
 11
-497.25
 21
-116.6
  0
LINE
  8
0
 10
-497.25
 20
-116.6
 11
-502.55
 21
-116.6
  0
LINE
  8
0
 10
-502.55
 20
-116.6
 11
-502.55
 21
-101.4
  0
LINE
  8
0
 10
-502.55
 20
-101.4
 11
-497.25
 21
-101.4
  0
LINE
  8
0
 10
-497.25
 20
-101.4
 11
-497.25
 21
-7.59999
  0
LINE
  8
0
 10
-497.25
 20
-7.59999
 11
-502.55
 21
-7.59999
  0
LINE
  8
0
 10
-502.55
 20
-7.59999
 11
-502.55
 21
7.59999
  0
LINE
  8
0
 10
-502.55
 20
7.59999
 11
-497.25
 21
7.59999
  0
LINE
  8
0
 10
-497.25
 20
7.59999
 11
-497.25
 21
101.4
  0
LINE
  8
0
 10
-497.25
 20
101.4
 11
-502.55
 21
101.4
  0
LINE
  8
0
 10
-502.55
 20
101.4
 11
-502.55
 21
116.6
  0
LINE
  8
0
 10
-502.55
 20
116.6
 11
-497.25
 21
116.6
  0
LINE
  8
0
 10
-497.25
 20
116.6
 11
-497.25
 21
137.25
  0
LINE
  8
0
 10
-497.25
 20
137.25
 11
-497.104
 21
141.435
  0
LINE
  8
0
 10
-497.104
 20
141.435
 11
-496.666
 21
145.6
  0
LINE
  8
0
 10
-496.666
 20
145.6
 11
-495.939
 21
149.725
  0
LINE
  8
0
 10
-495.939
 20
149.725
 11
-494.926
 21
153.788
  0
LINE
  8
0
 10
-494.926
 20
153.788
 11
-493.632
 21
157.771
  0
LINE
  8
0
 10
-493.632
 20
157.771
 11
-492.063
 21
161.654
  0
LINE
  8
0
 10
-492.063
 20
161.654
 11
-490.227
 21
165.418
  0
LINE
  8
0
 10
-490.227
 20
165.418
 11
-488.133
 21
169.045
  0
LINE
  8
0
 10
-488.133
 20
169.045
 11
-485.791
 21
172.517
  0
LINE
  8
0
 10
-485.791
 20
172.517
 11
-483.213
 21
175.817
  0
LINE
  8
0
 10
-483.213
 20
175.817
 11
-480.41
 21
178.93
  0
LINE
  8
0
 10
-480.41
 20
178.93
 11
-477.398
 21
181.839
  0
LINE
  8
0
 10
-477.398
 20
181.839
 11
-474.19
 21
184.531
  0
LINE
  8
0
 10
-474.19
 20
184.531
 11
-470.802
 21
186.992
  0
LINE
  8
0
 10
-470.802
 20
186.992
 11
-467.25
 21
189.212
  0
LINE
  8
0
 10
-467.25
 20
189.212
 11
-463.552
 21
191.178
  0
LINE
  8
0
 10
-463.552
 20
191.178
 11
-459.726
 21
192.881
  0
LINE
  8
0
 10
-459.726
 20
192.881
 11
-455.791
 21
194.313
  0
LINE
  8
0
 10
-455.791
 20
194.313
 11
-451.765
 21
195.468
  0
LINE
  8
0
 10
-451.765
 20
195.468
 11
-447.669
 21
196.338
  0
LINE
  8
0
 10
-447.669
 20
196.338
 11
-443.522
 21
196.921
  0
LINE
  8
0
 10
-443.522
 20
196.921
 11
-439.344
 21
197.213
  0
LINE
  8
0
 10
-439.344
 20
197.213
 11
-416.6
 21
197.213
  0
LINE
  8
0
 10
-416.6
 20
197.213
 11
-416.6
 21
202.55
  0
LINE
  8
0
 10
-416.6
 20
202.55
 11
-401.4
 21
202.55
  0
LINE
  8
0
 10
-401.4
 20
202.55
 11
-401.4
 21
197.213
  0
LINE
  8
0
 10
-401.4
 20
197.213
 11
-307.6
 21
197.213
  0
LINE
  8
0
 10
-307.6
 20
197.213
 11
-307.6
 21
202.55
  0
LINE
  8
0
 10
-307.6
 20
202.55
 11
-292.4
 21
202.55
  0
LINE
  8
0
 10
-292.4
 20
202.55
 11
-292.4
 21
197.213
  0
LINE
  8
0
 10
-292.4
 20
197.213
 11
-198.6
 21
197.213
  0
LINE
  8
0
 10
-198.6
 20
197.213
 11
-198.6
 21
202.55
  0
LINE
  8
0
 10
-198.6
 20
202.55
 11
-183.4
 21
202.55
  0
LINE
  8
0
 10
-183.4
 20
202.55
 11
-183.4
 21
197.213
  0
LINE
  8
0
 10
-183.4
 20
197.213
 11
-160.656
 21
197.213
  0
LINE
  8
0
 10
-160.656
 20
197.213
 11
-156.478
 21
196.921
  0
LINE
  8
0
 10
-156.478
 20
196.921
 11
-152.331
 21
196.338
  0
LINE
  8
0
 10
-152.331
 20
196.338
 11
-148.235
 21
195.468
  0
LINE
  8
0
 10
-148.235
 20
195.468
 11
-144.209
 21
194.313
  0
LINE
  8
0
 10
-144.209
 20
194.313
 11
-140.274
 21
192.881
  0
LINE
  8
0
 10
-140.274
 20
192.881
 11
-136.448
 21
191.178
  0
LINE
  8
0
 10
-136.448
 20
191.178
 11
-132.75
 21
189.212
  0
LINE
  8
0
 10
-132.75
 20
189.212
 11
-129.198
 21
186.992
  0
LINE
  8
0
 10
-129.198
 20
186.992
 11
-125.81
 21
184.531
  0
LINE
  8
0
 10
-125.81
 20
184.531
 11
-122.602
 21
181.839
  0
LINE
  8
0
 10
-122.602
 20
181.839
 11
-119.59
 21
178.93
  0
LINE
  8
0
 10
-119.59
 20
178.93
 11
-116.787
 21
175.817
  0
LINE
  8
0
 10
-116.787
 20
175.817
 11
-114.209
 21
172.517
  0
LINE
  8
0
 10
-114.209
 20
172.517
 11
-111.867
 21
169.045
  0
LINE
  8
0
 10
-111.867
 20
169.045
 11
-109.773
 21
165.418
  0
LINE
  8
0
 10
-109.773
 20
165.418
 11
-107.937
 21
161.654
  0
LINE
  8
0
 10
-107.937
 20
161.654
 11
-106.368
 21
157.771
  0
LINE
  8
0
 10
-106.368
 20
157.771
 11
-105.074
 21
153.788
  0
LINE
  8
0
 10
-105.074
 20
153.788
 11
-104.061
 21
149.725
  0
LINE
  8
0
 10
-104.061
 20
149.725
 11
-103.334
 21
145.6
  0
LINE
  8
0
 10
-103.334
 20
145.6
 11
-102.896
 21
141.435
  0
LINE
  8
0
 10
-102.896
 20
141.435
 11
-102.75
 21
137.25
  0
LINE
  8
0
 10
-102.75
 20
137.25
 11
-102.75
 21
116.6
  0
LINE
  8
0
 10
-102.75
 20
116.6
 11
-97.45
 21
116.6
  0
LINE
  8
0
 10
-97.45
 20
116.6
 11
-97.45
 21
101.4
  0
LINE
  8
0
 10
-97.45
 20
101.4
 11
-102.75
 21
101.4
  0
LINE
  8
0
 10
-102.75
 20
101.4
 11
-102.75
 21
7.59999
  0
LINE
  8
0
 10
-102.75
 20
7.59999
 11
-97.45
 21
7.59999
  0
LINE
  8
0
 10
-97.45
 20
7.59999
 11
-97.45
 21
-7.59999
  0
LINE
  8
0
 10
-97.45
 20
-7.59999
 11
-102.75
 21
-7.59999
  0
LINE
  8
0
 10
-102.75
 20
-7.59999
 11
-102.75
 21
-101.4
  0
LINE
  8
0
 10
-102.75
 20
-101.4
 11
-97.45
 21
-101.4
  0
LINE
  8
0
 10
-97.45
 20
-101.4
 11
-97.45
 21
-116.6
  0
LINE
  8
0
 10
-97.45
 20
-116.6
 11
-102.75
 21
-116.6
  0
LINE
  8
0
 10
-102.75
 20
-116.6
 11
-102.75
 21
-137.25
  0
LINE
  8
0
 10
-102.75
 20
-137.25
 11
-102.896
 21
-141.435
  0
LINE
  8
0
 10
-102.896
 20
-141.435
 11
-103.334
 21
-145.6
  0
LINE
  8
0
 10
-103.334
 20
-145.6
 11
-104.061
 21
-149.725
  0
LINE
  8
0
 10
-104.061
 20
-149.725
 11
-105.074
 21
-153.788
  0
LINE
  8
0
 10
-105.074
 20
-153.788
 11
-106.368
 21
-157.771
  0
LINE
  8
0
 10
-106.368
 20
-157.771
 11
-107.937
 21
-161.654
  0
LINE
  8
0
 10
-107.937
 20
-161.654
 11
-109.773
 21
-165.418
  0
LINE
  8
0
 10
-109.773
 20
-165.418
 11
-111.867
 21
-169.045
  0
LINE
  8
0
 10
-111.867
 20
-169.045
 11
-114.209
 21
-172.517
  0
LINE
  8
0
 10
-114.209
 20
-172.517
 11
-116.787
 21
-175.817
  0
LINE
  8
0
 10
-116.787
 20
-175.817
 11
-119.59
 21
-178.93
  0
LINE
  8
0
 10
-119.59
 20
-178.93
 11
-122.602
 21
-181.839
  0
LINE
  8
0
 10
-122.602
 20
-181.839
 11
-125.81
 21
-184.531
  0
LINE
  8
0
 10
-125.81
 20
-184.531
 11
-129.198
 21
-186.992
  0
LINE
  8
0
 10
-129.198
 20
-186.992
 11
-132.75
 21
-189.212
  0
LINE
  8
0
 10
-132.75
 20
-189.212
 11
-136.448
 21
-191.178
  0
LINE
  8
0
 10
-136.448
 20
-191.178
 11
-140.274
 21
-192.881
  0
LINE
  8
0
 10
-140.274
 20
-192.881
 11
-144.209
 21
-194.313
  0
LINE
  8
0
 10
-144.209
 20
-194.313
 11
-148.235
 21
-195.468
  0
LINE
  8
0
 10
-148.235
 20
-195.468
 11
-152.331
 21
-196.338
  0
LINE
  8
0
 10
-152.331
 20
-196.338
 11
-156.478
 21
-196.921
  0
LINE
  8
0
 10
-156.478
 20
-196.921
 11
-160.656
 21
-197.213
  0
LINE
  8
0
 10
-160.656
 20
-197.213
 11
-183.4
 21
-197.213
  0
LINE
  8
0
 10
-183.4
 20
-197.213
 11
-183.4
 21
-202.55
  0
LINE
  8
0
 10
-183.4
 20
-202.55
 11
-198.6
 21
-202.55
  0
LINE
  8
0
 10
-198.6
 20
-202.55
 11
-198.6
 21
-197.213
  0
LINE
  8
0
 10
-198.6
 20
-197.213
 11
-292.4
 21
-197.213
  0
LINE
  8
0
 10
-292.4
 20
-197.213
 11
-292.4
 21
-202.55
  0
LINE
  8
0
 10
-292.4
 20
-202.55
 11
-307.6
 21
-202.55
  0
LINE
  8
0
 10
-307.6
 20
-202.55
 11
-307.6
 21
-197.213
  0
LINE
  8
0
 10
-307.6
 20
-197.213
 11
-401.4
 21
-197.213
  0
LINE
  8
0
 10
-401.4
 20
-197.213
 11
-401.4
 21
-202.55
  0
LINE
  8
0
 10
-401.4
 20
-202.55
 11
-416.6
 21
-202.55
  0
LINE
  8
0
 10
-460
 20
171
 11
-485
 21
171
  0
LINE
  8
0
 10
-485
 20
171
 11
-485
 21
116.5
  0
LINE
  8
0
 10
-485
 20
116.5
 11
-491
 21
116.5
  0
LINE
  8
0
 10
-491
 20
116.5
 11
-491
 21
101.5
  0
LINE
  8
0
 10
-491
 20
101.5
 11
-485
 21
101.5
  0
LINE
  8
0
 10
-485
 20
101.5
 11
-485
 21
7.5
  0
LINE
  8
0
 10
-485
 20
7.5
 11
-491
 21
7.5
  0
LINE
  8
0
 10
-491
 20
7.5
 11
-491
 21
-7.5
  0
LINE
  8
0
 10
-491
 20
-7.5
 11
-485
 21
-7.5
  0
LINE
  8
0
 10
-485
 20
-7.5
 11
-485
 21
-101.5
  0
LINE
  8
0
 10
-485
 20
-101.5
 11
-491
 21
-101.5
  0
LINE
  8
0
 10
-491
 20
-101.5
 11
-491
 21
-116.5
  0
LINE
  8
0
 10
-491
 20
-116.5
 11
-485
 21
-116.5
  0
LINE
  8
0
 10
-485
 20
-116.5
 11
-485
 21
-171
  0
LINE
  8
0
 10
-485
 20
-171
 11
-460
 21
-171
  0
LINE
  8
0
 10
-460
 20
-171
 11
-460
 21
171
  0
LINE
  8
0
 10
-211.5
 20
171
 11
-236.5
 21
171
  0
LINE
  8
0
 10
-236.5
 20
171
 11
-236.5
 21
116.5
  0
LINE
  8
0
 10
-236.5
 20
116.5
 11
-242.5
 21
116.5
  0
LINE
  8
0
 10
-242.5
 20
116.5
 11
-242.5
 21
101.5
  0
LINE
  8
0
 10
-242.5
 20
101.5
 11
-236.5
 21
101.5
  0
LINE
  8
0
 10
-236.5
 20
101.5
 11
-236.5
 21
7.5
  0
LINE
  8
0
 10
-236.5
 20
7.5
 11
-242.5
 21
7.5
  0
LINE
  8
0
 10
-242.5
 20
7.5
 11
-242.5
 21
-7.5
  0
LINE
  8
0
 10
-242.5
 20
-7.5
 11
-236.5
 21
-7.5
  0
LINE
  8
0
 10
-236.5
 20
-7.5
 11
-236.5
 21
-101.5
  0
LINE
  8
0
 10
-236.5
 20
-101.5
 11
-242.5
 21
-101.5
  0
LINE
  8
0
 10
-242.5
 20
-101.5
 11
-242.5
 21
-116.5
  0
LINE
  8
0
 10
-242.5
 20
-116.5
 11
-236.5
 21
-116.5
  0
LINE
  8
0
 10
-236.5
 20
-116.5
 11
-236.5
 21
-171
  0
LINE
  8
0
 10
-236.5
 20
-171
 11
-211.5
 21
-171
  0
LINE
  8
0
 10
-211.5
 20
-171
 11
-211.5
 21
171
  0
LINE
  8
0
 10
-247
 20
171
 11
-272
 21
171
  0
LINE
  8
0
 10
-272
 20
171
 11
-272
 21
116.5
  0
LINE
  8
0
 10
-272
 20
116.5
 11
-278
 21
116.5
  0
LINE
  8
0
 10
-278
 20
116.5
 11
-278
 21
101.5
  0
LINE
  8
0
 10
-278
 20
101.5
 11
-272
 21
101.5
  0
LINE
  8
0
 10
-272
 20
101.5
 11
-272
 21
7.5
  0
LINE
  8
0
 10
-272
 20
7.5
 11
-278
 21
7.5
  0
LINE
  8
0
 10
-278
 20
7.5
 11
-278
 21
-7.5
  0
LINE
  8
0
 10
-278
 20
-7.5
 11
-272
 21
-7.5
  0
LINE
  8
0
 10
-272
 20
-7.5
 11
-272
 21
-101.5
  0
LINE
  8
0
 10
-272
 20
-101.5
 11
-278
 21
-101.5
  0
LINE
  8
0
 10
-278
 20
-101.5
 11
-278
 21
-116.5
  0
LINE
  8
0
 10
-278
 20
-116.5
 11
-272
 21
-116.5
  0
LINE
  8
0
 10
-272
 20
-116.5
 11
-272
 21
-171
  0
LINE
  8
0
 10
-272
 20
-171
 11
-247
 21
-171
  0
LINE
  8
0
 10
-247
 20
-171
 11
-247
 21
171
  0
LINE
  8
0
 10
-282.5
 20
171
 11
-307.5
 21
171
  0
LINE
  8
0
 10
-307.5
 20
171
 11
-307.5
 21
116.5
  0
LINE
  8
0
 10
-307.5
 20
116.5
 11
-313.5
 21
116.5
  0
LINE
  8
0
 10
-313.5
 20
116.5
 11
-313.5
 21
101.5
  0
LINE
  8
0
 10
-313.5
 20
101.5
 11
-307.5
 21
101.5
  0
LINE
  8
0
 10
-307.5
 20
101.5
 11
-307.5
 21
7.5
  0
LINE
  8
0
 10
-307.5
 20
7.5
 11
-313.5
 21
7.5
  0
LINE
  8
0
 10
-313.5
 20
7.5
 11
-313.5
 21
-7.5
  0
LINE
  8
0
 10
-313.5
 20
-7.5
 11
-307.5
 21
-7.5
  0
LINE
  8
0
 10
-307.5
 20
-7.5
 11
-307.5
 21
-101.5
  0
LINE
  8
0
 10
-307.5
 20
-101.5
 11
-313.5
 21
-101.5
  0
LINE
  8
0
 10
-313.5
 20
-101.5
 11
-313.5
 21
-116.5
  0
LINE
  8
0
 10
-313.5
 20
-116.5
 11
-307.5
 21
-116.5
  0
LINE
  8
0
 10
-307.5
 20
-116.5
 11
-307.5
 21
-171
  0
LINE
  8
0
 10
-307.5
 20
-171
 11
-282.5
 21
-171
  0
LINE
  8
0
 10
-282.5
 20
-171
 11
-282.5
 21
171
  0
LINE
  8
0
 10
-318
 20
171
 11
-343
 21
171
  0
LINE
  8
0
 10
-343
 20
171
 11
-343
 21
116.5
  0
LINE
  8
0
 10
-343
 20
116.5
 11
-349
 21
116.5
  0
LINE
  8
0
 10
-349
 20
116.5
 11
-349
 21
101.5
  0
LINE
  8
0
 10
-349
 20
101.5
 11
-343
 21
101.5
  0
LINE
  8
0
 10
-343
 20
101.5
 11
-343
 21
7.5
  0
LINE
  8
0
 10
-343
 20
7.5
 11
-349
 21
7.5
  0
LINE
  8
0
 10
-349
 20
7.5
 11
-349
 21
-7.5
  0
LINE
  8
0
 10
-349
 20
-7.5
 11
-343
 21
-7.5
  0
LINE
  8
0
 10
-343
 20
-7.5
 11
-343
 21
-101.5
  0
LINE
  8
0
 10
-343
 20
-101.5
 11
-349
 21
-101.5
  0
LINE
  8
0
 10
-349
 20
-101.5
 11
-349
 21
-116.5
  0
LINE
  8
0
 10
-349
 20
-116.5
 11
-343
 21
-116.5
  0
LINE
  8
0
 10
-343
 20
-116.5
 11
-343
 21
-171
  0
LINE
  8
0
 10
-343
 20
-171
 11
-318
 21
-171
  0
LINE
  8
0
 10
-318
 20
-171
 11
-318
 21
171
  0
LINE
  8
0
 10
-353.5
 20
171
 11
-378.5
 21
171
  0
LINE
  8
0
 10
-378.5
 20
171
 11
-378.5
 21
116.5
  0
LINE
  8
0
 10
-378.5
 20
116.5
 11
-384.5
 21
116.5
  0
LINE
  8
0
 10
-384.5
 20
116.5
 11
-384.5
 21
101.5
  0
LINE
  8
0
 10
-384.5
 20
101.5
 11
-378.5
 21
101.5
  0
LINE
  8
0
 10
-378.5
 20
101.5
 11
-378.5
 21
7.5
  0
LINE
  8
0
 10
-378.5
 20
7.5
 11
-384.5
 21
7.5
  0
LINE
  8
0
 10
-384.5
 20
7.5
 11
-384.5
 21
-7.5
  0
LINE
  8
0
 10
-384.5
 20
-7.5
 11
-378.5
 21
-7.5
  0
LINE
  8
0
 10
-378.5
 20
-7.5
 11
-378.5
 21
-101.5
  0
LINE
  8
0
 10
-378.5
 20
-101.5
 11
-384.5
 21
-101.5
  0
LINE
  8
0
 10
-384.5
 20
-101.5
 11
-384.5
 21
-116.5
  0
LINE
  8
0
 10
-384.5
 20
-116.5
 11
-378.5
 21
-116.5
  0
LINE
  8
0
 10
-378.5
 20
-116.5
 11
-378.5
 21
-171
  0
LINE
  8
0
 10
-378.5
 20
-171
 11
-353.5
 21
-171
  0
LINE
  8
0
 10
-353.5
 20
-171
 11
-353.5
 21
171
  0
LINE
  8
0
 10
-389
 20
171
 11
-414
 21
171
  0
LINE
  8
0
 10
-414
 20
171
 11
-414
 21
116.5
  0
LINE
  8
0
 10
-414
 20
116.5
 11
-420
 21
116.5
  0
LINE
  8
0
 10
-420
 20
116.5
 11
-420
 21
101.5
  0
LINE
  8
0
 10
-420
 20
101.5
 11
-414
 21
101.5
  0
LINE
  8
0
 10
-414
 20
101.5
 11
-414
 21
7.5
  0
LINE
  8
0
 10
-414
 20
7.5
 11
-420
 21
7.5
  0
LINE
  8
0
 10
-420
 20
7.5
 11
-420
 21
-7.5
  0
LINE
  8
0
 10
-420
 20
-7.5
 11
-414
 21
-7.5
  0
LINE
  8
0
 10
-414
 20
-7.5
 11
-414
 21
-101.5
  0
LINE
  8
0
 10
-414
 20
-101.5
 11
-420
 21
-101.5
  0
LINE
  8
0
 10
-420
 20
-101.5
 11
-420
 21
-116.5
  0
LINE
  8
0
 10
-420
 20
-116.5
 11
-414
 21
-116.5
  0
LINE
  8
0
 10
-414
 20
-116.5
 11
-414
 21
-171
  0
LINE
  8
0
 10
-414
 20
-171
 11
-389
 21
-171
  0
LINE
  8
0
 10
-389
 20
-171
 11
-389
 21
171
  0
LINE
  8
0
 10
-424.5
 20
171
 11
-449.5
 21
171
  0
LINE
  8
0
 10
-449.5
 20
171
 11
-449.5
 21
116.5
  0
LINE
  8
0
 10
-449.5
 20
116.5
 11
-455.5
 21
116.5
  0
LINE
  8
0
 10
-455.5
 20
116.5
 11
-455.5
 21
101.5
  0
LINE
  8
0
 10
-455.5
 20
101.5
 11
-449.5
 21
101.5
  0
LINE
  8
0
 10
-449.5
 20
101.5
 11
-449.5
 21
7.5
  0
LINE
  8
0
 10
-449.5
 20
7.5
 11
-455.5
 21
7.5
  0
LINE
  8
0
 10
-455.5
 20
7.5
 11
-455.5
 21
-7.5
  0
LINE
  8
0
 10
-455.5
 20
-7.5
 11
-449.5
 21
-7.5
  0
LINE
  8
0
 10
-449.5
 20
-7.5
 11
-449.5
 21
-101.5
  0
LINE
  8
0
 10
-449.5
 20
-101.5
 11
-455.5
 21
-101.5
  0
LINE
  8
0
 10
-455.5
 20
-101.5
 11
-455.5
 21
-116.5
  0
LINE
  8
0
 10
-455.5
 20
-116.5
 11
-449.5
 21
-116.5
  0
LINE
  8
0
 10
-449.5
 20
-116.5
 11
-449.5
 21
-171
  0
LINE
  8
0
 10
-449.5
 20
-171
 11
-424.5
 21
-171
  0
LINE
  8
0
 10
-424.5
 20
-171
 11
-424.5
 21
171
  0
LINE
  8
0
 10
-533.6
 20
196.95
 11
-533.6
 21
202.55
  0
LINE
  8
0
 10
-533.6
 20
202.55
 11
-518.4
 21
202.55
  0
LINE
  8
0
 10
-518.4
 20
202.55
 11
-518.4
 21
196.95
  0
LINE
  8
0
 10
-518.4
 20
196.95
 11
-533.6
 21
196.95
  0
LINE
  8
0
 10
-573.6
 20
196.95
 11
-573.6
 21
202.55
  0
LINE
  8
0
 10
-573.6
 20
202.55
 11
-558.4
 21
202.55
  0
LINE
  8
0
 10
-558.4
 20
202.55
 11
-558.4
 21
196.95
  0
LINE
  8
0
 10
-558.4
 20
196.95
 11
-573.6
 21
196.95
  0
LINE
  8
0
 10
-41.6
 20
196.95
 11
-41.6
 21
202.55
  0
LINE
  8
0
 10
-41.6
 20
202.55
 11
-26.4
 21
202.55
  0
LINE
  8
0
 10
-26.4
 20
202.55
 11
-26.4
 21
196.95
  0
LINE
  8
0
 10
-26.4
 20
196.95
 11
-41.6
 21
196.95
  0
LINE
  8
0
 10
-81.6
 20
196.95
 11
-81.6
 21
202.55
  0
LINE
  8
0
 10
-81.6
 20
202.55
 11
-66.4
 21
202.55
  0
LINE
  8
0
 10
-66.4
 20
202.55
 11
-66.4
 21
196.95
  0
LINE
  8
0
 10
-66.4
 20
196.95
 11
-81.6
 21
196.95
  0
LINE
  8
0
 10
-573.65
 20
-2.79999
 11
-573.65
 21
2.79999
  0
LINE
  8
0
 10
-573.65
 20
2.79999
 11
-561.65
 21
2.79999
  0
LINE
  8
0
 10
-561.65
 20
2.79999
 11
-561.65
 21
-2.79999
  0
LINE
  8
0
 10
-561.65
 20
-2.79999
 11
-573.65
 21
-2.79999
  0
LINE
  8
0
 10
-38.3497
 20
-2.79999
 11
-38.3497
 21
2.79999
  0
LINE
  8
0
 10
-38.3497
 20
2.79999
 11
-26.3497
 21
2.79999
  0
LINE
  8
0
 10
-26.3497
 20
2.79999
 11
-26.3497
 21
-2.79999
  0
LINE
  8
0
 10
-26.3497
 20
-2.79999
 11
-38.3497
 21
-2.79999
  0
LINE
  8
0
 10
-573.6
 20
-202.55
 11
-573.6
 21
-196.95
  0
LINE
  8
0
 10
-573.6
 20
-196.95
 11
-558.4
 21
-196.95
  0
LINE
  8
0
 10
-558.4
 20
-196.95
 11
-558.4
 21
-202.55
  0
LINE
  8
0
 10
-558.4
 20
-202.55
 11
-573.6
 21
-202.55
  0
LINE
  8
0
 10
-41.6
 20
-202.55
 11
-41.6
 21
-196.95
  0
LINE
  8
0
 10
-41.6
 20
-196.95
 11
-26.4
 21
-196.95
  0
LINE
  8
0
 10
-26.4
 20
-196.95
 11
-26.4
 21
-202.55
  0
LINE
  8
0
 10
-26.4
 20
-202.55
 11
-41.6
 21
-202.55
  0
LINE
  8
0
 10
-533.6
 20
-202.55
 11
-533.6
 21
-196.95
  0
LINE
  8
0
 10
-533.6
 20
-196.95
 11
-518.4
 21
-196.95
  0
LINE
  8
0
 10
-518.4
 20
-196.95
 11
-518.4
 21
-202.55
  0
LINE
  8
0
 10
-518.4
 20
-202.55
 11
-533.6
 21
-202.55
  0
LINE
  8
0
 10
-81.6
 20
-202.55
 11
-81.6
 21
-196.95
  0
LINE
  8
0
 10
-81.6
 20
-196.95
 11
-66.4
 21
-196.95
  0
LINE
  8
0
 10
-66.4
 20
-196.95
 11
-66.4
 21
-202.55
  0
LINE
  8
0
 10
-66.4
 20
-202.55
 11
-81.6
 21
-202.55
  0
LINE
  8
0
 10
-502.55
 20
-233.6
 11
-502.55
 21
-218.4
  0
LINE
  8
0
 10
-502.55
 20
-218.4
 11
-496.95
 21
-218.4
  0
LINE
  8
0
 10
-496.95
 20
-218.4
 11
-496.95
 21
-233.6
  0
LINE
  8
0
 10
-496.95
 20
-233.6
 11
-502.55
 21
-233.6
  0
LINE
  8
0
 10
-103.05
 20
-233.6
 11
-103.05
 21
-218.4
  0
LINE
  8
0
 10
-103.05
 20
-218.4
 11
-97.45
 21
-218.4
  0
LINE
  8
0
 10
-97.45
 20
-218.4
 11
-97.45
 21
-233.6
  0
LINE
  8
0
 10
-97.45
 20
-233.6
 11
-103.05
 21
-233.6
  0
LINE
  8
0
 10
-103.05
 20
-273.6
 11
-103.05
 21
-258.4
  0
LINE
  8
0
 10
-103.05
 20
-258.4
 11
-97.45
 21
-258.4
  0
LINE
  8
0
 10
-97.45
 20
-258.4
 11
-97.45
 21
-273.6
  0
LINE
  8
0
 10
-97.45
 20
-273.6
 11
-103.05
 21
-273.6
  0
LINE
  8
0
 10
-502.55
 20
-273.6
 11
-502.55
 21
-258.4
  0
LINE
  8
0
 10
-502.55
 20
-258.4
 11
-496.95
 21
-258.4
  0
LINE
  8
0
 10
-496.95
 20
-258.4
 11
-496.95
 21
-273.6
  0
LINE
  8
0
 10
-496.95
 20
-273.6
 11
-502.55
 21
-273.6
  0
LINE
  8
0
 10
-302.8
 20
-273.65
 11
-302.8
 21
-261.65
  0
LINE
  8
0
 10
-302.8
 20
-261.65
 11
-297.2
 21
-261.65
  0
LINE
  8
0
 10
-297.2
 20
-261.65
 11
-297.2
 21
-273.65
  0
LINE
  8
0
 10
-297.2
 20
-273.65
 11
-302.8
 21
-273.65
  0
LINE
  8
0
 10
907.683
 20
-30.0974
 11
912.763
 21
-29.3834
  0
LINE
  8
0
 10
912.763
 20
-29.3834
 11
917.781
 21
-28.3167
  0
LINE
  8
0
 10
917.781
 20
-28.3167
 11
922.713
 21
-26.9026
  0
LINE
  8
0
 10
922.713
 20
-26.9026
 11
927.534
 21
-25.148
  0
LINE
  8
0
 10
927.534
 20
-25.148
 11
932.22
 21
-23.0614
  0
LINE
  8
0
 10
932.22
 20
-23.0614
 11
936.75
 21
-20.6529
  0
LINE
  8
0
 10
936.75
 20
-20.6529
 11
941.101
 21
-17.9342
  0
LINE
  8
0
 10
941.101
 20
-17.9342
 11
945.251
 21
-14.9188
  0
LINE
  8
0
 10
945.251
 20
-14.9188
 11
949.181
 21
-11.6211
  0
LINE
  8
0
 10
949.181
 20
-11.6211
 11
952.871
 21
-8.05739
  0
LINE
  8
0
 10
952.871
 20
-8.05739
 11
956.304
 21
-4.24489
  0
LINE
  8
0
 10
956.304
 20
-4.24489
 11
959.463
 21
-0.202209
  0
LINE
  8
0
 10
959.463
 20
-0.202209
 11
962.332
 21
4.05093
  0
LINE
  8
0
 10
962.332
 20
4.05093
 11
964.897
 21
8.49385
  0
LINE
  8
0
 10
964.897
 20
8.49385
 11
967.146
 21
13.1049
  0
LINE
  8
0
 10
967.146
 20
13.1049
 11
969.067
 21
17.8615
  0
LINE
  8
0
 10
969.067
 20
17.8615
 11
970.653
 21
22.7407
  0
LINE
  8
0
 10
970.653
 20
22.7407
 11
971.894
 21
27.7185
  0
LINE
  8
0
 10
971.894
 20
27.7185
 11
972.785
 21
32.7708
  0
LINE
  8
0
 10
972.785
 20
32.7708
 11
973.321
 21
37.8729
  0
LINE
  8
0
 10
973.321
 20
37.8729
 11
973.5
 21
43
  0
LINE
  8
0
 10
973.5
 20
43
 11
973.321
 21
48.1271
  0
LINE
  8
0
 10
973.321
 20
48.1271
 11
972.785
 21
53.2292
  0
LINE
  8
0
 10
972.785
 20
53.2292
 11
971.894
 21
58.2815
  0
LINE
  8
0
 10
971.894
 20
58.2815
 11
970.653
 21
63.2593
  0
LINE
  8
0
 10
970.653
 20
63.2593
 11
969.067
 21
68.1385
  0
LINE
  8
0
 10
969.067
 20
68.1385
 11
967.146
 21
72.8951
  0
LINE
  8
0
 10
967.146
 20
72.8951
 11
964.897
 21
77.5061
  0
LINE
  8
0
 10
964.897
 20
77.5061
 11
962.332
 21
81.9491
  0
LINE
  8
0
 10
962.332
 20
81.9491
 11
959.463
 21
86.2022
  0
LINE
  8
0
 10
959.463
 20
86.2022
 11
956.304
 21
90.2449
  0
LINE
  8
0
 10
956.304
 20
90.2449
 11
952.871
 21
94.0574
  0
LINE
  8
0
 10
952.871
 20
94.0574
 11
949.181
 21
97.6211
  0
LINE
  8
0
 10
949.181
 20
97.6211
 11
945.251
 21
100.919
  0
LINE
  8
0
 10
945.251
 20
100.919
 11
941.101
 21
103.934
  0
LINE
  8
0
 10
941.101
 20
103.934
 11
936.75
 21
106.653
  0
LINE
  8
0
 10
936.75
 20
106.653
 11
932.22
 21
109.061
  0
LINE
  8
0
 10
932.22
 20
109.061
 11
927.534
 21
111.148
  0
LINE
  8
0
 10
927.534
 20
111.148
 11
922.713
 21
112.903
  0
LINE
  8
0
 10
922.713
 20
112.903
 11
917.781
 21
114.317
  0
LINE
  8
0
 10
917.781
 20
114.317
 11
912.763
 21
115.383
  0
LINE
  8
0
 10
912.763
 20
115.383
 11
907.683
 21
116.097
  0
LINE
  8
0
 10
907.683
 20
116.097
 11
902.565
 21
116.455
  0
LINE
  8
0
 10
902.565
 20
116.455
 11
897.435
 21
116.455
  0
LINE
  8
0
 10
897.435
 20
116.455
 11
892.317
 21
116.097
  0
LINE
  8
0
 10
892.317
 20
116.097
 11
887.237
 21
115.383
  0
LINE
  8
0
 10
887.237
 20
115.383
 11
882.219
 21
114.317
  0
LINE
  8
0
 10
882.219
 20
114.317
 11
877.287
 21
112.903
  0
LINE
  8
0
 10
877.287
 20
112.903
 11
872.466
 21
111.148
  0
LINE
  8
0
 10
872.466
 20
111.148
 11
867.78
 21
109.061
  0
LINE
  8
0
 10
867.78
 20
109.061
 11
863.25
 21
106.653
  0
LINE
  8
0
 10
863.25
 20
106.653
 11
858.899
 21
103.934
  0
LINE
  8
0
 10
858.899
 20
103.934
 11
854.749
 21
100.919
  0
LINE
  8
0
 10
854.749
 20
100.919
 11
850.819
 21
97.6211
  0
LINE
  8
0
 10
850.819
 20
97.6211
 11
847.129
 21
94.0574
  0
LINE
  8
0
 10
847.129
 20
94.0574
 11
843.696
 21
90.2449
  0
LINE
  8
0
 10
843.696
 20
90.2449
 11
840.537
 21
86.2022
  0
LINE
  8
0
 10
840.537
 20
86.2022
 11
837.668
 21
81.9491
  0
LINE
  8
0
 10
837.668
 20
81.9491
 11
835.103
 21
77.5061
  0
LINE
  8
0
 10
835.103
 20
77.5061
 11
832.854
 21
72.8951
  0
LINE
  8
0
 10
832.854
 20
72.8951
 11
830.933
 21
68.1385
  0
LINE
  8
0
 10
830.933
 20
68.1385
 11
829.347
 21
63.2593
  0
LINE
  8
0
 10
829.347
 20
63.2593
 11
828.106
 21
58.2815
  0
LINE
  8
0
 10
828.106
 20
58.2815
 11
827.215
 21
53.2292
  0
LINE
  8
0
 10
827.215
 20
53.2292
 11
826.679
 21
48.1271
  0
LINE
  8
0
 10
826.679
 20
48.1271
 11
826.5
 21
43
  0
LINE
  8
0
 10
826.5
 20
43
 11
826.679
 21
37.8729
  0
LINE
  8
0
 10
826.679
 20
37.8729
 11
827.215
 21
32.7708
  0
LINE
  8
0
 10
827.215
 20
32.7708
 11
828.106
 21
27.7185
  0
LINE
  8
0
 10
828.106
 20
27.7185
 11
829.347
 21
22.7407
  0
LINE
  8
0
 10
829.347
 20
22.7407
 11
830.933
 21
17.8615
  0
LINE
  8
0
 10
830.933
 20
17.8615
 11
832.854
 21
13.1049
  0
LINE
  8
0
 10
832.854
 20
13.1049
 11
835.103
 21
8.49385
  0
LINE
  8
0
 10
835.103
 20
8.49385
 11
837.668
 21
4.05093
  0
LINE
  8
0
 10
837.668
 20
4.05093
 11
840.537
 21
-0.202209
  0
LINE
  8
0
 10
840.537
 20
-0.202209
 11
843.696
 21
-4.24489
  0
LINE
  8
0
 10
843.696
 20
-4.24489
 11
847.129
 21
-8.05739
  0
LINE
  8
0
 10
847.129
 20
-8.05739
 11
850.819
 21
-11.6211
  0
LINE
  8
0
 10
850.819
 20
-11.6211
 11
854.749
 21
-14.9188
  0
LINE
  8
0
 10
854.749
 20
-14.9188
 11
858.899
 21
-17.9342
  0
LINE
  8
0
 10
858.899
 20
-17.9342
 11
863.25
 21
-20.6529
  0
LINE
  8
0
 10
863.25
 20
-20.6529
 11
867.78
 21
-23.0614
  0
LINE
  8
0
 10
867.78
 20
-23.0614
 11
872.466
 21
-25.148
  0
LINE
  8
0
 10
872.466
 20
-25.148
 11
877.287
 21
-26.9026
  0
LINE
  8
0
 10
877.287
 20
-26.9026
 11
882.219
 21
-28.3167
  0
LINE
  8
0
 10
882.219
 20
-28.3167
 11
887.237
 21
-29.3834
  0
LINE
  8
0
 10
887.237
 20
-29.3834
 11
892.317
 21
-30.0974
  0
LINE
  8
0
 10
892.317
 20
-30.0974
 11
897.435
 21
-30.4552
  0
LINE
  8
0
 10
897.435
 20
-30.4552
 11
902.565
 21
-30.4552
  0
LINE
  8
0
 10
902.565
 20
-30.4552
 11
907.683
 21
-30.0974
  0
LINE
  8
0
 10
897.958
 20
-15.4644
 11
893.885
 21
-15.1795
  0
LINE
  8
0
 10
893.885
 20
-15.1795
 11
889.842
 21
-14.6113
  0
LINE
  8
0
 10
889.842
 20
-14.6113
 11
885.848
 21
-13.7623
  0
LINE
  8
0
 10
885.848
 20
-13.7623
 11
881.923
 21
-12.6368
  0
LINE
  8
0
 10
881.923
 20
-12.6368
 11
878.086
 21
-11.2402
  0
LINE
  8
0
 10
878.086
 20
-11.2402
 11
874.355
 21
-9.57945
  0
LINE
  8
0
 10
874.355
 20
-9.57945
 11
870.75
 21
-7.66248
  0
LINE
  8
0
 10
870.75
 20
-7.66248
 11
867.287
 21
-5.49869
  0
LINE
  8
0
 10
867.287
 20
-5.49869
 11
863.984
 21
-3.09862
  0
LINE
  8
0
 10
863.984
 20
-3.09862
 11
860.856
 21
-0.473969
  0
LINE
  8
0
 10
860.856
 20
-0.473969
 11
860.632
 21
-0.257446
  0
LINE
  8
0
 10
860.632
 20
-0.257446
 11
854.993
 21
-5.89642
  0
LINE
  8
0
 10
854.993
 20
-5.89642
 11
851.104
 21
-2.00734
  0
LINE
  8
0
 10
851.104
 20
-2.00734
 11
856.76
 21
3.64919
  0
LINE
  8
0
 10
856.76
 20
3.64919
 11
855.186
 21
5.39693
  0
LINE
  8
0
 10
855.186
 20
5.39693
 11
852.673
 21
8.61456
  0
LINE
  8
0
 10
852.673
 20
8.61456
 11
850.389
 21
11.9997
  0
LINE
  8
0
 10
850.389
 20
11.9997
 11
848.348
 21
15.5359
  0
LINE
  8
0
 10
848.348
 20
15.5359
 11
846.558
 21
19.2059
  0
LINE
  8
0
 10
846.558
 20
19.2059
 11
845.028
 21
22.9918
  0
LINE
  8
0
 10
845.028
 20
22.9918
 11
843.766
 21
26.8752
  0
LINE
  8
0
 10
843.766
 20
26.8752
 11
842.778
 21
30.8372
  0
LINE
  8
0
 10
842.778
 20
30.8372
 11
842.069
 21
34.8584
  0
LINE
  8
0
 10
842.069
 20
34.8584
 11
841.643
 21
38.9193
  0
LINE
  8
0
 10
841.643
 20
38.9193
 11
841.5
 21
43
  0
LINE
  8
0
 10
841.5
 20
43
 11
841.643
 21
47.0807
  0
LINE
  8
0
 10
841.643
 20
47.0807
 11
842.069
 21
51.1416
  0
LINE
  8
0
 10
842.069
 20
51.1416
 11
842.778
 21
55.1628
  0
LINE
  8
0
 10
842.778
 20
55.1628
 11
843.766
 21
59.1248
  0
LINE
  8
0
 10
843.766
 20
59.1248
 11
845.028
 21
63.0082
  0
LINE
  8
0
 10
845.028
 20
63.0082
 11
846.558
 21
66.7941
  0
LINE
  8
0
 10
846.558
 20
66.7941
 11
848.348
 21
70.4641
  0
LINE
  8
0
 10
848.348
 20
70.4641
 11
850.389
 21
74.0003
  0
LINE
  8
0
 10
850.389
 20
74.0003
 11
852.673
 21
77.3854
  0
LINE
  8
0
 10
852.673
 20
77.3854
 11
855.186
 21
80.6031
  0
LINE
  8
0
 10
855.186
 20
80.6031
 11
856.76
 21
82.3508
  0
LINE
  8
0
 10
856.76
 20
82.3508
 11
851.104
 21
88.0073
  0
LINE
  8
0
 10
851.104
 20
88.0073
 11
854.993
 21
91.8964
  0
LINE
  8
0
 10
854.993
 20
91.8964
 11
860.632
 21
86.2574
  0
LINE
  8
0
 10
860.632
 20
86.2574
 11
860.856
 21
86.474
  0
LINE
  8
0
 10
860.856
 20
86.474
 11
863.984
 21
89.0986
  0
LINE
  8
0
 10
863.984
 20
89.0986
 11
867.287
 21
91.4987
  0
LINE
  8
0
 10
867.287
 20
91.4987
 11
870.75
 21
93.6625
  0
LINE
  8
0
 10
870.75
 20
93.6625
 11
874.355
 21
95.5795
  0
LINE
  8
0
 10
874.355
 20
95.5795
 11
878.086
 21
97.2402
  0
LINE
  8
0
 10
878.086
 20
97.2402
 11
881.923
 21
98.6368
  0
LINE
  8
0
 10
881.923
 20
98.6368
 11
885.848
 21
99.7623
  0
LINE
  8
0
 10
885.848
 20
99.7623
 11
889.842
 21
100.611
  0
LINE
  8
0
 10
889.842
 20
100.611
 11
893.885
 21
101.18
  0
LINE
  8
0
 10
893.885
 20
101.18
 11
897.958
 21
101.464
  0
LINE
  8
0
 10
897.958
 20
101.464
 11
902.042
 21
101.464
  0
LINE
  8
0
 10
902.042
 20
101.464
 11
906.115
 21
101.18
  0
LINE
  8
0
 10
906.115
 20
101.18
 11
910.158
 21
100.611
  0
LINE
  8
0
 10
910.158
 20
100.611
 11
914.152
 21
99.7623
  0
LINE
  8
0
 10
914.152
 20
99.7623
 11
918.077
 21
98.6368
  0
LINE
  8
0
 10
918.077
 20
98.6368
 11
921.914
 21
97.2402
  0
LINE
  8
0
 10
921.914
 20
97.2402
 11
925.645
 21
95.5795
  0
LINE
  8
0
 10
925.645
 20
95.5795
 11
929.25
 21
93.6625
  0
LINE
  8
0
 10
929.25
 20
93.6625
 11
932.713
 21
91.4987
  0
LINE
  8
0
 10
932.713
 20
91.4987
 11
936.016
 21
89.0986
  0
LINE
  8
0
 10
936.016
 20
89.0986
 11
939.144
 21
86.474
  0
LINE
  8
0
 10
939.144
 20
86.474
 11
939.368
 21
86.2574
  0
LINE
  8
0
 10
939.368
 20
86.2574
 11
945.007
 21
91.8964
  0
LINE
  8
0
 10
945.007
 20
91.8964
 11
948.896
 21
88.0073
  0
LINE
  8
0
 10
948.896
 20
88.0073
 11
943.24
 21
82.3508
  0
LINE
  8
0
 10
943.24
 20
82.3508
 11
944.814
 21
80.6031
  0
LINE
  8
0
 10
944.814
 20
80.6031
 11
947.327
 21
77.3854
  0
LINE
  8
0
 10
947.327
 20
77.3854
 11
949.611
 21
74.0003
  0
LINE
  8
0
 10
949.611
 20
74.0003
 11
951.652
 21
70.4641
  0
LINE
  8
0
 10
951.652
 20
70.4641
 11
953.442
 21
66.7941
  0
LINE
  8
0
 10
953.442
 20
66.7941
 11
954.972
 21
63.0082
  0
LINE
  8
0
 10
954.972
 20
63.0082
 11
956.234
 21
59.1248
  0
LINE
  8
0
 10
956.234
 20
59.1248
 11
957.222
 21
55.1628
  0
LINE
  8
0
 10
957.222
 20
55.1628
 11
957.931
 21
51.1416
  0
LINE
  8
0
 10
957.931
 20
51.1416
 11
958.357
 21
47.0807
  0
LINE
  8
0
 10
958.357
 20
47.0807
 11
958.5
 21
43
  0
LINE
  8
0
 10
958.5
 20
43
 11
958.357
 21
38.9193
  0
LINE
  8
0
 10
958.357
 20
38.9193
 11
957.931
 21
34.8584
  0
LINE
  8
0
 10
957.931
 20
34.8584
 11
957.222
 21
30.8372
  0
LINE
  8
0
 10
957.222
 20
30.8372
 11
956.234
 21
26.8752
  0
LINE
  8
0
 10
956.234
 20
26.8752
 11
954.972
 21
22.9918
  0
LINE
  8
0
 10
954.972
 20
22.9918
 11
953.442
 21
19.2059
  0
LINE
  8
0
 10
953.442
 20
19.2059
 11
951.652
 21
15.5359
  0
LINE
  8
0
 10
951.652
 20
15.5359
 11
949.611
 21
11.9997
  0
LINE
  8
0
 10
949.611
 20
11.9997
 11
947.327
 21
8.61456
  0
LINE
  8
0
 10
947.327
 20
8.61456
 11
944.814
 21
5.39693
  0
LINE
  8
0
 10
944.814
 20
5.39693
 11
943.24
 21
3.64919
  0
LINE
  8
0
 10
943.24
 20
3.64919
 11
948.896
 21
-2.00734
  0
LINE
  8
0
 10
948.896
 20
-2.00734
 11
945.007
 21
-5.89642
  0
LINE
  8
0
 10
945.007
 20
-5.89642
 11
939.368
 21
-0.257446
  0
LINE
  8
0
 10
939.368
 20
-0.257446
 11
939.144
 21
-0.473969
  0
LINE
  8
0
 10
939.144
 20
-0.473969
 11
936.016
 21
-3.09862
  0
LINE
  8
0
 10
936.016
 20
-3.09862
 11
932.713
 21
-5.49869
  0
LINE
  8
0
 10
932.713
 20
-5.49869
 11
929.25
 21
-7.66248
  0
LINE
  8
0
 10
929.25
 20
-7.66248
 11
925.645
 21
-9.57945
  0
LINE
  8
0
 10
925.645
 20
-9.57945
 11
921.914
 21
-11.2402
  0
LINE
  8
0
 10
921.914
 20
-11.2402
 11
918.077
 21
-12.6368
  0
LINE
  8
0
 10
918.077
 20
-12.6368
 11
914.152
 21
-13.7623
  0
LINE
  8
0
 10
914.152
 20
-13.7623
 11
910.158
 21
-14.6113
  0
LINE
  8
0
 10
910.158
 20
-14.6113
 11
906.115
 21
-15.1795
  0
LINE
  8
0
 10
906.115
 20
-15.1795
 11
902.042
 21
-15.4644
  0
LINE
  8
0
 10
902.042
 20
-15.4644
 11
897.958
 21
-15.4644
  0
LINE
  8
0
 10
816
 20
-600
 11
854
 21
-600
  0
LINE
  8
0
 10
854
 20
-600
 11
854
 21
-605.55
  0
LINE
  8
0
 10
854
 20
-605.55
 11
866
 21
-605.55
  0
LINE
  8
0
 10
866
 20
-605.55
 11
866
 21
-600
  0
LINE
  8
0
 10
866
 20
-600
 11
897.2
 21
-600
  0
LINE
  8
0
 10
897.2
 20
-600
 11
897.2
 21
-287.7
  0
LINE
  8
0
 10
897.2
 20
-287.7
 11
902.8
 21
-287.7
  0
LINE
  8
0
 10
902.8
 20
-287.7
 11
902.8
 21
-600
  0
LINE
  8
0
 10
902.8
 20
-600
 11
934
 21
-600
  0
LINE
  8
0
 10
934
 20
-600
 11
934
 21
-605.55
  0
LINE
  8
0
 10
934
 20
-605.55
 11
946
 21
-605.55
  0
LINE
  8
0
 10
946
 20
-605.55
 11
946
 21
-600
  0
LINE
  8
0
 10
946
 20
-600
 11
984
 21
-600
  0
LINE
  8
0
 10
984
 20
-600
 11
984
 21
-605.55
  0
LINE
  8
0
 10
984
 20
-605.55
 11
996
 21
-605.55
  0
LINE
  8
0
 10
996
 20
-605.55
 11
996
 21
-600
  0
LINE
  8
0
 10
996
 20
-600
 11
1000
 21
-600
  0
LINE
  8
0
 10
1000
 20
-600
 11
1000
 21
-590
  0
LINE
  8
0
 10
1000
 20
-590
 11
977.347
 21
-96.3257
  0
LINE
  8
0
 10
977.347
 20
-96.3257
 11
1170.47
 21
11.6523
  0
LINE
  8
0
 10
1170.47
 20
11.6523
 11
1170.83
 21
11.8617
  0
LINE
  8
0
 10
1170.83
 20
11.8617
 11
1171.18
 21
12.0959
  0
LINE
  8
0
 10
1171.18
 20
12.0959
 11
1171.51
 21
12.3538
  0
LINE
  8
0
 10
1171.51
 20
12.3538
 11
1171.82
 21
12.634
  0
LINE
  8
0
 10
1171.82
 20
12.634
 11
1172.11
 21
12.9352
  0
LINE
  8
0
 10
1172.11
 20
12.9352
 11
1172.38
 21
13.256
  0
LINE
  8
0
 10
1172.38
 20
13.256
 11
1172.62
 21
13.5948
  0
LINE
  8
0
 10
1172.62
 20
13.5948
 11
1172.85
 21
13.95
  0
LINE
  8
0
 10
1172.85
 20
13.95
 11
1173.04
 21
14.3198
  0
LINE
  8
0
 10
1173.04
 20
14.3198
 11
1173.21
 21
14.7023
  0
LINE
  8
0
 10
1173.21
 20
14.7023
 11
1173.36
 21
15.0959
  0
LINE
  8
0
 10
1173.36
 20
15.0959
 11
1173.47
 21
15.4985
  0
LINE
  8
0
 10
1173.47
 20
15.4985
 11
1173.56
 21
15.9081
  0
LINE
  8
0
 10
1173.56
 20
15.9081
 11
1173.62
 21
16.3228
  0
LINE
  8
0
 10
1173.62
 20
16.3228
 11
1173.65
 21
16.7406
  0
LINE
  8
0
 10
1173.65
 20
16.7406
 11
1173.65
 21
16.95
  0
LINE
  8
0
 10
1173.65
 20
16.95
 11
1173.65
 21
16.95
  0
LINE
  8
0
 10
1173.65
 20
16.95
 11
1173.65
 21
28.55
  0
LINE
  8
0
 10
1173.65
 20
28.55
 11
1161.65
 21
28.55
  0
LINE
  8
0
 10
1161.65
 20
28.55
 11
1161.65
 21
21.3805
  0
LINE
  8
0
 10
1161.65
 20
21.3805
 11
974.586
 21
-36.1693
  0
LINE
  8
0
 10
974.586
 20
-36.1693
 11
973.5
 21
-12.5
  0
LINE
  8
0
 10
973.5
 20
-12.5
 11
966.4
 21
-12.5
  0
LINE
  8
0
 10
966.4
 20
-12.5
 11
966.4
 21
-6.90002
  0
LINE
  8
0
 10
966.4
 20
-6.90002
 11
958.4
 21
-6.90002
  0
LINE
  8
0
 10
958.4
 20
-6.90002
 11
958.4
 21
-12.5
  0
LINE
  8
0
 10
958.4
 20
-12.5
 11
958.411
 21
-12.5
  0
LINE
  8
0
 10
958.411
 20
-12.5
 11
958.411
 21
-52.5
  0
LINE
  8
0
 10
958.411
 20
-52.5
 11
841.589
 21
-52.5
  0
LINE
  8
0
 10
841.589
 20
-52.5
 11
841.589
 21
-12.5
  0
LINE
  8
0
 10
841.589
 20
-12.5
 11
841.6
 21
-12.5
  0
LINE
  8
0
 10
841.6
 20
-12.5
 11
841.6
 21
-6.90002
  0
LINE
  8
0
 10
841.6
 20
-6.90002
 11
833.6
 21
-6.90002
  0
LINE
  8
0
 10
833.6
 20
-6.90002
 11
833.6
 21
-12.5
  0
LINE
  8
0
 10
833.6
 20
-12.5
 11
826.5
 21
-12.5
  0
LINE
  8
0
 10
826.5
 20
-12.5
 11
825.414
 21
-36.1693
  0
LINE
  8
0
 10
825.414
 20
-36.1693
 11
638.35
 21
21.3805
  0
LINE
  8
0
 10
638.35
 20
21.3805
 11
638.35
 21
28.55
  0
LINE
  8
0
 10
638.35
 20
28.55
 11
626.35
 21
28.55
  0
LINE
  8
0
 10
626.35
 20
28.55
 11
626.35
 21
16.95
  0
LINE
  8
0
 10
626.35
 20
16.95
 11
626.353
 21
16.95
  0
LINE
  8
0
 10
626.353
 20
16.95
 11
626.353
 21
16.7406
  0
LINE
  8
0
 10
626.353
 20
16.7406
 11
626.383
 21
16.3228
  0
LINE
  8
0
 10
626.383
 20
16.3228
 11
626.441
 21
15.9081
  0
LINE
  8
0
 10
626.441
 20
15.9081
 11
626.528
 21
15.4985
  0
LINE
  8
0
 10
626.528
 20
15.4985
 11
626.643
 21
15.0959
  0
LINE
  8
0
 10
626.643
 20
15.0959
 11
626.787
 21
14.7023
  0
LINE
  8
0
 10
626.787
 20
14.7023
 11
626.957
 21
14.3198
  0
LINE
  8
0
 10
626.957
 20
14.3198
 11
627.154
 21
13.95
  0
LINE
  8
0
 10
627.154
 20
13.95
 11
627.375
 21
13.5948
  0
LINE
  8
0
 10
627.375
 20
13.5948
 11
627.622
 21
13.256
  0
LINE
  8
0
 10
627.622
 20
13.256
 11
627.891
 21
12.9352
  0
LINE
  8
0
 10
627.891
 20
12.9352
 11
628.182
 21
12.634
  0
LINE
  8
0
 10
628.182
 20
12.634
 11
628.493
 21
12.3538
  0
LINE
  8
0
 10
628.493
 20
12.3538
 11
628.823
 21
12.0959
  0
LINE
  8
0
 10
628.823
 20
12.0959
 11
629.17
 21
11.8617
  0
LINE
  8
0
 10
629.17
 20
11.8617
 11
629.533
 21
11.6523
  0
LINE
  8
0
 10
629.533
 20
11.6523
 11
822.653
 21
-96.3257
  0
LINE
  8
0
 10
822.653
 20
-96.3257
 11
800
 21
-590
  0
LINE
  8
0
 10
800
 20
-590
 11
800
 21
-600
  0
LINE
  8
0
 10
800
 20
-600
 11
804
 21
-600
  0
LINE
  8
0
 10
804
 20
-600
 11
804
 21
-605.55
  0
LINE
  8
0
 10
804
 20
-605.55
 11
816
 21
-605.55
  0
LINE
  8
0
 10
816
 20
-605.55
 11
816
 21
-600
  0
LINE
  8
0
 10
818.35
 20
-723.38
 11
1005.41
 21
-665.831
  0
LINE
  8
0
 10
1005.41
 20
-665.831
 11
1006.5
 21
-689.5
  0
LINE
  8
0
 10
1006.5
 20
-689.5
 11
1013.6
 21
-689.5
  0
LINE
  8
0
 10
1013.6
 20
-689.5
 11
1013.6
 21
-695.1
  0
LINE
  8
0
 10
1013.6
 20
-695.1
 11
1021.6
 21
-695.1
  0
LINE
  8
0
 10
1021.6
 20
-695.1
 11
1021.6
 21
-689.5
  0
LINE
  8
0
 10
1021.6
 20
-689.5
 11
1021.59
 21
-689.5
  0
LINE
  8
0
 10
1021.59
 20
-689.5
 11
1021.59
 21
-649.5
  0
LINE
  8
0
 10
1021.59
 20
-649.5
 11
1077.2
 21
-649.5
  0
LINE
  8
0
 10
1077.2
 20
-649.5
 11
1077.2
 21
-412.7
  0
LINE
  8
0
 10
1077.2
 20
-412.7
 11
1082.8
 21
-412.7
  0
LINE
  8
0
 10
1082.8
 20
-412.7
 11
1082.8
 21
-649.5
  0
LINE
  8
0
 10
1082.8
 20
-649.5
 11
1138.41
 21
-649.5
  0
LINE
  8
0
 10
1138.41
 20
-649.5
 11
1138.41
 21
-689.5
  0
LINE
  8
0
 10
1138.41
 20
-689.5
 11
1138.4
 21
-689.5
  0
LINE
  8
0
 10
1138.4
 20
-689.5
 11
1138.4
 21
-695.1
  0
LINE
  8
0
 10
1138.4
 20
-695.1
 11
1146.4
 21
-695.1
  0
LINE
  8
0
 10
1146.4
 20
-695.1
 11
1146.4
 21
-689.5
  0
LINE
  8
0
 10
1146.4
 20
-689.5
 11
1153.5
 21
-689.5
  0
LINE
  8
0
 10
1153.5
 20
-689.5
 11
1154.59
 21
-665.831
  0
LINE
  8
0
 10
1154.59
 20
-665.831
 11
1341.65
 21
-723.38
  0
LINE
  8
0
 10
1341.65
 20
-723.38
 11
1341.65
 21
-730.55
  0
LINE
  8
0
 10
1341.65
 20
-730.55
 11
1353.65
 21
-730.55
  0
LINE
  8
0
 10
1353.65
 20
-730.55
 11
1353.65
 21
-718.95
  0
LINE
  8
0
 10
1353.65
 20
-718.95
 11
1353.65
 21
-718.95
  0
LINE
  8
0
 10
1353.65
 20
-718.95
 11
1353.65
 21
-718.741
  0
LINE
  8
0
 10
1353.65
 20
-718.741
 11
1353.62
 21
-718.323
  0
LINE
  8
0
 10
1353.62
 20
-718.323
 11
1353.56
 21
-717.908
  0
LINE
  8
0
 10
1353.56
 20
-717.908
 11
1353.47
 21
-717.498
  0
LINE
  8
0
 10
1353.47
 20
-717.498
 11
1353.36
 21
-717.096
  0
LINE
  8
0
 10
1353.36
 20
-717.096
 11
1353.21
 21
-716.702
  0
LINE
  8
0
 10
1353.21
 20
-716.702
 11
1353.04
 21
-716.32
  0
LINE
  8
0
 10
1353.04
 20
-716.32
 11
1352.85
 21
-715.95
  0
LINE
  8
0
 10
1352.85
 20
-715.95
 11
1352.62
 21
-715.595
  0
LINE
  8
0
 10
1352.62
 20
-715.595
 11
1352.38
 21
-715.256
  0
LINE
  8
0
 10
1352.38
 20
-715.256
 11
1352.11
 21
-714.935
  0
LINE
  8
0
 10
1352.11
 20
-714.935
 11
1351.82
 21
-714.634
  0
LINE
  8
0
 10
1351.82
 20
-714.634
 11
1351.51
 21
-714.354
  0
LINE
  8
0
 10
1351.51
 20
-714.354
 11
1351.18
 21
-714.096
  0
LINE
  8
0
 10
1351.18
 20
-714.096
 11
1350.83
 21
-713.862
  0
LINE
  8
0
 10
1350.83
 20
-713.862
 11
1350.47
 21
-713.652
  0
LINE
  8
0
 10
1350.47
 20
-713.652
 11
1157.35
 21
-605.674
  0
LINE
  8
0
 10
1157.35
 20
-605.674
 11
1180
 21
-112
  0
LINE
  8
0
 10
1180
 20
-112
 11
1180
 21
-102
  0
LINE
  8
0
 10
1180
 20
-102
 11
1176
 21
-102
  0
LINE
  8
0
 10
1176
 20
-102
 11
1176
 21
-96.45
  0
LINE
  8
0
 10
1176
 20
-96.45
 11
1164
 21
-96.45
  0
LINE
  8
0
 10
1164
 20
-96.45
 11
1164
 21
-102
  0
LINE
  8
0
 10
1164
 20
-102
 11
1126
 21
-102
  0
LINE
  8
0
 10
1126
 20
-102
 11
1126
 21
-96.45
  0
LINE
  8
0
 10
1126
 20
-96.45
 11
1114
 21
-96.45
  0
LINE
  8
0
 10
1114
 20
-96.45
 11
1114
 21
-102
  0
LINE
  8
0
 10
1114
 20
-102
 11
1046
 21
-102
  0
LINE
  8
0
 10
1046
 20
-102
 11
1046
 21
-96.45
  0
LINE
  8
0
 10
1046
 20
-96.45
 11
1034
 21
-96.45
  0
LINE
  8
0
 10
1034
 20
-96.45
 11
1034
 21
-102
  0
LINE
  8
0
 10
1034
 20
-102
 11
996
 21
-102
  0
LINE
  8
0
 10
996
 20
-102
 11
996
 21
-96.45
  0
LINE
  8
0
 10
996
 20
-96.45
 11
984
 21
-96.45
  0
LINE
  8
0
 10
984
 20
-96.45
 11
984
 21
-102
  0
LINE
  8
0
 10
984
 20
-102
 11
980
 21
-102
  0
LINE
  8
0
 10
980
 20
-102
 11
980
 21
-112
  0
LINE
  8
0
 10
980
 20
-112
 11
1002.65
 21
-605.674
  0
LINE
  8
0
 10
1002.65
 20
-605.674
 11
809.533
 21
-713.652
  0
LINE
  8
0
 10
809.533
 20
-713.652
 11
809.17
 21
-713.862
  0
LINE
  8
0
 10
809.17
 20
-713.862
 11
808.823
 21
-714.096
  0
LINE
  8
0
 10
808.823
 20
-714.096
 11
808.493
 21
-714.354
  0
LINE
  8
0
 10
808.493
 20
-714.354
 11
808.182
 21
-714.634
  0
LINE
  8
0
 10
808.182
 20
-714.634
 11
807.891
 21
-714.935
  0
LINE
  8
0
 10
807.891
 20
-714.935
 11
807.622
 21
-715.256
  0
LINE
  8
0
 10
807.622
 20
-715.256
 11
807.375
 21
-715.595
  0
LINE
  8
0
 10
807.375
 20
-715.595
 11
807.154
 21
-715.95
  0
LINE
  8
0
 10
807.154
 20
-715.95
 11
806.957
 21
-716.32
  0
LINE
  8
0
 10
806.957
 20
-716.32
 11
806.787
 21
-716.702
  0
LINE
  8
0
 10
806.787
 20
-716.702
 11
806.643
 21
-717.096
  0
LINE
  8
0
 10
806.643
 20
-717.096
 11
806.528
 21
-717.498
  0
LINE
  8
0
 10
806.528
 20
-717.498
 11
806.441
 21
-717.908
  0
LINE
  8
0
 10
806.441
 20
-717.908
 11
806.383
 21
-718.323
  0
LINE
  8
0
 10
806.383
 20
-718.323
 11
806.353
 21
-718.741
  0
LINE
  8
0
 10
806.353
 20
-718.741
 11
806.353
 21
-718.95
  0
LINE
  8
0
 10
806.353
 20
-718.95
 11
806.35
 21
-718.95
  0
LINE
  8
0
 10
806.35
 20
-718.95
 11
806.35
 21
-730.55
  0
LINE
  8
0
 10
806.35
 20
-730.55
 11
818.35
 21
-730.55
  0
LINE
  8
0
 10
818.35
 20
-730.55
 11
818.35
 21
-723.38
  0
LINE
  8
0
 10
300.5
 20
-943
 11
325.5
 21
-943
  0
LINE
  8
0
 10
325.5
 20
-943
 11
325.5
 21
-949
  0
LINE
  8
0
 10
325.5
 20
-949
 11
340.5
 21
-949
  0
LINE
  8
0
 10
340.5
 20
-949
 11
340.5
 21
-943
  0
LINE
  8
0
 10
340.5
 20
-943
 11
364.5
 21
-943
  0
LINE
  8
0
 10
364.5
 20
-943
 11
364.5
 21
-320
  0
LINE
  8
0
 10
364.5
 20
-320
 11
340.5
 21
-320
  0
LINE
  8
0
 10
340.5
 20
-320
 11
340.5
 21
-314
  0
LINE
  8
0
 10
340.5
 20
-314
 11
325.5
 21
-314
  0
LINE
  8
0
 10
325.5
 20
-314
 11
325.5
 21
-320
  0
LINE
  8
0
 10
325.5
 20
-320
 11
300.5
 21
-320
  0
LINE
  8
0
 10
300.5
 20
-320
 11
300.5
 21
-314
  0
LINE
  8
0
 10
300.5
 20
-314
 11
285.5
 21
-314
  0
LINE
  8
0
 10
285.5
 20
-314
 11
285.5
 21
-320
  0
LINE
  8
0
 10
285.5
 20
-320
 11
239
 21
-320
  0
LINE
  8
0
 10
239
 20
-320
 11
239
 21
-943
  0
LINE
  8
0
 10
239
 20
-943
 11
263.95
 21
-943
  0
LINE
  8
0
 10
263.95
 20
-943
 11
263.95
 21
-630.7
  0
LINE
  8
0
 10
263.95
 20
-630.7
 11
269.55
 21
-630.7
  0
LINE
  8
0
 10
269.55
 20
-630.7
 11
269.55
 21
-943
  0
LINE
  8
0
 10
269.55
 20
-943
 11
285.5
 21
-943
  0
LINE
  8
0
 10
285.5
 20
-943
 11
285.5
 21
-949
  0
LINE
  8
0
 10
285.5
 20
-949
 11
300.5
 21
-949
  0
LINE
  8
0
 10
300.5
 20
-949
 11
300.5
 21
-943
  0
LINE
  8
0
 10
170
 20
-943
 11
195
 21
-943
  0
LINE
  8
0
 10
195
 20
-943
 11
195
 21
-949
  0
LINE
  8
0
 10
195
 20
-949
 11
210
 21
-949
  0
LINE
  8
0
 10
210
 20
-949
 11
210
 21
-943
  0
LINE
  8
0
 10
210
 20
-943
 11
234
 21
-943
  0
LINE
  8
0
 10
234
 20
-943
 11
234
 21
-320
  0
LINE
  8
0
 10
234
 20
-320
 11
210
 21
-320
  0
LINE
  8
0
 10
210
 20
-320
 11
210
 21
-314
  0
LINE
  8
0
 10
210
 20
-314
 11
195
 21
-314
  0
LINE
  8
0
 10
195
 20
-314
 11
195
 21
-320
  0
LINE
  8
0
 10
195
 20
-320
 11
170
 21
-320
  0
LINE
  8
0
 10
170
 20
-320
 11
170
 21
-314
  0
LINE
  8
0
 10
170
 20
-314
 11
155
 21
-314
  0
LINE
  8
0
 10
155
 20
-314
 11
155
 21
-320
  0
LINE
  8
0
 10
155
 20
-320
 11
108.5
 21
-320
  0
LINE
  8
0
 10
108.5
 20
-320
 11
108.5
 21
-943
  0
LINE
  8
0
 10
108.5
 20
-943
 11
133.45
 21
-943
  0
LINE
  8
0
 10
133.45
 20
-943
 11
133.45
 21
-630.7
  0
LINE
  8
0
 10
133.45
 20
-630.7
 11
139.05
 21
-630.7
  0
LINE
  8
0
 10
139.05
 20
-630.7
 11
139.05
 21
-943
  0
LINE
  8
0
 10
139.05
 20
-943
 11
155
 21
-943
  0
LINE
  8
0
 10
155
 20
-943
 11
155
 21
-949
  0
LINE
  8
0
 10
155
 20
-949
 11
170
 21
-949
  0
LINE
  8
0
 10
170
 20
-949
 11
170
 21
-943
  0
LINE
  8
0
 10
-91
 20
-943
 11
-66
 21
-943
  0
LINE
  8
0
 10
-66
 20
-943
 11
-66
 21
-949
  0
LINE
  8
0
 10
-66
 20
-949
 11
-51
 21
-949
  0
LINE
  8
0
 10
-51
 20
-949
 11
-51
 21
-943
  0
LINE
  8
0
 10
-51
 20
-943
 11
-27
 21
-943
  0
LINE
  8
0
 10
-27
 20
-943
 11
-27
 21
-320
  0
LINE
  8
0
 10
-27
 20
-320
 11
-51
 21
-320
  0
LINE
  8
0
 10
-51
 20
-320
 11
-51
 21
-314
  0
LINE
  8
0
 10
-51
 20
-314
 11
-66
 21
-314
  0
LINE
  8
0
 10
-66
 20
-314
 11
-66
 21
-320
  0
LINE
  8
0
 10
-66
 20
-320
 11
-91
 21
-320
  0
LINE
  8
0
 10
-91
 20
-320
 11
-91
 21
-314
  0
LINE
  8
0
 10
-91
 20
-314
 11
-106
 21
-314
  0
LINE
  8
0
 10
-106
 20
-314
 11
-106
 21
-320
  0
LINE
  8
0
 10
-106
 20
-320
 11
-152.5
 21
-320
  0
LINE
  8
0
 10
-152.5
 20
-320
 11
-152.5
 21
-943
  0
LINE
  8
0
 10
-152.5
 20
-943
 11
-127.55
 21
-943
  0
LINE
  8
0
 10
-127.55
 20
-943
 11
-127.55
 21
-630.7
  0
LINE
  8
0
 10
-127.55
 20
-630.7
 11
-121.95
 21
-630.7
  0
LINE
  8
0
 10
-121.95
 20
-630.7
 11
-121.95
 21
-943
  0
LINE
  8
0
 10
-121.95
 20
-943
 11
-106
 21
-943
  0
LINE
  8
0
 10
-106
 20
-943
 11
-106
 21
-949
  0
LINE
  8
0
 10
-106
 20
-949
 11
-91
 21
-949
  0
LINE
  8
0
 10
-91
 20
-949
 11
-91
 21
-943
  0
LINE
  8
0
 10
-221.5
 20
-943
 11
-196.5
 21
-943
  0
LINE
  8
0
 10
-196.5
 20
-943
 11
-196.5
 21
-949
  0
LINE
  8
0
 10
-196.5
 20
-949
 11
-181.5
 21
-949
  0
LINE
  8
0
 10
-181.5
 20
-949
 11
-181.5
 21
-943
  0
LINE
  8
0
 10
-181.5
 20
-943
 11
-157.5
 21
-943
  0
LINE
  8
0
 10
-157.5
 20
-943
 11
-157.5
 21
-320
  0
LINE
  8
0
 10
-157.5
 20
-320
 11
-181.5
 21
-320
  0
LINE
  8
0
 10
-181.5
 20
-320
 11
-181.5
 21
-314
  0
LINE
  8
0
 10
-181.5
 20
-314
 11
-196.5
 21
-314
  0
LINE
  8
0
 10
-196.5
 20
-314
 11
-196.5
 21
-320
  0
LINE
  8
0
 10
-196.5
 20
-320
 11
-221.5
 21
-320
  0
LINE
  8
0
 10
-221.5
 20
-320
 11
-221.5
 21
-314
  0
LINE
  8
0
 10
-221.5
 20
-314
 11
-236.5
 21
-314
  0
LINE
  8
0
 10
-236.5
 20
-314
 11
-236.5
 21
-320
  0
LINE
  8
0
 10
-236.5
 20
-320
 11
-283
 21
-320
  0
LINE
  8
0
 10
-283
 20
-320
 11
-283
 21
-943
  0
LINE
  8
0
 10
-283
 20
-943
 11
-258.05
 21
-943
  0
LINE
  8
0
 10
-258.05
 20
-943
 11
-258.05
 21
-630.7
  0
LINE
  8
0
 10
-258.05
 20
-630.7
 11
-252.45
 21
-630.7
  0
LINE
  8
0
 10
-252.45
 20
-630.7
 11
-252.45
 21
-943
  0
LINE
  8
0
 10
-252.45
 20
-943
 11
-236.5
 21
-943
  0
LINE
  8
0
 10
-236.5
 20
-943
 11
-236.5
 21
-949
  0
LINE
  8
0
 10
-236.5
 20
-949
 11
-221.5
 21
-949
  0
LINE
  8
0
 10
-221.5
 20
-949
 11
-221.5
 21
-943
  0
LINE
  8
0
 10
39.5
 20
-943
 11
64.5
 21
-943
  0
LINE
  8
0
 10
64.5
 20
-943
 11
64.5
 21
-949
  0
LINE
  8
0
 10
64.5
 20
-949
 11
79.5
 21
-949
  0
LINE
  8
0
 10
79.5
 20
-949
 11
79.5
 21
-943
  0
LINE
  8
0
 10
79.5
 20
-943
 11
103.5
 21
-943
  0
LINE
  8
0
 10
103.5
 20
-943
 11
103.5
 21
-320
  0
LINE
  8
0
 10
103.5
 20
-320
 11
79.5
 21
-320
  0
LINE
  8
0
 10
79.5
 20
-320
 11
79.5
 21
-314
  0
LINE
  8
0
 10
79.5
 20
-314
 11
64.5
 21
-314
  0
LINE
  8
0
 10
64.5
 20
-314
 11
64.5
 21
-320
  0
LINE
  8
0
 10
64.5
 20
-320
 11
39.5
 21
-320
  0
LINE
  8
0
 10
39.5
 20
-320
 11
39.5
 21
-314
  0
LINE
  8
0
 10
39.5
 20
-314
 11
24.5
 21
-314
  0
LINE
  8
0
 10
24.5
 20
-314
 11
24.5
 21
-320
  0
LINE
  8
0
 10
24.5
 20
-320
 11
-22
 21
-320
  0
LINE
  8
0
 10
-22
 20
-320
 11
-22
 21
-943
  0
LINE
  8
0
 10
-22
 20
-943
 11
2.95001
 21
-943
  0
LINE
  8
0
 10
2.95001
 20
-943
 11
2.95001
 21
-630.7
  0
LINE
  8
0
 10
2.95001
 20
-630.7
 11
8.54999
 21
-630.7
  0
LINE
  8
0
 10
8.54999
 20
-630.7
 11
8.54999
 21
-943
  0
LINE
  8
0
 10
8.54999
 20
-943
 11
24.5
 21
-943
  0
LINE
  8
0
 10
24.5
 20
-943
 11
24.5
 21
-949
  0
LINE
  8
0
 10
24.5
 20
-949
 11
39.5
 21
-949
  0
LINE
  8
0
 10
39.5
 20
-949
 11
39.5
 21
-943
  0
LINE
  8
0
 10
-352
 20
-943
 11
-327
 21
-943
  0
LINE
  8
0
 10
-327
 20
-943
 11
-327
 21
-949
  0
LINE
  8
0
 10
-327
 20
-949
 11
-312
 21
-949
  0
LINE
  8
0
 10
-312
 20
-949
 11
-312
 21
-943
  0
LINE
  8
0
 10
-312
 20
-943
 11
-288
 21
-943
  0
LINE
  8
0
 10
-288
 20
-943
 11
-288
 21
-320
  0
LINE
  8
0
 10
-288
 20
-320
 11
-312
 21
-320
  0
LINE
  8
0
 10
-312
 20
-320
 11
-312
 21
-314
  0
LINE
  8
0
 10
-312
 20
-314
 11
-327
 21
-314
  0
LINE
  8
0
 10
-327
 20
-314
 11
-327
 21
-320
  0
LINE
  8
0
 10
-327
 20
-320
 11
-352
 21
-320
  0
LINE
  8
0
 10
-352
 20
-320
 11
-352
 21
-314
  0
LINE
  8
0
 10
-352
 20
-314
 11
-367
 21
-314
  0
LINE
  8
0
 10
-367
 20
-314
 11
-367
 21
-320
  0
LINE
  8
0
 10
-367
 20
-320
 11
-413.5
 21
-320
  0
LINE
  8
0
 10
-413.5
 20
-320
 11
-413.5
 21
-943
  0
LINE
  8
0
 10
-413.5
 20
-943
 11
-388.55
 21
-943
  0
LINE
  8
0
 10
-388.55
 20
-943
 11
-388.55
 21
-630.7
  0
LINE
  8
0
 10
-388.55
 20
-630.7
 11
-382.95
 21
-630.7
  0
LINE
  8
0
 10
-382.95
 20
-630.7
 11
-382.95
 21
-943
  0
LINE
  8
0
 10
-382.95
 20
-943
 11
-367
 21
-943
  0
LINE
  8
0
 10
-367
 20
-943
 11
-367
 21
-949
  0
LINE
  8
0
 10
-367
 20
-949
 11
-352
 21
-949
  0
LINE
  8
0
 10
-352
 20
-949
 11
-352
 21
-943
  0
LINE
  8
0
 10
431
 20
-943
 11
456
 21
-943
  0
LINE
  8
0
 10
456
 20
-943
 11
456
 21
-949
  0
LINE
  8
0
 10
456
 20
-949
 11
471
 21
-949
  0
LINE
  8
0
 10
471
 20
-949
 11
471
 21
-943
  0
LINE
  8
0
 10
471
 20
-943
 11
495
 21
-943
  0
LINE
  8
0
 10
495
 20
-943
 11
495
 21
-320
  0
LINE
  8
0
 10
495
 20
-320
 11
471
 21
-320
  0
LINE
  8
0
 10
471
 20
-320
 11
471
 21
-314
  0
LINE
  8
0
 10
471
 20
-314
 11
456
 21
-314
  0
LINE
  8
0
 10
456
 20
-314
 11
456
 21
-320
  0
LINE
  8
0
 10
456
 20
-320
 11
431
 21
-320
  0
LINE
  8
0
 10
431
 20
-320
 11
431
 21
-314
  0
LINE
  8
0
 10
431
 20
-314
 11
416
 21
-314
  0
LINE
  8
0
 10
416
 20
-314
 11
416
 21
-320
  0
LINE
  8
0
 10
416
 20
-320
 11
369.5
 21
-320
  0
LINE
  8
0
 10
369.5
 20
-320
 11
369.5
 21
-943
  0
LINE
  8
0
 10
369.5
 20
-943
 11
394.45
 21
-943
  0
LINE
  8
0
 10
394.45
 20
-943
 11
394.45
 21
-630.7
  0
LINE
  8
0
 10
394.45
 20
-630.7
 11
400.05
 21
-630.7
  0
LINE
  8
0
 10
400.05
 20
-630.7
 11
400.05
 21
-943
  0
LINE
  8
0
 10
400.05
 20
-943
 11
416
 21
-943
  0
LINE
  8
0
 10
416
 20
-943
 11
416
 21
-949
  0
LINE
  8
0
 10
416
 20
-949
 11
431
 21
-949
  0
LINE
  8
0
 10
431
 20
-949
 11
431
 21
-943
  0
LINE
  8
0
 10
-482.5
 20
-943
 11
-457.5
 21
-943
  0
LINE
  8
0
 10
-457.5
 20
-943
 11
-457.5
 21
-949
  0
LINE
  8
0
 10
-457.5
 20
-949
 11
-442.5
 21
-949
  0
LINE
  8
0
 10
-442.5
 20
-949
 11
-442.5
 21
-943
  0
LINE
  8
0
 10
-442.5
 20
-943
 11
-418.5
 21
-943
  0
LINE
  8
0
 10
-418.5
 20
-943
 11
-418.5
 21
-320
  0
LINE
  8
0
 10
-418.5
 20
-320
 11
-442.5
 21
-320
  0
LINE
  8
0
 10
-442.5
 20
-320
 11
-442.5
 21
-314
  0
LINE
  8
0
 10
-442.5
 20
-314
 11
-457.5
 21
-314
  0
LINE
  8
0
 10
-457.5
 20
-314
 11
-457.5
 21
-320
  0
LINE
  8
0
 10
-457.5
 20
-320
 11
-482.5
 21
-320
  0
LINE
  8
0
 10
-482.5
 20
-320
 11
-482.5
 21
-314
  0
LINE
  8
0
 10
-482.5
 20
-314
 11
-497.5
 21
-314
  0
LINE
  8
0
 10
-497.5
 20
-314
 11
-497.5
 21
-320
  0
LINE
  8
0
 10
-497.5
 20
-320
 11
-544
 21
-320
  0
LINE
  8
0
 10
-544
 20
-320
 11
-544
 21
-943
  0
LINE
  8
0
 10
-544
 20
-943
 11
-519.05
 21
-943
  0
LINE
  8
0
 10
-519.05
 20
-943
 11
-519.05
 21
-630.7
  0
LINE
  8
0
 10
-519.05
 20
-630.7
 11
-513.45
 21
-630.7
  0
LINE
  8
0
 10
-513.45
 20
-630.7
 11
-513.45
 21
-943
  0
LINE
  8
0
 10
-513.45
 20
-943
 11
-497.5
 21
-943
  0
LINE
  8
0
 10
-497.5
 20
-943
 11
-497.5
 21
-949
  0
LINE
  8
0
 10
-497.5
 20
-949
 11
-482.5
 21
-949
  0
LINE
  8
0
 10
-482.5
 20
-949
 11
-482.5
 21
-943
  0
ENDSEC
  0
SECTION
  2
OBJECTS
  0
DICTIONARY
  0
ENDSEC
  0
EOF
